<svg xmlns="http://www.w3.org/2000/svg" xmlns:xlink="http://www.w3.org/1999/xlink" width="291" height="333" version="1.1" viewBox="0 0 291 333"><title>empty_chat</title><desc>Created with Sketch.</desc><defs><path id="path-1" d="M37.3333333,1.83333333 C37.3333333,1.66666667 37.3333333,1.5 37.1666667,1.33333333 C37.1666667,1.33333333 37.1666667,1.16666667 37.1666667,1.16666667 C37.1666667,1 37,0.833333333 36.8333333,0.666666667 C36.6666667,0.5 36.5,0.5 36.3333333,0.333333333 C36.3333333,0.333333333 36.1666667,0.333333333 36.1666667,0.333333333 C36,0.333333333 35.8333333,0.333333333 35.6666667,0.166666667 C35.6666667,0.333333333 35.6666667,0.333333333 35.6666667,0.333333333 C35.5,0.333333333 35.3333333,0.333333333 35.1666667,0.5 L1.83333333,12.1666667 C1.16666667,12.3333333 0.666666667,12.8333333 0.666666667,13.6666667 C0.666666667,14.3333333 1,15 1.66666667,15.3333333 L16,21.6666667 L22.3333333,36 C22.6666667,36.6666667 23.1666667,37 23.8333333,37 C23.8333333,37 23.8333333,37 23.8333333,37 C24.5,37 25.1666667,36.5 25.3333333,35.8333333 L37,2.5 C37.3333333,2.33333333 37.3333333,2.16666667 37.3333333,1.83333333 C37.3333333,2 37.3333333,2 37.3333333,1.83333333 Z M29.3333333,6 L17,18.3333333 L6.83333333,13.8333333 L29.3333333,6 Z M23.8333333,30.8333333 L19.3333333,20.6666667 L31.6666667,8.33333333 L23.8333333,30.8333333 Z"/><path id="path-3" d="M117.151255,52.269608 C115.411251,24.1002761 93.3712012,1.21269404 64.9511364,0.0389718815 L62.0511298,0.0389718815 C62.0511298,0.0389718815 62.0511298,0.0389718815 62.0511298,0.0389718815 C53.35111,0.0389718815 45.2310915,1.79955512 37.6910743,5.90758268 C18.5510307,15.29736 6.95100431,34.6637756 6.95100431,55.7907744 C6.95100431,63.4199685 8.69100827,71.6360236 11.5910149,78.6783566 L1.15099109,109.781994 C0.570989773,112.129438 1.15099109,114.476882 2.31099374,115.650605 C4.0509977,116.824327 5.21100034,117.411188 6.95100431,117.411188 C7.53100563,117.411188 8.11100695,117.411188 8.69100827,116.824327 L39.4310783,106.260827 C46.3910942,109.195133 53.9311113,110.955716 62.0511298,110.955716 C82.9311774,110.955716 102.071221,99.2184943 111.351242,80.4389398 C115.411251,72.8097458 117.151255,64.0068296 117.151255,55.2039134 L117.151255,52.269608 Z M105.551229,55.7907744 C105.551229,55.7907744 105.551229,55.7907744 105.551229,55.7907744 C105.551229,62.8331074 103.811225,69.2885793 100.911218,75.7440512 C93.3712012,91.0024392 78.8711682,99.8053554 62.0511298,99.8053554 C55.6711153,99.8053554 48.7110994,98.0447722 42.9110862,95.1104668 C41.7510836,94.5236057 40.0110796,94.5236057 38.2710757,94.5236057 L16.2310254,102.1528 L23.7710426,79.8520787 C24.3510439,78.0914955 24.3510439,76.9177733 23.1910413,75.1571901 C20.2910347,69.2885793 18.5510307,62.2462463 18.5510307,55.7907744 C18.5510307,38.7718031 27.8310519,24.1002761 42.9110862,16.4710821 C48.7110994,13.5367767 55.6711153,11.7761935 62.0511298,11.7761935 C62.0511298,11.7761935 62.0511298,11.7761935 62.0511298,11.7761935 L64.3711351,11.7761935 C86.4111853,12.9499156 103.811225,30.555748 105.551229,52.856469 L105.551229,55.7907744 Z"/><path id="path-5" d="M117.151255,52.269608 C115.411251,24.1002761 93.3712012,1.21269404 64.9511364,0.0389718815 L62.0511298,0.0389718815 C62.0511298,0.0389718815 62.0511298,0.0389718815 62.0511298,0.0389718815 C53.35111,0.0389718815 45.2310915,1.79955512 37.6910743,5.90758268 C18.5510307,15.29736 6.95100431,34.6637756 6.95100431,55.7907744 C6.95100431,63.4199685 8.69100827,71.6360236 11.5910149,78.6783566 L1.15099109,109.781994 C0.570989773,112.129438 1.15099109,114.476882 2.31099374,115.650605 C4.0509977,116.824327 5.21100034,117.411188 6.95100431,117.411188 C7.53100563,117.411188 8.11100695,117.411188 8.69100827,116.824327 L39.4310783,106.260827 C46.3910942,109.195133 53.9311113,110.955716 62.0511298,110.955716 C82.9311774,110.955716 102.071221,99.2184943 111.351242,80.4389398 C115.411251,72.8097458 117.151255,64.0068296 117.151255,55.2039134 L117.151255,52.269608 Z M105.551229,55.7907744 C105.551229,55.7907744 105.551229,55.7907744 105.551229,55.7907744 C105.551229,62.8331074 103.811225,69.2885793 100.911218,75.7440512 C93.3712012,91.0024392 78.8711682,99.8053554 62.0511298,99.8053554 C55.6711153,99.8053554 48.7110994,98.0447722 42.9110862,95.1104668 C41.7510836,94.5236057 40.0110796,94.5236057 38.2710757,94.5236057 L16.2310254,102.1528 L23.7710426,79.8520787 C24.3510439,78.0914955 24.3510439,76.9177733 23.1910413,75.1571901 C20.2910347,69.2885793 18.5510307,62.2462463 18.5510307,55.7907744 C18.5510307,38.7718031 27.8310519,24.1002761 42.9110862,16.4710821 C48.7110994,13.5367767 55.6711153,11.7761935 62.0511298,11.7761935 C62.0511298,11.7761935 62.0511298,11.7761935 62.0511298,11.7761935 L64.3711351,11.7761935 C86.4111853,12.9499156 103.811225,30.555748 105.551229,52.856469 L105.551229,55.7907744 Z"/></defs><g id="Page-1" fill="none" fill-rule="evenodd" stroke="none" stroke-width="1"><g id="Group" transform="translate(21.000000, -6.000000)"><g id="icon-/-send" transform="translate(153.363263, 23.020451) rotate(16.000000) translate(-153.363263, -23.020451) translate(134.363263, 4.520451)"><mask id="mask-2" fill="#fff"><use xlink:href="#path-1"/></mask><use id="Shape" fill="#ECECF0" fill-rule="nonzero" xlink:href="#path-1"/></g><path id="Path-4" fill-rule="nonzero" stroke="#ECECF0" stroke-dasharray="6 13" stroke-linecap="round" stroke-linejoin="round" stroke-width="5" d="M133.436596,32 C103.715156,45.586285 88.8544366,57.2529517 88.8544366,67 C88.8544366,98 167.186768,78.1266256 199.973636,103 C235.239487,129.754026 235.510481,163.146964 228.367255,181 C189.156214,279 48.0856251,212.489011 6.83952607,276 C-9.61276336,301.333333 5.1339644,319 51.0797093,329"/><g id="menu/item/chats" transform="translate(31.000000, 110.000000)"><g><g id="icon-/-message-circle-copy" transform="translate(123.000000, 88.343054) scale(-1, 1) translate(-123.000000, -88.343054) translate(64.000000, 29.343054)"><mask id="mask-4" fill="#fff"><use xlink:href="#path-3"/></mask><use id="Mask" fill="#ECECF0" fill-rule="nonzero" xlink:href="#path-3"/></g><g id="icon-/-message-circle"><mask id="mask-6" fill="#fff"><use xlink:href="#path-5"/></mask><use id="Mask" fill="#ECECF0" fill-rule="nonzero" xlink:href="#path-5"/></g></g><path id="Oval-2" fill="#FFF" d="M116,129 C119.284156,129 125.791136,129.771892 131,128.070891 C137.341558,126 138.075412,124.671599 140.648803,124 C141.0143,123.904613 141.577818,123.828104 142.583455,124 C144.668131,124.356338 147.796809,125.190115 149,125 C154.957016,124.058736 156.485572,123.861419 159.035763,122 C161.242313,120.38941 161.968437,119.414897 161.060472,117 C160.6725,115.96812 157.377454,107.66383 158,105 C159.473286,98.6959128 163.18252,90.000829 163.18252,84 C163.18252,60.3802749 142.524387,41 118.5,41 C94.4756134,41 75,60.1475704 75,83.7672956 C75,107.387021 91.9958297,129 116,129 Z"/></g></g></g></svg>