<?xml version="1.0" encoding="UTF-8" standalone="no"?>
<!DOCTYPE svg PUBLIC "-//W3C//DTD SVG 1.1//EN"
 "http://www.w3.org/Graphics/SVG/1.1/DTD/svg11.dtd">
<!-- Generated by graphviz version 2.40.1 (20161225.0304)
 -->
<!-- Pages: 1 -->
<svg width="926pt" height="875pt"
 viewBox="0.00 0.00 925.67 875.06" xmlns="http://www.w3.org/2000/svg" xmlns:xlink="http://www.w3.org/1999/xlink">
<g id="graph0" class="graph" transform="scale(1 1) rotate(0) translate(4 871.058)">
<polygon fill="#ffffff" stroke="transparent" points="-4,4 -4,-871.058 921.6673,-871.058 921.6673,4 -4,4"/>
<!-- AndroidFramework -->
<g id="node1" class="node">
<title>AndroidFramework</title>
<ellipse fill="none" stroke="#000000" cx="234.2594" cy="-516.5828" rx="89.871" ry="29.3315"/>
<text text-anchor="middle" x="234.2594" y="-520.7828" font-family="Times,serif" font-size="14.00" fill="#000000">AndroidFramework</text>
<text text-anchor="middle" x="234.2594" y="-503.9828" font-family="Times,serif" font-size="14.00" fill="#000000">up&#45;to&#45;date</text>
</g>
<!-- FrameworkLdflags -->
<g id="node2" class="node">
<title>FrameworkLdflags</title>
<ellipse fill="none" stroke="#000000" cx="234.2594" cy="-397.9928" rx="87.3633" ry="29.3315"/>
<text text-anchor="middle" x="234.2594" y="-402.1928" font-family="Times,serif" font-size="14.00" fill="#000000">FrameworkLdflags</text>
<text text-anchor="middle" x="234.2594" y="-385.3928" font-family="Times,serif" font-size="14.00" fill="#000000">up&#45;to&#45;date</text>
</g>
<!-- AndroidFramework&#45;&gt;FrameworkLdflags -->
<g id="edge20" class="edge">
<title>AndroidFramework&#45;&gt;FrameworkLdflags</title>
<path fill="none" stroke="#000000" d="M234.2594,-486.9635C234.2594,-472.1063 234.2594,-453.9 234.2594,-437.8359"/>
<polygon fill="#000000" stroke="#000000" points="237.7595,-437.6455 234.2594,-427.6455 230.7595,-437.6456 237.7595,-437.6455"/>
</g>
<!-- Gomobile -->
<g id="node8" class="node">
<title>Gomobile</title>
<ellipse fill="none" stroke="#000000" cx="392.2594" cy="-397.9928" rx="51.9894" ry="29.3315"/>
<text text-anchor="middle" x="392.2594" y="-402.1928" font-family="Times,serif" font-size="14.00" fill="#000000">Gomobile</text>
<text text-anchor="middle" x="392.2594" y="-385.3928" font-family="Times,serif" font-size="14.00" fill="#000000">up&#45;to&#45;date</text>
</g>
<!-- AndroidFramework&#45;&gt;Gomobile -->
<g id="edge19" class="edge">
<title>AndroidFramework&#45;&gt;Gomobile</title>
<path fill="none" stroke="#000000" d="M270.5078,-489.3759C294.9823,-471.0061 327.2906,-446.7564 352.4749,-427.8538"/>
<polygon fill="#000000" stroke="#000000" points="354.8242,-430.4667 360.721,-421.6645 350.6221,-424.8683 354.8242,-430.4667"/>
</g>
<!-- FrameworkRef -->
<g id="node3" class="node">
<title>FrameworkRef</title>
<ellipse fill="none" stroke="#000000" cx="82.2594" cy="-267.5233" rx="82.0196" ry="53.3494"/>
<text text-anchor="middle" x="82.2594" y="-288.5233" font-family="Times,serif" font-size="14.00" fill="#000000">FrameworkRef</text>
<text text-anchor="middle" x="82.2594" y="-271.7233" font-family="Times,serif" font-size="14.00" fill="#000000">8.18311ms</text>
<text text-anchor="middle" x="82.2594" y="-254.9233" font-family="Times,serif" font-size="14.00" fill="#000000">own: 2.286357ms</text>
<text text-anchor="middle" x="82.2594" y="-238.1233" font-family="Times,serif" font-size="14.00" fill="#000000">phony</text>
</g>
<!-- FrameworkLdflags&#45;&gt;FrameworkRef -->
<g id="edge8" class="edge">
<title>FrameworkLdflags&#45;&gt;FrameworkRef</title>
<path fill="none" stroke="#000000" d="M202.0241,-370.3235C183.8626,-354.7345 160.643,-334.8039 139.4921,-316.649"/>
<polygon fill="#000000" stroke="#000000" points="141.6741,-313.9095 131.8065,-310.0521 137.1149,-319.2211 141.6741,-313.9095"/>
</g>
<!-- GlobalVersion -->
<g id="node6" class="node">
<title>GlobalVersion</title>
<ellipse fill="none" stroke="#000000" cx="274.2594" cy="-267.5233" rx="92.3181" ry="53.3494"/>
<text text-anchor="middle" x="274.2594" y="-288.5233" font-family="Times,serif" font-size="14.00" fill="#000000">GlobalVersion</text>
<text text-anchor="middle" x="274.2594" y="-271.7233" font-family="Times,serif" font-size="14.00" fill="#000000">306.797192ms</text>
<text text-anchor="middle" x="274.2594" y="-254.9233" font-family="Times,serif" font-size="14.00" fill="#000000">own: 300.169509ms</text>
<text text-anchor="middle" x="274.2594" y="-238.1233" font-family="Times,serif" font-size="14.00" fill="#000000">phony</text>
</g>
<!-- FrameworkLdflags&#45;&gt;GlobalVersion -->
<g id="edge7" class="edge">
<title>FrameworkLdflags&#45;&gt;GlobalVersion</title>
<path fill="none" stroke="#000000" d="M243.2362,-368.7129C246.7764,-357.1657 250.9867,-343.4327 255.1458,-329.8668"/>
<polygon fill="#000000" stroke="#000000" points="258.5699,-330.6386 258.1549,-320.0519 251.8774,-328.5868 258.5699,-330.6386"/>
</g>
<!-- GitRevParse -->
<g id="node5" class="node">
<title>GitRevParse</title>
<ellipse fill="none" stroke="#000000" cx="137.2594" cy="-125.1744" rx="82.0196" ry="53.3494"/>
<text text-anchor="middle" x="137.2594" y="-146.1744" font-family="Times,serif" font-size="14.00" fill="#000000">GitRevParse</text>
<text text-anchor="middle" x="137.2594" y="-129.3744" font-family="Times,serif" font-size="14.00" fill="#000000">5.215196ms</text>
<text text-anchor="middle" x="137.2594" y="-112.5744" font-family="Times,serif" font-size="14.00" fill="#000000">own: 2.357281ms</text>
<text text-anchor="middle" x="137.2594" y="-95.7744" font-family="Times,serif" font-size="14.00" fill="#000000">phony</text>
</g>
<!-- FrameworkRef&#45;&gt;GitRevParse -->
<g id="edge22" class="edge">
<title>FrameworkRef&#45;&gt;GitRevParse</title>
<path fill="none" stroke="#000000" d="M102.2713,-215.7294C105.911,-206.3093 109.7401,-196.399 113.476,-186.7299"/>
<polygon fill="#000000" stroke="#000000" points="116.8309,-187.7577 117.1703,-177.1683 110.3014,-185.2348 116.8309,-187.7577"/>
</g>
<!-- git -->
<g id="node16" class="node">
<title>git</title>
<ellipse fill="none" stroke="#000000" cx="82.2594" cy="-18" rx="27" ry="18"/>
<text text-anchor="middle" x="82.2594" y="-13.8" font-family="Times,serif" font-size="14.00" fill="#000000">git</text>
</g>
<!-- FrameworkRef&#45;&gt;git -->
<g id="edge21" class="edge">
<title>FrameworkRef&#45;&gt;git</title>
<path fill="none" stroke="#000000" d="M57.8504,-216.6807C53.0545,-204.4046 48.7425,-191.1325 46.2594,-178.3489 37.2471,-131.9499 32.5624,-117.2381 46.2594,-72 49.5255,-61.2127 55.7358,-50.6108 62.0907,-41.6963"/>
<polygon fill="#000000" stroke="#000000" points="64.8879,-43.8001 68.1365,-33.7156 59.3081,-39.5732 64.8879,-43.8001"/>
</g>
<!-- FrontGen -->
<g id="node4" class="node">
<title>FrontGen</title>
<ellipse fill="none" stroke="#000000" cx="514.2594" cy="-753.763" rx="62.373" ry="41.0911"/>
<text text-anchor="middle" x="514.2594" y="-766.363" font-family="Times,serif" font-size="14.00" fill="#000000">FrontGen</text>
<text text-anchor="middle" x="514.2594" y="-749.563" font-family="Times,serif" font-size="14.00" fill="#000000">9.87549494s</text>
<text text-anchor="middle" x="514.2594" y="-732.763" font-family="Times,serif" font-size="14.00" fill="#000000">own: 571ns</text>
</g>
<!-- PbjsRoot -->
<g id="node12" class="node">
<title>PbjsRoot</title>
<ellipse fill="none" stroke="#000000" cx="631.2594" cy="-516.5828" rx="92.3181" ry="41.0911"/>
<text text-anchor="middle" x="631.2594" y="-529.1828" font-family="Times,serif" font-size="14.00" fill="#000000">PbjsRoot</text>
<text text-anchor="middle" x="631.2594" y="-512.3828" font-family="Times,serif" font-size="14.00" fill="#000000">1.336530128s</text>
<text text-anchor="middle" x="631.2594" y="-495.5828" font-family="Times,serif" font-size="14.00" fill="#000000">own: 270.272546ms</text>
</g>
<!-- FrontGen&#45;&gt;PbjsRoot -->
<g id="edge25" class="edge">
<title>FrontGen&#45;&gt;PbjsRoot</title>
<path fill="none" stroke="#000000" d="M510.7744,-712.3614C509.8072,-678.4163 512.9041,-630.2151 533.2594,-593.8779 541.4155,-579.3181 553.5338,-566.523 566.4921,-555.7486"/>
<polygon fill="#000000" stroke="#000000" points="568.969,-558.2521 574.6412,-549.3035 564.6266,-552.7617 568.969,-558.2521"/>
</g>
<!-- PbtsRoot -->
<g id="node13" class="node">
<title>PbtsRoot</title>
<ellipse fill="none" stroke="#000000" cx="431.2594" cy="-516.5828" rx="89.3158" ry="41.0911"/>
<text text-anchor="middle" x="431.2594" y="-529.1828" font-family="Times,serif" font-size="14.00" fill="#000000">PbtsRoot</text>
<text text-anchor="middle" x="431.2594" y="-512.3828" font-family="Times,serif" font-size="14.00" fill="#000000">9.871658768s</text>
<text text-anchor="middle" x="431.2594" y="-495.5828" font-family="Times,serif" font-size="14.00" fill="#000000">own: 8.805241474s</text>
</g>
<!-- FrontGen&#45;&gt;PbtsRoot -->
<g id="edge26" class="edge">
<title>FrontGen&#45;&gt;PbtsRoot</title>
<path fill="none" stroke="#000000" d="M500.1796,-713.5286C486.0331,-673.1036 464.1923,-610.6916 448.899,-566.9894"/>
<polygon fill="#000000" stroke="#000000" points="452.1542,-565.6951 445.5476,-557.4125 445.5471,-568.0073 452.1542,-565.6951"/>
</g>
<!-- StoreTypes -->
<g id="node14" class="node">
<title>StoreTypes</title>
<ellipse fill="none" stroke="#000000" cx="828.2594" cy="-635.1729" rx="89.3158" ry="41.0911"/>
<text text-anchor="middle" x="828.2594" y="-647.7729" font-family="Times,serif" font-size="14.00" fill="#000000">StoreTypes</text>
<text text-anchor="middle" x="828.2594" y="-630.9729" font-family="Times,serif" font-size="14.00" fill="#000000">4.532314811s</text>
<text text-anchor="middle" x="828.2594" y="-614.1729" font-family="Times,serif" font-size="14.00" fill="#000000">own: 3.193784025s</text>
</g>
<!-- FrontGen&#45;&gt;StoreTypes -->
<g id="edge23" class="edge">
<title>FrontGen&#45;&gt;StoreTypes</title>
<path fill="none" stroke="#000000" d="M569.7775,-734.6614C613.3592,-719.4604 675.4552,-697.346 729.2594,-676.4679 736.9962,-673.4658 745.0392,-670.2576 753.0475,-667.0059"/>
<polygon fill="#000000" stroke="#000000" points="754.4795,-670.2017 762.4121,-663.1786 751.8312,-663.722 754.4795,-670.2017"/>
</g>
<!-- WelshClientsTypes -->
<g id="node15" class="node">
<title>WelshClientsTypes</title>
<ellipse fill="none" stroke="#000000" cx="631.2594" cy="-635.1729" rx="89.3158" ry="41.0911"/>
<text text-anchor="middle" x="631.2594" y="-647.7729" font-family="Times,serif" font-size="14.00" fill="#000000">WelshClientsTypes</text>
<text text-anchor="middle" x="631.2594" y="-630.9729" font-family="Times,serif" font-size="14.00" fill="#000000">4.104612589s</text>
<text text-anchor="middle" x="631.2594" y="-614.1729" font-family="Times,serif" font-size="14.00" fill="#000000">own: 2.766055724s</text>
</g>
<!-- FrontGen&#45;&gt;WelshClientsTypes -->
<g id="edge24" class="edge">
<title>FrontGen&#45;&gt;WelshClientsTypes</title>
<path fill="none" stroke="#000000" d="M548.4152,-719.143C560.3685,-707.0272 573.9723,-693.2386 586.6519,-680.3867"/>
<polygon fill="#000000" stroke="#000000" points="589.4595,-682.5244 593.9912,-672.9477 584.4764,-677.6082 589.4595,-682.5244"/>
</g>
<!-- GitRevParse&#45;&gt;git -->
<g id="edge1" class="edge">
<title>GitRevParse&#45;&gt;git</title>
<path fill="none" stroke="#000000" d="M111.209,-74.4119C105.8512,-63.9715 100.4198,-53.3878 95.7313,-44.2517"/>
<polygon fill="#000000" stroke="#000000" points="98.8283,-42.6206 91.1487,-35.3218 92.6005,-45.8167 98.8283,-42.6206"/>
</g>
<!-- GoMods -->
<g id="node7" class="node">
<title>GoMods</title>
<ellipse fill="none" stroke="#000000" cx="394.2594" cy="-125.1744" rx="51.9894" ry="29.3315"/>
<text text-anchor="middle" x="394.2594" y="-129.3744" font-family="Times,serif" font-size="14.00" fill="#000000">GoMods</text>
<text text-anchor="middle" x="394.2594" y="-112.5744" font-family="Times,serif" font-size="14.00" fill="#000000">up&#45;to&#45;date</text>
</g>
<!-- GlobalVersion&#45;&gt;GoMods -->
<g id="edge27" class="edge">
<title>GlobalVersion&#45;&gt;GoMods</title>
<path fill="none" stroke="#000000" d="M314.886,-219.3305C331.3957,-199.7459 350.0978,-177.5607 365.1997,-159.6462"/>
<polygon fill="#000000" stroke="#000000" points="368.0949,-161.6421 371.8643,-151.7405 362.7429,-157.1304 368.0949,-161.6421"/>
</g>
<!-- go -->
<g id="node17" class="node">
<title>go</title>
<ellipse fill="none" stroke="#000000" cx="394.2594" cy="-18" rx="27" ry="18"/>
<text text-anchor="middle" x="394.2594" y="-13.8" font-family="Times,serif" font-size="14.00" fill="#000000">go</text>
</g>
<!-- GoMods&#45;&gt;go -->
<g id="edge2" class="edge">
<title>GoMods&#45;&gt;go</title>
<path fill="none" stroke="#000000" d="M394.2594,-95.6048C394.2594,-80.2487 394.2594,-61.5748 394.2594,-46.3935"/>
<polygon fill="#000000" stroke="#000000" points="397.7595,-46.0538 394.2594,-36.0538 390.7595,-46.0538 397.7595,-46.0538"/>
</g>
<!-- Gomobile&#45;&gt;GoMods -->
<g id="edge9" class="edge">
<title>Gomobile&#45;&gt;GoMods</title>
<path fill="none" stroke="#000000" d="M392.4754,-368.5372C392.836,-319.3498 393.561,-220.4415 393.967,-165.061"/>
<polygon fill="#000000" stroke="#000000" points="397.4679,-164.9461 394.0414,-154.9207 390.4681,-164.8947 397.4679,-164.9461"/>
</g>
<!-- NodeModules -->
<g id="node9" class="node">
<title>NodeModules</title>
<ellipse fill="none" stroke="#000000" cx="727.2594" cy="-267.5233" rx="92.3181" ry="41.0911"/>
<text text-anchor="middle" x="727.2594" y="-280.1233" font-family="Times,serif" font-size="14.00" fill="#000000">NodeModules</text>
<text text-anchor="middle" x="727.2594" y="-263.3233" font-family="Times,serif" font-size="14.00" fill="#000000">921.294302ms</text>
<text text-anchor="middle" x="727.2594" y="-246.5233" font-family="Times,serif" font-size="14.00" fill="#000000">own: 792.583655ms</text>
</g>
<!-- yarn -->
<g id="node19" class="node">
<title>yarn</title>
<ellipse fill="none" stroke="#000000" cx="765.2594" cy="-125.1744" rx="28.3913" ry="18"/>
<text text-anchor="middle" x="765.2594" y="-120.9744" font-family="Times,serif" font-size="14.00" fill="#000000">yarn</text>
</g>
<!-- NodeModules&#45;&gt;yarn -->
<g id="edge10" class="edge">
<title>NodeModules&#45;&gt;yarn</title>
<path fill="none" stroke="#000000" d="M738.2506,-226.3501C744.5511,-202.7482 752.2898,-173.7589 757.8661,-152.8698"/>
<polygon fill="#000000" stroke="#000000" points="761.2923,-153.6053 760.49,-143.0409 754.5291,-151.7998 761.2923,-153.6053"/>
</g>
<!-- node -->
<g id="node20" class="node">
<title>node</title>
<ellipse fill="none" stroke="#000000" cx="689.2594" cy="-125.1744" rx="29.6185" ry="18"/>
<text text-anchor="middle" x="689.2594" y="-120.9744" font-family="Times,serif" font-size="14.00" fill="#000000">node</text>
</g>
<!-- NodeModules&#45;&gt;node -->
<g id="edge11" class="edge">
<title>NodeModules&#45;&gt;node</title>
<path fill="none" stroke="#000000" d="M716.2683,-226.3501C709.9677,-202.7482 702.229,-173.7589 696.6527,-152.8698"/>
<polygon fill="#000000" stroke="#000000" points="699.9897,-151.7998 694.0289,-143.0409 693.2265,-153.6053 699.9897,-151.7998"/>
</g>
<!-- PbjsFlags -->
<g id="node10" class="node">
<title>PbjsFlags</title>
<ellipse fill="none" stroke="#000000" cx="521.2594" cy="-267.5233" rx="92.3181" ry="41.0911"/>
<text text-anchor="middle" x="521.2594" y="-280.1233" font-family="Times,serif" font-size="14.00" fill="#000000">PbjsFlags</text>
<text text-anchor="middle" x="521.2594" y="-263.3233" font-family="Times,serif" font-size="14.00" fill="#000000">434.346107ms</text>
<text text-anchor="middle" x="521.2594" y="-246.5233" font-family="Times,serif" font-size="14.00" fill="#000000">own: 427.605451ms</text>
</g>
<!-- PbjsFlags&#45;&gt;GoMods -->
<g id="edge28" class="edge">
<title>PbjsFlags&#45;&gt;GoMods</title>
<path fill="none" stroke="#000000" d="M486.8914,-229.0016C467.4801,-207.2444 443.4319,-180.2898 424.7033,-159.2977"/>
<polygon fill="#000000" stroke="#000000" points="427.0756,-156.6993 417.8066,-151.5675 421.8523,-161.3595 427.0756,-156.6993"/>
</g>
<!-- PbjsInit -->
<g id="node11" class="node">
<title>PbjsInit</title>
<ellipse fill="none" stroke="#000000" cx="631.2594" cy="-397.9928" rx="87.4189" ry="41.0911"/>
<text text-anchor="middle" x="631.2594" y="-410.5928" font-family="Times,serif" font-size="14.00" fill="#000000">PbjsInit</text>
<text text-anchor="middle" x="631.2594" y="-393.7928" font-family="Times,serif" font-size="14.00" fill="#000000">1.065851185s</text>
<text text-anchor="middle" x="631.2594" y="-376.9928" font-family="Times,serif" font-size="14.00" fill="#000000">own: 142.74364ms</text>
</g>
<!-- PbjsInit&#45;&gt;NodeModules -->
<g id="edge12" class="edge">
<title>PbjsInit&#45;&gt;NodeModules</title>
<path fill="none" stroke="#000000" d="M660.0626,-358.8476C670.1273,-345.1691 681.5401,-329.6584 692.0664,-315.3526"/>
<polygon fill="#000000" stroke="#000000" points="695.0373,-317.2206 698.1448,-307.0917 689.3991,-313.072 695.0373,-317.2206"/>
</g>
<!-- PbjsInit&#45;&gt;PbjsFlags -->
<g id="edge14" class="edge">
<title>PbjsInit&#45;&gt;PbjsFlags</title>
<path fill="none" stroke="#000000" d="M598.8508,-359.5533C586.9801,-345.4736 573.4101,-329.3784 560.9729,-314.6268"/>
<polygon fill="#000000" stroke="#000000" points="563.3196,-311.9804 554.1978,-306.5911 557.9679,-316.4925 563.3196,-311.9804"/>
</g>
<!-- npx -->
<g id="node18" class="node">
<title>npx</title>
<ellipse fill="none" stroke="#000000" cx="864.2594" cy="-267.5233" rx="27" ry="18"/>
<text text-anchor="middle" x="864.2594" y="-263.3233" font-family="Times,serif" font-size="14.00" fill="#000000">npx</text>
</g>
<!-- PbjsInit&#45;&gt;npx -->
<g id="edge13" class="edge">
<title>PbjsInit&#45;&gt;npx</title>
<path fill="none" stroke="#000000" d="M709.3527,-379.1976C748.0173,-367.1015 793.6904,-348.3553 828.2594,-320.6977 837.3631,-313.4142 845.0366,-303.2077 850.9291,-293.6819"/>
<polygon fill="#000000" stroke="#000000" points="854.0457,-295.284 856.0215,-284.875 847.9858,-291.7799 854.0457,-295.284"/>
</g>
<!-- PbjsRoot&#45;&gt;PbjsInit -->
<g id="edge15" class="edge">
<title>PbjsRoot&#45;&gt;PbjsInit</title>
<path fill="none" stroke="#000000" d="M631.2594,-475.1058C631.2594,-466.9383 631.2594,-458.2735 631.2594,-449.8149"/>
<polygon fill="#000000" stroke="#000000" points="634.7595,-449.6468 631.2594,-439.6468 627.7595,-449.6469 634.7595,-449.6468"/>
</g>
<!-- PbtsRoot&#45;&gt;PbjsInit -->
<g id="edge6" class="edge">
<title>PbtsRoot&#45;&gt;PbjsInit</title>
<path fill="none" stroke="#000000" d="M486.4397,-483.8636C511.6825,-468.8959 541.7294,-451.0796 567.8937,-435.5655"/>
<polygon fill="#000000" stroke="#000000" points="569.789,-438.5108 576.6055,-430.3999 566.2188,-432.4896 569.789,-438.5108"/>
</g>
<!-- StoreTypes&#45;&gt;NodeModules -->
<g id="edge3" class="edge">
<title>StoreTypes&#45;&gt;NodeModules</title>
<path fill="none" stroke="#000000" d="M821.9527,-593.8817C812.9356,-538.8794 794.3937,-438.9498 767.2594,-356.6977 762.9811,-343.7287 757.4392,-330.1002 751.8511,-317.5088"/>
<polygon fill="#000000" stroke="#000000" points="754.9067,-315.7721 747.5891,-308.1103 748.5316,-318.6631 754.9067,-315.7721"/>
</g>
<!-- StoreTypes&#45;&gt;PbjsRoot -->
<g id="edge4" class="edge">
<title>StoreTypes&#45;&gt;PbjsRoot</title>
<path fill="none" stroke="#000000" d="M773.6456,-602.2964C749.3011,-587.6416 720.4609,-570.2804 695.1243,-555.0282"/>
<polygon fill="#000000" stroke="#000000" points="696.6942,-551.888 686.3216,-549.7292 693.084,-557.8853 696.6942,-551.888"/>
</g>
<!-- StoreTypes&#45;&gt;npx -->
<g id="edge5" class="edge">
<title>StoreTypes&#45;&gt;npx</title>
<path fill="none" stroke="#000000" d="M835.8791,-593.9531C837.8428,-582.318 839.8088,-569.6274 841.2594,-557.8779 853.0886,-462.0634 860.0662,-347.6701 862.8494,-295.7004"/>
<polygon fill="#000000" stroke="#000000" points="866.3511,-295.7569 863.3798,-285.5872 859.3607,-295.3901 866.3511,-295.7569"/>
</g>
<!-- WelshClientsTypes&#45;&gt;NodeModules -->
<g id="edge16" class="edge">
<title>WelshClientsTypes&#45;&gt;NodeModules</title>
<path fill="none" stroke="#000000" d="M690.099,-604.0363C706.8375,-592.015 723.0187,-576.5861 732.2594,-557.8779 770.0399,-481.39 755.6916,-379.1616 741.6206,-318.6379"/>
<polygon fill="#000000" stroke="#000000" points="744.9385,-317.4662 739.1915,-308.5655 738.1336,-319.1074 744.9385,-317.4662"/>
</g>
<!-- WelshClientsTypes&#45;&gt;PbjsRoot -->
<g id="edge17" class="edge">
<title>WelshClientsTypes&#45;&gt;PbjsRoot</title>
<path fill="none" stroke="#000000" d="M631.2594,-593.6958C631.2594,-585.5283 631.2594,-576.8636 631.2594,-568.405"/>
<polygon fill="#000000" stroke="#000000" points="634.7595,-568.2369 631.2594,-558.2369 627.7595,-568.2369 634.7595,-568.2369"/>
</g>
<!-- WelshClientsTypes&#45;&gt;npx -->
<g id="edge18" class="edge">
<title>WelshClientsTypes&#45;&gt;npx</title>
<path fill="none" stroke="#000000" d="M696.3688,-606.6441C718.4688,-594.3153 741.7247,-578.0326 758.2594,-557.8779 824.4704,-477.1709 851.2631,-351.4612 860.3123,-295.7453"/>
<polygon fill="#000000" stroke="#000000" points="863.8164,-295.988 861.8919,-285.5695 856.8993,-294.9142 863.8164,-295.988"/>
</g>
<g id="node21" class="node">
<title></title>
<ellipse fill="none" stroke="#000000" cx="396.2594" cy="-849.058" rx="27" ry="18"/>
</g>
<!-- &#45;&gt;AndroidFramework -->
<g id="edge29" class="edge">
<title>&#45;&gt;AndroidFramework</title>
<path fill="none" stroke="#000000" d="M387.7777,-831.6508C362.6374,-780.055 288.0907,-627.0616 252.9656,-554.9737"/>
<polygon fill="#000000" stroke="#000000" points="256.0075,-553.2262 248.4809,-545.7697 249.7148,-556.2924 256.0075,-553.2262"/>
</g>
<!-- &#45;&gt;FrontGen -->
<g id="edge30" class="edge">
<title>&#45;&gt;FrontGen</title>
<path fill="none" stroke="#000000" d="M413.6707,-834.9969C427.5823,-823.7621 447.7705,-807.4585 466.4158,-792.4008"/>
<polygon fill="#000000" stroke="#000000" points="468.7086,-795.048 474.2894,-786.0421 464.3106,-789.6021 468.7086,-795.048"/>
</g>
</g>
</svg>
