<svg width="16" height="16" viewBox="0 0 16 16" fill="none" xmlns="http://www.w3.org/2000/svg">
<path d="M1.93191 8.21915C1.93191 8.22711 1.92793 8.23109 1.91997 8.23109C1.91997 8.23109 1.91997 8.23507 1.91997 8.24303C1.91997 8.25099 1.92395 8.25497 1.93191 8.25497H4.21258C4.27627 8.25497 4.30811 8.21915 4.30811 8.14751V4.83993C4.30811 4.83197 4.30413 4.82799 4.29617 4.82799H4.28423L1.93191 8.21915ZM1.02441 9.56845C0.849284 9.56845 0.694055 9.50477 0.558727 9.3774C0.43136 9.25003 0.367676 9.0948 0.367676 8.91171C0.367676 8.46593 0.495043 8.0679 0.749778 7.71764L3.926 3.19212C4.18074 2.82594 4.53498 2.64284 4.98873 2.64284H5.25142C5.43451 2.64284 5.59372 2.71051 5.72905 2.84584C5.86438 2.98116 5.93204 3.14037 5.93204 3.32346V8.14751C5.93204 8.21915 5.96389 8.25497 6.02757 8.25497H6.60072C6.78381 8.25497 6.93904 8.31866 7.06641 8.44603C7.19378 8.57339 7.25746 8.72862 7.25746 8.91171C7.25746 9.0948 7.19378 9.25003 7.06641 9.3774C6.93904 9.50477 6.78381 9.56845 6.60072 9.56845H6.02757C5.96389 9.56845 5.93204 9.60427 5.93204 9.67592V10.6789C5.93204 10.862 5.86438 11.0212 5.72905 11.1566C5.59372 11.2919 5.43451 11.3596 5.25142 11.3596H4.98873C4.80564 11.3596 4.64643 11.2919 4.5111 11.1566C4.37577 11.0212 4.30811 10.862 4.30811 10.6789V9.67592C4.30811 9.60427 4.27627 9.56845 4.21258 9.56845H1.02441Z" fill="currentColor"/>
<path d="M11.9579 11.479C10.6763 11.479 9.63742 11.0809 8.84138 10.2849C8.05329 9.48089 7.65925 8.38632 7.65925 7.0012C7.65925 5.60016 8.05329 4.50559 8.84138 3.71751C9.62946 2.92146 10.72 2.52344 12.1131 2.52344C12.6863 2.52344 13.2077 2.56324 13.6774 2.64284C13.8684 2.67469 14.0276 2.77021 14.155 2.92942C14.2824 3.08067 14.346 3.2558 14.346 3.45481V3.50257C14.346 3.66974 14.2784 3.80507 14.143 3.90856C14.0077 4.01205 13.8565 4.04389 13.6893 4.00408C13.2196 3.9006 12.7539 3.84886 12.2922 3.84886C11.329 3.84886 10.5967 4.11553 10.0952 4.64888C9.6016 5.17427 9.35483 5.95838 9.35483 7.0012C9.35483 8.01218 9.59762 8.79231 10.0832 9.34158C10.5768 9.88289 11.2415 10.1535 12.0773 10.1535C12.4196 10.1535 12.7579 10.1058 13.0923 10.0103C13.156 9.99434 13.1878 9.95055 13.1878 9.87891V7.51465C13.1878 7.44301 13.156 7.40718 13.0923 7.40718H11.5997C11.4245 7.40718 11.2733 7.34748 11.1459 7.22807C11.0265 7.10071 10.9668 6.94946 10.9668 6.77433C10.9668 6.59124 11.0265 6.43999 11.1459 6.32058C11.2733 6.19321 11.4245 6.12953 11.5997 6.12953H14.1072C14.2903 6.12953 14.4495 6.19719 14.5849 6.33252C14.7202 6.46785 14.7878 6.62706 14.7878 6.81015V10.2849C14.7878 10.4919 14.7281 10.6789 14.6087 10.8461C14.4893 11.0133 14.3341 11.1247 14.143 11.1804C13.4664 11.3795 12.738 11.479 11.9579 11.479Z" fill="currentColor"/>
</svg>
