<svg xmlns="http://www.w3.org/2000/svg" xmlns:xlink="http://www.w3.org/1999/xlink" width="24" height="18" version="1.1" viewBox="0 0 24 18"><title>Group</title><desc>Created with Sketch.</desc><g id="Symbols" fill="none" fill-rule="evenodd" stroke="none" stroke-linejoin="round" stroke-width="1" opacity=".8"><g id="button/circle/conversation" stroke="#3F49EA" stroke-width="1.8" transform="translate(-7.000000, -10.000000)"><g id="button/circle/search" transform="translate(-2.000000, -2.000000)"><g id="button"><g id="conversation" transform="translate(10.000000, 13.000000)"><g id="Group"><path id="Shape" d="M22,9.13889975 C22.0024648,10.0921361 21.7797518,11.0324801 21.3499805,11.8833398 C20.3106748,13.9628511 18.1858631,15.2768793 15.8611003,15.2777789 C14.9078639,15.2802643 13.9675199,15.0575513 13.1166602,14.6277799 L9,16 L10.3722201,11.8833398 C9.94244875,11.0324801 9.7197357,10.0921361 9.72222108,9.13889975 C9.72312068,6.81413689 11.0371489,4.6893252 13.1166602,3.65001955 C13.9675199,3.22024827 14.9078639,2.99753523 15.8611003,3 L16.2222108,3 C19.3391793,3.17198119 21.8280188,5.66082067 22,8.77778921 L22,9.13889975 Z" transform="translate(15.500000, 9.500000) scale(-1, 1) translate(-15.500000, -9.500000)"/><path id="Shape" stroke-linecap="square" d="M8.41279803,12.037866 C7.81928595,12.2331084 7.41159516,12.2775285 6.76762884,12.2777812 C5.8273788,12.2802665 4.89984551,12.0575542 4.06057731,11.6277842 L0,13 L1.35352577,8.88335256 C0.929609434,8.03249541 0.709930498,7.09215435 0.712381984,6.13892094 C0.713269298,3.81416526 2.00939607,1.68936012 4.06057731,0.650057684 C4.89984551,0.220287737 5.8273788,-0.00242461731 6.76762884,0 L7.12381984,0 C9.28825949,0.12111996 11.0308842,1.26848378 12,3.09685894"/></g></g></g></g></g></g></svg>