<?xml version="1.0" encoding="UTF-8"?>
<svg width="35px" height="36px" viewBox="0 0 36 36" version="1.1" xmlns="http://www.w3.org/2000/svg" xmlns:xlink="http://www.w3.org/1999/xlink">
    <!-- Generator: Sketch 64 (93537) - https://sketch.com -->
    <title>icon / id</title>
    <desc>Created with Sketch.</desc>
    <defs>
        <path d="M21.8114286,19.7432598 L21.8114286,19.8033088 C21.8114286,20.5213235 21.34,21 20.6328571,21 C19.9257143,21 19.4542857,20.5213235 19.4542857,19.8033088 L19.4542857,19.7432598 C19.4542857,17.7088848 17.9221429,16.9309641 15.9185714,16.9309641 L6.49,16.9309641 C4.48642857,16.9309641 2.95428571,17.7088848 2.95428571,19.7432598 L2.95428571,19.8033088 C2.95428571,20.5213235 2.48285714,21 1.77571429,21 C1.06857143,21 0.597142857,20.5213235 0.597142857,19.8033088 L0.597142857,19.7432598 C0.597142857,16.3925245 3.19,14.5375817 6.49,14.5375817 L15.9185714,14.5375817 C19.2185714,14.5375817 21.8114286,16.3925245 21.8114286,19.7432598 Z M5.31142857,5.98345588 C5.31142857,2.63272059 7.90428571,0 11.2042857,0 C14.5042857,0 17.0971429,2.63272059 17.0971429,5.98345588 C17.0971429,9.33419118 14.5042857,11.9669118 11.2042857,11.9669118 C7.90428571,11.9669118 5.31142857,9.33419118 5.31142857,5.98345588 Z M7.66857143,5.98345588 C7.66857143,8.01783088 9.20071429,9.57352941 11.2042857,9.57352941 C13.2078571,9.57352941 14.74,8.01783088 14.74,5.98345588 C14.74,3.94908088 13.2078571,2.39338235 11.2042857,2.39338235 C9.20071429,2.39338235 7.66857143,3.94908088 7.66857143,5.98345588 Z" id="path-1"></path>
    </defs>
    <g id="Symbols" stroke="none" stroke-width="1" fill="none" fill-rule="evenodd">
        <g id="modal/berty_id/blue" transform="translate(-313.000000, -24.000000)">
            <g id="icon-/-id" transform="translate(314.000000, 25.000000)">
                <g id="icon-/-user" transform="translate(6.000000, 5.000000)">
                    <mask id="mask-2" fill="white">
                        <use xlink:href="#path-1"></use>
                    </mask>
                    <use id="Mask" fill="#FFFFFF" fill-rule="nonzero" xlink:href="#path-1"></use>
                </g>
                <ellipse id="Oval-Copy" stroke="#FFFFFF" stroke-width="2" cx="17" cy="17" rx="17" ry="17"></ellipse>
            </g>
        </g>
    </g>
</svg>
