<svg xmlns="http://www.w3.org/2000/svg" viewBox="0 0 24 24"><path d="M 0 0 L 0 9 L 9 9 L 9 0 Z M 11 0 L 11 2 L 13 2 L 13 0 Z M 15 0 L 15 9 L 24 9 L 24 0 Z M 2 2 L 7 2 L 7 7 L 2 7 Z M 17 2 L 22 2 L 22 7 L 17 7 Z M 3 3 L 3 6 L 6 6 L 6 3 Z M 18 3 L 18 6 L 21 6 L 21 3 Z M 11 4 L 11 8 L 13 8 L 13 4 Z M 0 10 L 0 12 L 2 12 L 2 10 Z M 2 12 L 2 14 L 6 14 L 6 12 L 8 12 L 8 14 L 16 14 L 16 12 L 18 12 L 18 10 L 13 10 L 13 12 L 12 12 L 12 10 L 4 10 L 4 12 Z M 18 12 L 18 14 L 24 14 L 24 12 L 22 12 L 22 10 L 20 10 L 20 12 Z M 0 15 L 0 24 L 9 24 L 9 15 Z M 13 16 L 13 18 L 11 18 L 11 22 L 13 22 L 13 20 L 15 20 L 15 18 L 17 18 L 17 16 Z M 17 18 L 17 20 L 15 20 L 15 24 L 17 24 L 17 22 L 19 22 L 19 20 L 20 20 L 20 22 L 19 22 L 19 24 L 21 24 L 21 22 L 22 22 L 22 20 L 24 20 L 24 16 L 19 16 L 19 18 Z M 22 22 L 22 24 L 24 24 L 24 22 Z M 2 17 L 7 17 L 7 22 L 2 22 Z M 3 18 L 3 21 L 6 21 L 6 18 Z"/></svg>