<svg xmlns="http://www.w3.org/2000/svg" xmlns:xlink="http://www.w3.org/1999/xlink" width="33" height="34" version="1.1" viewBox="0 0 33 34"><title>qrcode-light (1)</title><desc>Created with Sketch.</desc><g id="Symbols" fill="none" fill-rule="evenodd" stroke="none" stroke-width="1" transform="scale(0.9, 0.9)"><g id="modal/scan/pink" fill="currentColor" fill-rule="nonzero" transform="translate(-362.000000, -24.000000)"><g id="modal-scan"><g id="qrcode-light-(1)" transform="translate(362.000000, 24.000000)"><path id="Shape" d="M0,14.5714286 L14.1428571,14.5714286 L14.1428571,0 L0,0 L0,14.5714286 Z M2.35714286,2.42857143 L11.7857143,2.42857143 L11.7857143,12.1428571 L2.35714286,12.1428571 L2.35714286,2.42857143 Z M18.8571429,0 L18.8571429,14.5714286 L33,14.5714286 L33,0 L18.8571429,0 Z M30.6428571,12.1428571 L21.2142857,12.1428571 L21.2142857,2.42857143 L30.6428571,2.42857143 L30.6428571,12.1428571 Z M0,34 L14.1428571,34 L14.1428571,19.4285714 L0,19.4285714 L0,34 Z M2.35714286,21.8571429 L11.7857143,21.8571429 L11.7857143,31.5714286 L2.35714286,31.5714286 L2.35714286,21.8571429 Z M4.71428571,4.85714286 L9.42857143,4.85714286 L9.42857143,9.71428571 L4.71428571,9.71428571 L4.71428571,4.85714286 Z M28.2857143,9.71428571 L23.5714286,9.71428571 L23.5714286,4.85714286 L28.2857143,4.85714286 L28.2857143,9.71428571 Z M4.71428571,24.2857143 L9.42857143,24.2857143 L9.42857143,29.1428571 L4.71428571,29.1428571 L4.71428571,24.2857143 Z M30.6428571,19.4285714 L33,19.4285714 L33,29.1428571 L23.5714286,29.1428571 L23.5714286,26.7142857 L21.2142857,26.7142857 L21.2142857,34 L18.8571429,34 L18.8571429,19.4285714 L25.9285714,19.4285714 L25.9285714,21.8571429 L30.6428571,21.8571429 L30.6428571,19.4285714 Z M30.6428571,31.5714286 L33,31.5714286 L33,34 L30.6428571,34 L30.6428571,31.5714286 Z M25.9285714,31.5714286 L28.2857143,31.5714286 L28.2857143,34 L25.9285714,34 L25.9285714,31.5714286 Z"/></g></g></g></g></svg>