<?xml version="1.0" encoding="UTF-8"?>
<svg width="866px" height="866px" viewBox="0 0 866 866" version="1.1" xmlns="http://www.w3.org/2000/svg" xmlns:xlink="http://www.w3.org/1999/xlink">
    <!-- Generator: Sketch 54.1 (76490) - https://sketchapp.com -->
    <title>Group@1x</title>
    <desc>Created with Sketch.</desc>
    <defs>
        <linearGradient x1="50%" y1="0%" x2="50%" y2="100%" id="linearGradient-1">
            <stop stop-color="#4E53FF" offset="0%"></stop>
            <stop stop-color="#3442D9" offset="100%"></stop>
        </linearGradient>
    </defs>
    <g id="Page-1" stroke="none" stroke-width="1" fill="none" fill-rule="evenodd">
        <g id="Group@1x" fill-rule="nonzero">
            <path d="M100.763012,114.601998 L44.3517198,84.2005409 C-42.3751169,239.924238 14.1373768,436.400041 170.126545,522.979281 L200.161975,464.518277 C76.1683983,392.008967 32.9590012,239.628683 100.763012,114.601998 Z" id="Shape" fill="#FFBF47"></path>
            <path d="M412.026936,191.052784 L350.454402,54.7100786 C291.454159,81.2812284 252.247022,133.666669 240.143714,192.458379 L338.648938,246.817059 C361.014335,225.219553 385.708333,206.56839 412.026936,191.052784 Z" id="Shape" fill="#3442D9"></path>
            <path d="M240.143714,192.458379 C252.274099,133.666669 291.454159,81.2812284 350.454402,54.7100786 L325.841634,0.21624537 C254.68393,32.2475908 205.566701,92.9584784 185.854826,162.481365 L240.143714,192.458379 L240.143714,192.458379 Z" id="Shape" fill="#FFBF47"></path>
            <path d="M435.541905,344.019345 C435.541905,341.260223 435.595909,338.501102 435.730921,335.769031 C440.024289,240.335892 520.626196,164.297753 616.889446,164.081351 C616.997455,146.255263 614.999284,134.677773 614.999284,134.27202 C615.350314,134.27202 612.763607,133.480751 613.087634,133.480751 C559.001999,132.966797 508.502157,144.469949 459.06092,165.24451 C442.319485,172.277564 426.064092,180.446728 410.375748,189.724949 C390.664059,201.38359 371.89745,214.773444 354.318944,229.894511 C348.459442,234.92585 342.734951,240.14654 337.145472,245.556582 L238.938055,191.10451 L184.825418,161.132878 L100.767214,114.579467 C31.8573085,238.739929 76.3841245,395.306542 200.162732,464.473928 L78.5173073,697.15983 C129.848706,724.074789 184.339376,738.4655 238.587025,741.630375 C388.881906,750.421693 538.696259,666.241441 613.087634,523.957339 C514.307655,522.280226 435.541905,442.373907 435.541905,344.019345 Z" id="Shape" fill="url(#linearGradient-1)"></path>
            <path d="M482.309913,448.622505 C454.983571,418.542672 437.675087,379.157567 435.730921,335.769031 C435.595909,338.501102 435.541905,341.260223 435.541905,344.019345 C435.541905,442.373907 514.280653,522.307276 612.083034,523.957339 C613.136125,523.984389 614.162212,523.984389 615.215303,523.984389 L615.215303,507.456711 C562.56079,507.483761 515.171729,484.788635 482.309913,448.622505 Z" id="Shape" fill="#FFC14B"></path>
            <path d="M614.783266,164.054301 C518.520016,164.270702 440.051291,240.335892 435.730921,335.769031 C437.675087,379.157567 454.983571,418.542672 482.309913,448.622505 C515.171729,484.788635 562.533788,507.483761 615.215303,507.483761 L615.215303,164.02725 C615.080291,164.02725 614.94528,164.02725 614.783266,164.054301 Z" id="Shape" fill="#FFFFFF"></path>
            <path d="M612.834515,381.875876 C612.798412,476.66504 612.798412,524.059622 612.834515,524.059622 C680.634702,523.97853 737.414651,474.915447 750.92595,411.231185 L612.834515,381.875876 Z" id="Shape" fill="#FFAE3A"></path>
            <path d="M783.228515,198.364649 C742.369696,161.33263 689.218032,137.626731 630.623941,133.95056 C625.04613,133.653223 619.468319,133.464008 613.890508,133.409946 C613.53851,133.409946 613.186513,133.436977 612.861591,133.436977 C612.861591,134.35602 612.861591,381.875876 612.861591,381.875876 L860.288952,434.423501 C863.673546,418.042915 865.487688,401.094684 865.487688,383.713962 C865.433534,310.244598 833.726658,244.154607 783.228515,198.364649 Z" id="Shape" fill="#FFC14B"></path>
            <path d="M0,846.660036 C81.7717912,889.503649 182.849307,858.066979 225.765958,776.434352 C231.885304,764.784132 236.205791,753.870975 239.346694,741.653112 C184.922423,738.490523 129.963417,724.003258 78.5446649,697.134771 L0,846.660036 Z" id="Shape" fill="#F74868"></path>
            <ellipse id="Oval" fill="#383B62" cx="559.459851" cy="334.018004" rx="32.2754884" ry="32.2205601"></ellipse>
        </g>
    </g>
</svg>