<?xml version="1.0" encoding="UTF-8"?>
<svg width="263px" height="263px" viewBox="0 0 263 263" version="1.1" xmlns="http://www.w3.org/2000/svg" xmlns:xlink="http://www.w3.org/1999/xlink">
    <!-- Generator: Sketch 52.2 (67145) - http://www.bohemiancoding.com/sketch -->
    <title>square</title>
    <desc>Created with Sketch.</desc>
    <g id="Page-1" stroke="none" stroke-width="1" fill="none" fill-rule="evenodd">
        <g id="03--rescue-service-1" transform="translate(15.000000, 15.000000)">
            <g id="Background" fill="#FFECF2" fill-rule="nonzero">
                <ellipse id="Oval" cx="116.470967" cy="116" rx="116.13207" ry="116"></ellipse>
            </g>
            <g id="Scene" transform="translate(36.000000, 31.000000)">
                <path d="M80.9666947,9.41683959 C41.3378804,9.41683959 9.21237895,41.4534552 9.21237895,80.9726233 C9.21237895,120.491791 41.3378804,152.528407 80.9666947,152.528407 C120.595509,152.528407 152.721011,120.491791 152.721011,80.9726233 C152.721011,61.9948495 145.161203,43.794356 131.704658,30.3750434 C118.248113,16.9557309 99.9971225,9.41683959 80.9666947,9.41683959 Z M80.9666947,120.211954 C59.2352839,120.211954 41.6184947,102.643907 41.6184947,80.9726233 C41.6184947,59.3013397 59.2352839,41.7332931 80.9666947,41.7332931 C102.698106,41.7332931 120.314895,59.3013397 120.314895,80.9726233 C120.314895,91.3795407 116.169293,101.360218 108.790074,108.71902 C101.410855,116.077822 91.4024862,120.211954 80.9666947,120.211954 Z" id="Shape" fill="#F9D3DA" fill-rule="nonzero"></path>
                <path d="M80.9666947,9.41683959 C41.3378804,9.41683959 9.21237895,41.4534552 9.21237895,80.9726233 C9.21237895,120.491791 41.3378804,152.528407 80.9666947,152.528407 C120.595509,152.528407 152.721011,120.491791 152.721011,80.9726233 C152.721011,61.9948495 145.161203,43.794356 131.704658,30.3750434 C118.248113,16.9557309 99.9971225,9.41683959 80.9666947,9.41683959 Z M80.9666947,120.211954 C59.2352839,120.211954 41.6184947,102.643907 41.6184947,80.9726233 C41.6184947,59.3013397 59.2352839,41.7332931 80.9666947,41.7332931 C102.698106,41.7332931 120.314895,59.3013397 120.314895,80.9726233 C120.314895,91.3795407 116.169293,101.360218 108.790074,108.71902 C101.410855,116.077822 91.4024862,120.211954 80.9666947,120.211954 Z" id="Shape" stroke="#E94E6B" stroke-width="3" stroke-linecap="round" stroke-linejoin="round"></path>
                <path d="M70.3868316,0.166945592 L91.5173895,0.166945592 C92.0696742,0.166945592 92.5173895,0.614660842 92.5173895,1.16694559 L92.5173895,45.3291524 C92.5173895,45.8814372 92.0696742,46.3291524 91.5173895,46.3291524 L70.3868316,46.3291524 C69.8345468,46.3291524 69.3868316,45.8814372 69.3868316,45.3291524 L69.3868316,1.16694559 C69.3868316,0.614660842 69.8345468,0.166945592 70.3868316,0.166945592 Z" id="Rectangle-path" stroke="#E94E6B" stroke-width="3" fill="#FFFFFF" fill-rule="nonzero" stroke-linecap="round" stroke-linejoin="round"></path>
                <path d="M70.3868316,115.587007 L91.5173895,115.587007 C92.0696742,115.587007 92.5173895,116.034722 92.5173895,116.587007 L92.5173895,160.749213 C92.5173895,161.301498 92.0696742,161.749213 91.5173895,161.749213 L70.3868316,161.749213 C69.8345468,161.749213 69.3868316,161.301498 69.3868316,160.749213 L69.3868316,116.587007 C69.3868316,116.034722 69.8345468,115.587007 70.3868316,115.587007 Z" id="Rectangle-path" stroke="#E94E6B" stroke-width="3" fill="#FFFFFF" fill-rule="nonzero" stroke-linecap="round" stroke-linejoin="round"></path>
                <path d="M128.242395,57.8915199 L149.402121,57.8915199 C149.954406,57.8915199 150.402121,58.3392352 150.402121,58.8915199 L150.402121,103.053727 C150.402121,103.606011 149.954406,104.053727 149.402121,104.053727 L128.242395,104.053727 C127.69011,104.053727 127.242395,103.606011 127.242395,103.053727 L127.242395,58.8915199 C127.242395,58.3392352 127.69011,57.8915199 128.242395,57.8915199 Z" id="Rectangle-path" stroke="#E94E6B" stroke-width="3" fill="#FFFFFF" fill-rule="nonzero" stroke-linecap="round" stroke-linejoin="round" transform="translate(138.822258, 80.972623) rotate(90.000000) translate(-138.822258, -80.972623) "></path>
                <path d="M12.5312684,57.8915199 L33.6909947,57.8915199 C34.2432795,57.8915199 34.6909947,58.3392352 34.6909947,58.8915199 L34.6909947,103.053727 C34.6909947,103.606011 34.2432795,104.053727 33.6909947,104.053727 L12.5312684,104.053727 C11.9789837,104.053727 11.5312684,103.606011 11.5312684,103.053727 L11.5312684,58.8915199 C11.5312684,58.3392352 11.9789837,57.8915199 12.5312684,57.8915199 Z" id="Rectangle-path" stroke="#E94E6B" stroke-width="3" fill="#FFFFFF" fill-rule="nonzero" stroke-linecap="round" stroke-linejoin="round" transform="translate(23.111132, 80.972623) rotate(90.000000) translate(-23.111132, -80.972623) "></path>
                <path d="M4.5746,92.4913592 L9.76657895,131.265286 C12.040306,148.339283 27.3531047,160.627308 44.5645053,159.189494 L69.3868316,157.269705" id="Shape" stroke="#E94E6B" stroke-width="3" stroke-linecap="round" stroke-linejoin="round"></path>
                <path d="M157.329621,92.4913592 L152.166811,131.265286 C149.865001,148.335845 134.552594,160.613264 117.339716,159.189494 L92.5465579,157.269705" id="Shape" stroke="#E94E6B" stroke-width="3" stroke-linecap="round" stroke-linejoin="round"></path>
            </g>
        </g>
    </g>
</svg>