<?xml version="1.0" encoding="UTF-8"?>
<svg width="263px" height="263px" viewBox="0 0 263 263" version="1.1" xmlns="http://www.w3.org/2000/svg" xmlns:xlink="http://www.w3.org/1999/xlink">
    <!-- Generator: Sketch 52.2 (67145) - http://www.bohemiancoding.com/sketch -->
    <title>square</title>
    <desc>Created with Sketch.</desc>
    <g id="Page-1" stroke="none" stroke-width="1" fill="none" fill-rule="evenodd">
        <g id="04--law-document" transform="translate(3.000000, 15.000000)">
            <g id="Background">
                <g id="New_Symbol_73-2">
                    <path d="M245.104799,117.316898 C245.100344,69.5656385 216.167571,26.6150746 172.019193,8.8216629 C127.870815,-8.97174882 77.3787603,1.96770304 44.4737812,36.4552558 C11.5688021,70.9428086 2.86338607,122.047946 22.4834726,165.549343 L234.707649,165.549343 C241.578375,150.405947 245.12425,133.956612 245.104799,117.316898 Z" id="Shape" fill="#EBE9F8" fill-rule="nonzero"></path>
                    <path d="M13.5716298,164.531161 L240.736249,164.531161" id="Shape" stroke="#6350C8" stroke-width="4" stroke-linecap="round" stroke-linejoin="round"></path>
                    <path d="M0.465978706,164.531161 L7.74689599,164.531161" id="Shape" stroke="#6350C8" stroke-width="4" stroke-linecap="round" stroke-linejoin="round"></path>
                    <path d="M246.560983,164.531161 L253.8419,164.531161" id="Shape" stroke="#6350C8" stroke-width="4" stroke-linecap="round" stroke-linejoin="round"></path>
                </g>
            </g>
            <g id="Scene" transform="translate(50.000000, 27.000000)">
                <path d="M0.627,143.524814 C4.86474552,143.524821 8.92850067,141.815432 11.9223114,138.773524 C14.9161222,135.731616 16.594149,131.606978 16.58643,127.308986 L16.58643,21.9355919 C16.6655508,13.0995119 23.7172411,5.96068222 32.42958,5.89666449 L112.34301,5.89661089 C108.105272,5.88883571 104.038456,7.59072105 101.039192,10.6270983 C98.039928,13.6634756 96.354503,17.78501 96.35451,22.0830085 L96.35451,127.308986 C96.35451,136.26474 89.1962147,143.524814 80.36601,143.524814 L0.627,143.524814 Z" id="Shape" fill="#FFFFFF" fill-rule="nonzero"></path>
                <path d="M96.35451,21.9355919 C96.3794367,17.3580421 98.310829,13.0044158 101.671973,9.94929285 C105.033117,6.89416994 109.510864,5.42218683 114,5.89666449 C122.379811,6.90717953 128.653558,14.1736658 128.535,22.7316416 L128.535,30.8100719 C128.535,32.6826387 127.038266,34.200654 125.19195,34.200654 L96.35451,34.200654 L96.35451,21.9355919 Z" id="Shape" stroke="#6350C8" stroke-width="3" fill="#FFFFFF" fill-rule="nonzero" stroke-linejoin="round"></path>
                <ellipse id="Oval" fill="#EBE9F8" fill-rule="nonzero" cx="118.01166" cy="155.671942" rx="34.97121" ry="5.07113146"></ellipse>
                <path d="M101.99409,139.456115 L136.00599,139.456115 C137.871416,139.432464 139.66848,140.167514 140.995806,141.497093 C142.323133,142.826673 143.070146,144.640015 143.07,146.532112 L143.07,150.689261 C143.07,152.31758 141.768492,153.637593 140.163,153.637593 L97.92429,153.637593 C96.3187982,153.637593 95.01729,152.31758 95.01729,150.689261 L95.01729,146.532112 C95.01729,142.624147 98.1409098,139.456115 101.99409,139.456115 Z" id="Shape" fill="#FFFFFF" fill-rule="nonzero"></path>
                <path d="M0.627,143.524814 C4.86474552,143.524821 8.92850067,141.815432 11.9223114,138.773524 C14.9161222,135.731616 16.594149,131.606978 16.58643,127.308986 L16.58643,21.9355919 C16.6655508,13.0995119 23.7172411,5.96068222 32.42958,5.89666449 L112.34301,5.89661089 C108.105272,5.88883571 104.038456,7.59072105 101.039192,10.6270983 C98.039928,13.6634756 96.354503,17.78501 96.35451,22.0830085 L96.35451,127.308986 C96.35451,136.26474 89.1962147,143.524814 80.36601,143.524814 L0.627,143.524814 Z" id="Shape" stroke="#6350C8" stroke-width="3" stroke-linejoin="round"></path>
                <path d="M50.42391,38.1514192 L84.37767,38.1514192" id="Shape" stroke="#6350C8" stroke-width="3" stroke-linecap="round" stroke-linejoin="round"></path>
                <path d="M50.42391,54.3672466 L84.37767,54.3672466" id="Shape" stroke="#6350C8" stroke-width="3" stroke-linecap="round" stroke-linejoin="round"></path>
                <polygon id="Shape" fill="#D8D3F1" fill-rule="nonzero" points="13.33059 38.2693525 8.91195 74.2979725 24.43533 65.2760759 39.98778 74.2979725 35.54007 38.2693525"></polygon>
                <path d="M50.42391,70.5830739 L70.395,70.5830739" id="Shape" stroke="#6350C8" stroke-width="3" stroke-linecap="round" stroke-linejoin="round"></path>
                <path d="M28.44699,86.7989012 L64.40658,86.7989012" id="Shape" stroke="#6350C8" stroke-width="3" stroke-linecap="round" stroke-linejoin="round"></path>
                <path d="M28.44699,102.985245 L56.41233,102.985245" id="Shape" stroke="#6350C8" stroke-width="3" stroke-linecap="round" stroke-linejoin="round"></path>
                <path d="M28.44699,119.201073 L56.41233,119.201073" id="Shape" stroke="#6350C8" stroke-width="3" stroke-linecap="round" stroke-linejoin="round"></path>
                <polygon id="Shape" stroke="#6350C8" stroke-width="3" stroke-linejoin="round" points="13.33059 38.2693525 8.91195 74.2979725 24.43533 65.2760759 39.98778 74.2979725 35.54007 38.2693525"></polygon>
                <path d="M48.85413,24.7659908 C48.85413,27.7143231 43.99944,29.8666056 42.89478,32.5201046 C41.79012,35.1736037 43.73781,40.2152518 41.70291,42.2790844 C39.66801,44.3429169 34.81332,42.2790844 32.08074,43.4879006 C29.34816,44.6967168 27.45861,49.3845651 24.43533,49.3845651 C21.41205,49.3845651 19.40622,44.4313669 16.78992,43.4879006 C14.17362,42.5444343 9.23172,44.3429169 7.16775,42.2790844 C5.10378,40.2152518 7.16775,35.2620536 5.97588,32.5201046 C4.78401,29.7781557 0.01653,27.8027731 0.01653,24.7659908 C0.01653,21.7292086 4.90029,19.6653761 5.97588,17.011877 C7.05147,14.358378 5.13285,9.31672989 7.16775,7.25289732 C9.20265,5.18906475 14.08641,7.25289732 16.78992,6.0440811 C19.49343,4.83526488 21.44112,0 24.43533,0 C27.42954,0 29.46444,4.92371485 32.08074,6.0440811 C34.69704,7.16444735 39.66801,5.18906475 41.70291,7.25289732 C43.73781,9.31672989 41.70291,14.2699281 42.89478,17.011877 C44.08665,19.753826 48.85413,21.6997253 48.85413,24.7659908 Z" id="Shape"></path>
                <path d="M48.85413,24.7659908 C48.85413,27.7143231 43.99944,29.8666056 42.89478,32.5201046 C41.79012,35.1736037 43.73781,40.2152518 41.70291,42.2790844 C39.66801,44.3429169 34.81332,42.2790844 32.08074,43.4879006 C29.34816,44.6967168 27.45861,49.3845651 24.43533,49.3845651 C21.41205,49.3845651 19.40622,44.4313669 16.78992,43.4879006 C14.17362,42.5444343 9.23172,44.3429169 7.16775,42.2790844 C5.10378,40.2152518 7.16775,35.2620536 5.97588,32.5201046 C4.78401,29.7781557 0.01653,27.8027731 0.01653,24.7659908 C0.01653,21.7292086 4.90029,19.6653761 5.97588,17.011877 C7.05147,14.358378 5.13285,9.31672989 7.16775,7.25289732 C9.20265,5.18906475 14.08641,7.25289732 16.78992,6.0440811 C19.49343,4.83526488 21.44112,0 24.43533,0 C27.42954,0 29.46444,4.92371485 32.08074,6.0440811 C34.69704,7.16444735 39.66801,5.18906475 41.70291,7.25289732 C43.73781,9.31672989 41.70291,14.2699281 42.89478,17.011877 C44.08665,19.753826 48.85413,21.6997253 48.85413,24.7659908 Z" id="Shape" stroke="#6350C8" stroke-width="3" fill="#D8D3F1" fill-rule="nonzero" stroke-linejoin="round"></path>
                <path d="M35.511,24.7659908 C35.511,30.9861692 30.5392386,36.02862 24.40626,36.02862 C18.2732814,36.02862 13.30152,30.9861692 13.30152,24.7659908 C13.30152,18.5458125 18.2732814,13.5033617 24.40626,13.5033617 C30.5392386,13.5033617 35.511,18.5458125 35.511,24.7659908 Z" id="Shape" stroke="#6350C8" stroke-width="3" fill="#FFFFFF" fill-rule="nonzero" stroke-linejoin="round"></path>
                <path d="M154.95963,82.7302027 C152.760106,82.7302027 150.97704,80.9217845 150.97704,78.6909876 C150.97704,74.2979725 145.48281,70.5830739 138.97113,70.5830739 C132.45945,70.5830739 124.98846,74.2979725 124.98846,78.6909876 C124.811277,80.7962754 123.074657,82.4136493 120.991335,82.4136493 C118.908013,82.4136493 117.171393,80.7962754 116.99421,78.6909876 C116.99421,69.8459908 127.9536,62.4751602 138.97113,62.4751602 C149.98866,62.4751602 158.97129,69.7280576 158.97129,78.6909876 C158.971318,79.767382 158.547737,80.7992657 157.794557,81.5576187 C157.041378,82.3159717 156.020906,82.7380596 154.95963,82.7302027 Z" id="Shape" stroke="#6350C8" stroke-width="3" fill="#FFFFFF" fill-rule="nonzero" stroke-linecap="round" stroke-linejoin="round"></path>
                <path d="M116.907,82.7302027 C114.707476,82.7302027 112.92441,80.9217845 112.92441,78.6909876 C112.92441,74.2979725 105.42435,70.5830739 98.94174,70.5830739 C92.45913,70.5830739 86.9649,74.2979725 86.9649,78.6909876 C86.7877165,80.7962754 85.0510974,82.4136493 82.967775,82.4136493 C80.8844526,82.4136493 79.1478335,80.7962754 78.97065,78.6909876 C78.97065,69.8459908 87.92421,62.4751602 98.94174,62.4751602 C109.95927,62.4751602 120.91866,69.7280576 120.91866,78.6909876 C120.918688,79.767382 120.495107,80.7992657 119.741927,81.5576187 C118.988748,82.3159717 117.968276,82.7380596 116.907,82.7302027 Z" id="Shape" stroke="#6350C8" stroke-width="3" fill="#FFFFFF" fill-rule="nonzero" stroke-linecap="round" stroke-linejoin="round"></path>
                <polygon id="Rectangle-path" stroke="#6350C8" stroke-width="3" fill="#FFFFFF" fill-rule="nonzero" stroke-linecap="round" stroke-linejoin="round" points="113.01162 76.6566383 124.98846 76.6566383 124.98846 131.348201 113.01162 131.348201"></polygon>
                <polygon id="Rectangle-path" stroke="#6350C8" stroke-width="3" stroke-linecap="round" stroke-linejoin="round" points="113.01162 76.6566383 124.98846 76.6566383 124.98846 131.348201 113.01162 131.348201"></polygon>
                <path d="M119.00004,62.4751602 L108.99996,72.6174232 C109.015933,74.8529808 110.807344,76.656697 113.01162,76.6566383 L124.98846,76.6566383 C127.192736,76.656697 128.984147,74.8529808 129.00012,72.6174232 L119.00004,62.4751602 Z" id="Shape" stroke="#6350C8" stroke-width="3" fill="#FFFFFF" fill-rule="nonzero" stroke-linecap="round" stroke-linejoin="round"></path>
                <path d="M101.99409,139.456115 L136.00599,139.456115 C137.871416,139.432464 139.66848,140.167514 140.995806,141.497093 C142.323133,142.826673 143.070146,144.640015 143.07,146.532112 L143.07,150.689261 C143.07,152.31758 141.768492,153.637593 140.163,153.637593 L97.92429,153.637593 C96.3187982,153.637593 95.01729,152.31758 95.01729,150.689261 L95.01729,146.532112 C95.01729,142.624147 98.1409098,139.456115 101.99409,139.456115 Z" id="Shape" stroke="#6350C8" stroke-width="3" stroke-linecap="round" stroke-linejoin="round"></path>
                <path d="M130.97688,139.456115 L107.0232,139.456115 C103.715887,139.456115 101.03478,136.736888 101.03478,133.382551 C101.03478,130.028214 103.715887,127.308986 107.0232,127.308986 L130.97688,127.308986 C134.288928,127.308947 136.97837,130.02345 136.99437,133.382551 C136.97837,136.741651 134.288928,139.456154 130.97688,139.456115 Z" id="Shape" stroke="#6350C8" stroke-width="3" fill="#FFFFFF" fill-rule="nonzero" stroke-linecap="round" stroke-linejoin="round"></path>
                <polygon id="Shape" stroke="#6350C8" stroke-width="3" stroke-linecap="round" stroke-linejoin="round" points="154.95963 82.7302027 170.94813 109.05881 138.97113 109.05881"></polygon>
                <path d="M99.02895,109.088293 C99.02895,118.044047 91.8706547,125.30412 83.04045,125.30412 C74.2102453,125.30412 67.05195,118.044047 67.05195,109.088293 L99.02895,109.088293 Z" id="Shape" fill="#FFFFFF" fill-rule="nonzero"></path>
                <polygon id="Shape" stroke="#6350C8" stroke-width="3" stroke-linecap="round" stroke-linejoin="round" points="83.04045 82.7302027 67.05195 109.05881 99.02895 109.05881"></polygon>
                <path d="M99.02895,109.088293 C99.02895,118.044047 91.8706547,125.30412 83.04045,125.30412 C74.2102453,125.30412 67.05195,118.044047 67.05195,109.088293 L99.02895,109.088293 Z" id="Shape" stroke="#6350C8" stroke-width="3" stroke-linecap="round" stroke-linejoin="round"></path>
                <path d="M170.94813,109.088293 C170.94813,118.044047 163.789835,125.30412 154.95963,125.30412 C146.129425,125.30412 138.97113,118.044047 138.97113,109.088293 L170.94813,109.088293 Z" id="Shape" fill="#FFFFFF" fill-rule="nonzero"></path>
                <path d="M170.94813,109.088293 C170.94813,118.044047 163.789835,125.30412 154.95963,125.30412 C146.129425,125.30412 138.97113,118.044047 138.97113,109.088293 L170.94813,109.088293 Z" id="Shape" stroke="#6350C8" stroke-width="3" stroke-linecap="round" stroke-linejoin="round"></path>
            </g>
        </g>
    </g>
</svg>