<?xml version="1.0" encoding="UTF-8"?>
<svg width="263px" height="263px" viewBox="0 0 263 263" version="1.1" xmlns="http://www.w3.org/2000/svg" xmlns:xlink="http://www.w3.org/1999/xlink">
    <!-- Generator: Sketch 52.2 (67145) - http://www.bohemiancoding.com/sketch -->
    <title>square</title>
    <desc>Created with Sketch.</desc>
    <g id="Page-1" stroke="none" stroke-width="1" fill="none" fill-rule="evenodd">
        <g id="08--house-information-1" transform="translate(15.000000, 15.000000)">
            <g id="Background" fill="#EAF0FC" fill-rule="nonzero">
                <circle id="Oval" cx="116.5" cy="116.5" r="116.5"></circle>
            </g>
            <g id="Scene" transform="translate(6.000000, 13.000000)">
                <path d="M207.427795,165.093716 C207.405807,163.535357 207.139949,161.99004 206.639873,160.513867 L208.88691,159.172001 C209.507864,158.802251 209.955622,158.200179 210.130921,157.499255 C210.30622,156.79833 210.194577,156.056462 209.820743,155.438112 L209.26628,154.475468 C208.878046,153.861239 208.27448,153.413941 207.573706,153.221115 C206.867799,153.049608 206.122659,153.165007 205.501763,153.541996 L203.283908,154.883863 C201.288637,152.810582 198.733795,151.361372 195.929968,150.712408 L195.929968,148.116188 C195.929968,147.396681 195.644035,146.706644 195.135069,146.197876 C194.626104,145.689107 193.9358,145.403284 193.216014,145.403284 L192.107087,145.403284 C190.603418,145.403199 189.379947,146.613186 189.36395,148.116188 L189.36395,150.712408 C186.562572,151.367637 184.009406,152.815896 182.010011,154.883863 L179.792156,153.541996 C179.173563,153.158739 178.425822,153.042937 177.720212,153.221115 C177.030226,153.420378 176.43798,153.866987 176.056821,154.475468 L175.473175,155.438112 C174.711562,156.72873 175.127413,158.391487 176.407009,159.172001 L178.683228,160.513867 C177.632753,163.476815 177.632753,166.710617 178.683228,169.673564 L176.407009,171.015431 C175.127413,171.795944 174.711562,173.458702 175.473175,174.74932 L176.056821,175.711963 C176.43798,176.320445 177.030226,176.767054 177.720212,176.966317 C178.425822,177.144495 179.173563,177.028693 179.792156,176.645436 L182.010011,175.303569 C184.009406,177.371536 186.562572,178.819795 189.36395,179.475024 L189.36395,182.071243 C189.379947,183.574245 190.603418,184.784232 192.107087,184.784147 L193.216014,184.784147 C193.9358,184.784147 194.626104,184.498324 195.135069,183.989556 C195.644035,183.480788 195.929968,182.79075 195.929968,182.071243 L195.929968,179.475024 C198.733795,178.82606 201.288637,177.37685 203.283908,175.303569 L205.501763,176.645436 C206.122659,177.022424 206.867799,177.137824 207.573706,176.966317 C208.27448,176.773491 208.878046,176.326193 209.26628,175.711963 L209.820743,174.74932 C210.194577,174.13097 210.30622,173.389102 210.130921,172.688177 C209.955622,171.987253 209.507864,171.38518 208.88691,171.015431 L206.639873,169.673564 C207.139949,168.197392 207.405807,166.652075 207.427795,165.093716 Z M192.603186,171.657193 C188.976874,171.657193 186.037168,168.718624 186.037168,165.093716 C186.037168,161.468808 188.976874,158.530239 192.603186,158.530239 C196.229497,158.530239 199.169204,161.468808 199.169204,165.093716 C199.169204,168.718624 196.229497,171.657193 192.603186,171.657193 Z" id="Shape" stroke="#2D6FE2" stroke-width="2" fill="#CADBF8" fill-rule="nonzero" stroke-linejoin="round"></path>
                <path d="M191.144071,29.7985735 C191.121261,31.859916 190.011889,33.7562079 188.225841,34.7868161 L176.55292,41.8462005 L164.88,34.7868161 C163.093952,33.7562079 161.98458,31.859916 161.96177,29.7985735 L161.96177,3.92388801 C166.050247,7.8059642 172.464443,7.8059642 176.55292,3.92388801 C180.641398,7.8059642 187.055594,7.8059642 191.144071,3.92388801 L191.144071,29.7985735 Z" id="Shape" fill="#CADBF8" fill-rule="nonzero"></path>
                <path d="M191.144071,29.7985735 C191.121261,31.859916 190.011889,33.7562079 188.225841,34.7868161 L176.55292,41.8462005 L164.88,34.7868161 C163.093952,33.7562079 161.98458,31.859916 161.96177,29.7985735 L161.96177,3.92388801 C166.050247,7.8059642 172.464443,7.8059642 176.55292,3.92388801 C180.641398,7.8059642 187.055594,7.8059642 191.144071,3.92388801 L191.144071,29.7985735 Z" id="Shape" stroke="#2D6FE2" stroke-width="2" stroke-linejoin="round"></path>
                <polyline id="Shape" stroke="#2D6FE2" stroke-width="2" stroke-linecap="round" stroke-linejoin="round" points="169.257345 24.3435947 173.63469 28.7192462 183.848496 17.0508423"></polyline>
                <g id="Group">
                    <path d="M90.8445027,164.947861 L80.9225204,154.271271 C80.2167794,153.553501 79.3861091,152.970279 78.4712071,152.550182 L66.5648283,146.861835 C65.1348956,145.315771 64.8722549,147.532768 63.3255929,148.932977 C61.778931,150.333185 57.3140389,156.429926 58.7439717,158.005161 L71.2048142,171.394654 L71.2048142,174.74932 C71.2038577,176.831186 72.8584331,178.536807 74.9401487,178.599893 C77.0022374,178.633125 78.7131589,177.013561 78.7922124,174.953517 C79.5757847,175.380769 80.4827284,175.525 81.3602549,175.361911 C83.3686009,174.910364 84.6586512,172.950247 84.278485,170.927918 L83.8115681,168.565066 L85.1831363,170.023617 C86.603008,171.496185 88.9352701,171.577973 90.4548851,170.208488 C91.9745,168.839002 92.1339594,166.511661 90.8153204,164.947861 L90.8445027,164.947861 Z" id="Shape" stroke="#2D6FE2" stroke-width="2" fill="#FFFFFF" fill-rule="nonzero" stroke-linecap="round" stroke-linejoin="round"></path>
                    <path d="M75.8739823,167.602423 L76.8078159,172.357297 C77.2318163,174.383877 79.2139231,175.68739 81.2435257,175.274398 C83.2518717,174.822851 84.541922,172.862734 84.1617558,170.840405" id="Shape" stroke="#2D6FE2" stroke-width="2"></path>
                    <path d="M77.975108,162.234957 L85.2123186,170.023617" id="Shape" stroke="#2D6FE2" stroke-width="2"></path>
                    <path d="M70.708715,156.342413 L67.6153912,154.79635" id="Shape" stroke="#2D6FE2" stroke-width="2" stroke-linecap="round" stroke-linejoin="round"></path>
                    <path d="M60.6991858,198.582035 L41.2929558,193.331253 C42.285154,168.594237 45.1158372,142.281986 79.2299469,131.663739 L81.1851611,131.051148 C82.9850602,130.815085 84.7000193,131.886698 85.2762091,133.607488 C85.852399,135.328278 85.128326,137.215945 83.5489274,138.110532 L81.5937133,138.723123 C72.839023,141.436027 66.7107398,145.169916 63.5006867,153.571167 C58.5396956,166.202214 66.4189168,162.90589 69.1328708,158.617752 L74.969331,149.633081 C76.120084,147.925486 78.4236608,147.447688 80.1590638,148.556649 C81.8944668,149.66561 82.4276418,151.956155 81.3602549,153.717022 C73.3934867,172.211442 74.0354973,176.1787 68.1698549,181.779533 C63.8508743,186.067672 63.1213168,189.77239 60.6991858,198.582035 Z" id="Shape" fill="#FFFFFF" fill-rule="nonzero"></path>
                    <path d="M60.6991858,198.582035 L41.2929558,193.331253 C42.285154,168.594237 45.1158372,142.281986 79.2299469,131.663739 L81.1851611,131.051148 C82.9850602,130.815085 84.7000193,131.886698 85.2762091,133.607488 C85.852399,135.328278 85.128326,137.215945 83.5489274,138.110532 L81.5937133,138.723123 C72.839023,141.436027 66.7107398,145.169916 63.5006867,153.571167 C58.5396956,166.202214 66.4189168,162.90589 69.1328708,158.617752 L74.969331,149.633081 C76.120084,147.925486 78.4236608,147.447688 80.1590638,148.556649 C81.8944668,149.66561 82.4276418,151.956155 81.3602549,153.717022 C73.3934867,172.211442 74.0354973,176.1787 68.1698549,181.779533 C63.8508743,186.067672 63.1213168,189.77239 60.6991858,198.582035 Z" id="Shape" stroke="#2D6FE2" stroke-width="2" stroke-linecap="round" stroke-linejoin="round"></path>
                    <path d="M80.9517027,76.851412 L137.828007,76.851412 C139.584903,76.851412 141.26984,77.5490659 142.512153,78.7908979 C143.754465,80.0327299 144.452389,81.7170155 144.452389,83.4732311 L144.452389,169.411025 C144.452389,173.068155 141.486552,176.032845 137.828007,176.032845 L81.0392496,176.032845 C77.3807042,176.032845 74.4148673,173.068155 74.4148673,169.411025 L74.4148673,83.3857181 C74.4148673,81.6527124 75.1035676,79.990686 76.329462,78.7652659 C77.5553565,77.5398458 79.2180261,76.851412 80.9517027,76.851412 Z" id="Shape" fill="#FFFFFF" fill-rule="nonzero"></path>
                    <path d="M82.7104425,89.9783663 L136.156814,89.9783663 C136.709099,89.9783663 137.156814,90.4260815 137.156814,90.9783663 L137.156814,163.364441 C137.156814,163.916725 136.709099,164.364441 136.156814,164.364441 L82.7104425,164.364441 C82.1581577,164.364441 81.7104425,163.916725 81.7104425,163.364441 L81.7104425,90.9783663 C81.7104425,90.4260815 82.1581577,89.9783663 82.7104425,89.9783663 Z" id="Rectangle-path" fill="#CADBF8" fill-rule="nonzero"></path>
                    <path d="M136.281345,90.8243255 C135.737794,90.2854082 135.004152,89.9815886 134.238584,89.9783663 L84.6286726,89.9783663 C83.0169786,89.9783663 81.7104425,91.2843968 81.7104425,92.8954672 L81.7104425,144.99489 L136.281345,90.8243255 Z" id="Shape" fill="#FFFFFF" fill-rule="nonzero"></path>
                    <path d="M80.9517027,76.851412 L137.828007,76.851412 C139.584903,76.851412 141.26984,77.5490659 142.512153,78.7908979 C143.754465,80.0327299 144.452389,81.7170155 144.452389,83.4732311 L144.452389,169.411025 C144.452389,173.068155 141.486552,176.032845 137.828007,176.032845 L81.0392496,176.032845 C77.3807042,176.032845 74.4148673,173.068155 74.4148673,169.411025 L74.4148673,83.3857181 C74.4148673,81.6527124 75.1035676,79.990686 76.329462,78.7652659 C77.5553565,77.5398458 79.2180261,76.851412 80.9517027,76.851412 Z" id="Shape" stroke="#2D6FE2" stroke-width="2" stroke-linejoin="round"></path>
                    <path d="M82.7104425,89.9783663 L136.156814,89.9783663 C136.709099,89.9783663 137.156814,90.4260815 137.156814,90.9783663 L137.156814,163.364441 C137.156814,163.916725 136.709099,164.364441 136.156814,164.364441 L82.7104425,164.364441 C82.1581577,164.364441 81.7104425,163.916725 81.7104425,163.364441 L81.7104425,90.9783663 C81.7104425,90.4260815 82.1581577,89.9783663 82.7104425,89.9783663 Z" id="Rectangle-path" stroke="#2D6FE2" stroke-width="2" stroke-linejoin="round"></path>
                    <path d="M99.219823,84.1441643 L119.647434,84.1441643" id="Shape" stroke="#2D6FE2" stroke-width="2" stroke-linecap="round" stroke-linejoin="round"></path>
                    <path d="M93.7335504,81.9271676 C93.1211067,81.9271676 92.624623,82.4234592 92.624623,83.035666 C92.624623,83.6478727 93.1211067,84.1441643 93.7335504,84.1441643 C94.3459942,84.1441643 94.8424779,83.6478727 94.8424779,83.035666 C94.8424779,82.4234592 94.3459942,81.9271676 93.7335504,81.9271676 Z" id="Shape" fill="#4550E5" fill-rule="nonzero"></path>
                    <path d="M175.356446,126.442128 C171.022157,138.693269 163.276755,149.451669 153.031986,157.450911" id="Shape" stroke="#2D6FE2" stroke-width="2" stroke-linecap="round" stroke-linejoin="round"></path>
                    <path d="M26.7893522,162.993403 C17.2822234,149.542957 11.1471299,134.006067 8.90060177,117.690825" id="Shape" stroke="#2D6FE2" stroke-width="2" stroke-linecap="round" stroke-linejoin="round"></path>
                    <path d="M172.175575,186.563579 C143.734445,207.476353 106.576721,212.41633 73.6561274,199.661362" id="Shape" stroke="#2D6FE2" stroke-width="2" stroke-linecap="round" stroke-linejoin="round"></path>
                    <path d="M194.966952,43.625632 C207.508861,61.0967559 214.236609,82.0681856 214.198088,103.572057 C214.209104,111.264672 213.367409,118.934825 211.688411,126.442128" id="Shape" stroke="#2D6FE2" stroke-width="2" stroke-linecap="round" stroke-linejoin="round"></path>
                    <path d="M23.6960283,48.8180717 C48.8736084,8.80806977 97.9964827,-9.02931853 142.993274,5.49912253" id="Shape" stroke="#2D6FE2" stroke-width="2" stroke-linecap="round" stroke-linejoin="round"></path>
                    <path d="M153.031986,7.48275118 C153.031986,9.60649414 151.752179,11.5211197 149.789337,12.3338409 C147.826495,13.1465622 145.567165,12.6973276 144.064871,11.1956145 C142.562577,9.69390149 142.113168,7.43544666 142.926204,5.47336401 C143.73924,3.51128135 145.654607,2.23196946 147.779172,2.23196946 C150.673589,2.24791086 153.016038,4.58945338 153.031986,7.48275118 Z" id="Shape" stroke="#2D6FE2" stroke-width="2" fill="#FFFFFF" fill-rule="nonzero" stroke-linecap="round" stroke-linejoin="round"></path>
                    <ellipse id="Oval" stroke="#2D6FE2" stroke-width="2" fill="#FFFFFF" fill-rule="nonzero" stroke-linecap="round" stroke-linejoin="round" cx="210.696212" cy="131.547055" rx="5.25281416" ry="5.25078172"></ellipse>
                    <ellipse id="Oval" stroke="#2D6FE2" stroke-width="2" fill="#FFFFFF" fill-rule="nonzero" stroke-linecap="round" stroke-linejoin="round" cx="7.96676814" cy="112.32336" rx="5.25281416" ry="5.25078172"></ellipse>
                    <path d="M49.9017345,133.676539 C38.0616912,109.622292 41.4309305,80.8635462 58.5105133,60.1947655" id="Shape" stroke="#2D6FE2" stroke-width="2" stroke-linecap="round" stroke-linejoin="round"></path>
                    <path d="M121.573465,36.2453666 C142.68303,39.5004425 161.046029,52.4575442 171.183377,71.2505781" id="Shape" stroke="#2D6FE2" stroke-width="2" stroke-linecap="round" stroke-linejoin="round"></path>
                    <path d="M67.3819327,56.4317052 C67.3819327,59.3316319 65.0301677,61.682487 62.1291186,61.682487 C59.2280694,61.682487 56.8763044,59.3316319 56.8763044,56.4317052 C56.8763044,53.5317786 59.2280694,51.1809235 62.1291186,51.1809235 C65.0301677,51.1809235 67.3819327,53.5317786 67.3819327,56.4317052 Z" id="Shape" stroke="#2D6FE2" stroke-width="2" fill="#FFFFFF" fill-rule="nonzero" stroke-linecap="round" stroke-linejoin="round"></path>
                    <path d="M179.237692,75.6262295 C179.237659,77.75262 177.954672,79.6690653 175.988244,80.4800476 C174.021817,81.29103 171.760217,80.8364228 170.260246,79.3286553 C168.760274,77.8208877 168.318097,75.557665 169.140336,73.5965472 C169.962575,71.6354293 171.886879,70.3636345 174.01406,70.3754478 C176.903706,70.3914955 179.237737,72.7376568 179.237692,75.6262295 Z" id="Shape" stroke="#2D6FE2" stroke-width="2" fill="#FFFFFF" fill-rule="nonzero" stroke-linecap="round" stroke-linejoin="round"></path>
                    <path d="M62.6544,162.205786 C64.1426973,163.48931 67.6153912,161.272314 69.1328708,158.734436 L74.969331,149.749765 C76.120084,148.04217 78.4236608,147.564372 80.1590638,148.673333 C81.8944668,149.782294 82.4276418,152.072839 81.3602549,153.833706 C73.3934867,172.328126 74.0354973,176.295384 68.1698549,181.896217 C63.7925097,186.067672 63.0629522,189.77239 60.6408212,198.582035 L51.1565735,196.014986" id="Shape" stroke="#2D6FE2" stroke-width="2" fill="#FFFFFF" fill-rule="nonzero" stroke-linecap="round" stroke-linejoin="round"></path>
                    <path d="M41.8376038,187.401661 L53.0444778,187.401427 C53.5967625,187.401417 54.0444857,187.849125 54.0444956,188.401409 C54.0444956,188.401421 54.0444956,188.401433 54.0444956,188.401444 L54.0439605,215.615828 C54.0439511,216.168099 53.5962494,216.615801 53.0439783,216.615811 L41.8371044,216.61608 C41.2848196,216.616089 40.8370964,216.168382 40.8370866,215.616097 C40.8370866,215.616086 40.8370866,215.616074 40.8370866,215.616062 L40.8376216,188.401679 C40.8376311,187.849408 41.2853327,187.401706 41.8376038,187.401696 Z" id="Rectangle-path" fill="#CADBF8" fill-rule="nonzero" transform="translate(47.440791, 202.008753) rotate(-74.845932) translate(-47.440791, -202.008753) "></path>
                    <path d="M41.8376038,187.401661 L53.0444778,187.401427 C53.5967625,187.401417 54.0444857,187.849125 54.0444956,188.401409 C54.0444956,188.401421 54.0444956,188.401433 54.0444956,188.401444 L54.0439605,215.615828 C54.0439511,216.168099 53.5962494,216.615801 53.0439783,216.615811 L41.8371044,216.61608 C41.2848196,216.616089 40.8370964,216.168382 40.8370866,215.616097 C40.8370866,215.616086 40.8370866,215.616074 40.8370866,215.616062 L40.8376216,188.401679 C40.8376311,187.849408 41.2853327,187.401706 41.8376038,187.401696 Z" id="Rectangle-path" stroke="#2D6FE2" stroke-width="1.994585" stroke-linejoin="round" transform="translate(47.440791, 202.008753) rotate(-74.845932) translate(-47.440791, -202.008753) "></path>
                    <path d="M51.3493393,180.460234 L54.2677474,180.460185 L54.2673229,206.0416 L51.4948352,206.041646 C49.8830429,206.041673 48.5764488,204.735744 48.5764755,203.124772 L48.5768032,183.377203 C48.5748823,181.82151 49.7947988,180.538043 51.3493393,180.460234 Z" id="Shape" stroke="#2D6FE2" stroke-width="2" fill="#FFFFFF" fill-rule="nonzero" stroke-linecap="round" stroke-linejoin="round" transform="translate(51.422111, 193.250916) rotate(105.220000) translate(-51.422111, -193.250916) "></path>
                    <path d="M106.807221,35.1368683 C105.945852,35.132201 105.092351,35.300851 104.297543,35.6327754 C103.319214,30.0502932 98.4694052,25.9778053 92.7997168,25.9778053 C87.1300284,25.9778053 82.2802196,30.0502932 81.3018903,35.6327754 C80.5061706,35.3038557 79.6532811,35.1353265 78.7922124,35.1368683 C76.2900127,35.1368682 73.9778847,36.4712593 72.7267848,38.6373893 C71.4756849,40.8035194 71.4756849,43.4723017 72.7267848,45.6384318 C73.9778847,47.8045619 76.2900127,49.138953 78.7922124,49.1389529 L106.807221,49.1389529 C110.675287,49.1389527 113.810973,46.0044793 113.810973,42.1379106 C113.810973,38.2713418 110.675287,35.1368684 106.807221,35.1368683 Z" id="Shape" stroke="#2D6FE2" stroke-width="2" fill="#FFFFFF" fill-rule="nonzero" stroke-linejoin="round"></path>
                    <path d="M106.807221,35.1368683 C105.945852,35.132201 105.092351,35.300851 104.297543,35.6327754 C103.319214,30.0502932 98.4694052,25.9778053 92.7997168,25.9778053 C87.1300284,25.9778053 82.2802196,30.0502932 81.3018903,35.6327754 C80.5061706,35.3038557 79.6532811,35.1353265 78.7922124,35.1368683 C76.2900127,35.1368682 73.9778847,36.4712593 72.7267848,38.6373893 C71.4756849,40.8035194 71.4756849,43.4723017 72.7267848,45.6384318 C73.9778847,47.8045619 76.2900127,49.138953 78.7922124,49.1389529 L106.807221,49.1389529 C110.675287,49.1389527 113.810973,46.0044793 113.810973,42.1379106 C113.810973,38.2713418 110.675287,35.1368684 106.807221,35.1368683 Z" id="Shape" stroke="#2D6FE2" stroke-width="2" fill="#FFFFFF" fill-rule="nonzero" stroke-linejoin="round"></path>
                    <path d="M186.766726,91.8744819 C185.863822,91.353392 184.751399,91.353392 183.848496,91.8744819 L166.339115,100.625785 C165.357774,101.120088 164.737419,102.123546 164.734088,103.222005 L164.734088,111.973307 C161.510701,111.973307 158.897628,114.585369 158.897628,117.807509 C158.897628,121.02965 161.510701,123.641711 164.734088,123.641711 C167.957476,123.641711 170.570549,121.02965 170.570549,117.807509 L170.570549,104.913923 L182.243469,99.0797212 L182.243469,107.480972 C179.020081,107.480972 176.407009,110.093033 176.407009,113.315174 C176.407009,116.537315 179.020081,119.149376 182.243469,119.149376 C185.466857,119.149376 188.079929,116.537315 188.079929,113.315174 L188.079929,94.3540177 C188.094648,93.3575357 187.599437,92.4224981 186.766726,91.8744819 Z" id="Shape" stroke="#2D6FE2" stroke-width="2" fill="#CADBF8" fill-rule="nonzero" stroke-linejoin="round"></path>
                    <path d="M18.8809487,57.2776645 C19.1474309,56.4731649 18.7883915,55.5944775 18.0346619,55.2065228 C17.2990507,54.7906463 16.3723129,54.9491059 15.8168071,55.585746 L1.22565664,78.6308435 C0.808247136,79.1680556 0.727674761,79.8939495 1.01712385,80.5095603 C1.30657295,81.1251711 1.91708838,81.5263794 2.59722478,81.5479445 L12.4316602,81.5479445 C12.9982725,81.5454372 13.5310714,81.8171682 13.8615929,82.2772197 C14.1997316,82.739042 14.3072893,83.3303808 14.1534159,83.8816253 L9.8344354,97.8545388 C9.59711499,98.699123 10.0003579,99.5921671 10.79098,99.9729558 C11.5816021,100.353745 12.5315957,100.112462 13.0444885,99.4006024 L30.2328637,73.6134299 C30.5553745,73.0432539 30.5553745,72.3458323 30.2328637,71.7756563 C29.9105686,71.1928604 29.2939642,70.8342475 28.6278372,70.842184 L17.2467398,70.842184 C16.6800572,70.8272809 16.1519401,70.5518913 15.8154737,70.0958422 C15.4790073,69.639793 15.3718207,69.0540873 15.5249841,68.5085032 L18.8809487,57.2776645 Z" id="Shape" stroke="#2D6FE2" stroke-width="2" fill="#CADBF8" fill-rule="nonzero" stroke-linejoin="round"></path>
                </g>
            </g>
            <g id="mono-white-line" transform="translate(96.000000, 120.000000)" fill-rule="nonzero">
                <path d="M30.9831566,8 C26.1747088,8.00881531 22.2207372,11.7501236 22,16.5 C22.2210443,21.2563063 26.1850343,25.0000747 31,25 L31,8 L30.9831566,8 Z" id="Shape" fill="#FFFFFF"></path>
                <path d="M21.4679593,16.9651991 C21.4679593,16.8329806 21.470919,16.7013577 21.4768383,16.5703304 C21.6810548,12.01058 25.4155536,8.39815327 29.997107,8.38743285 C30.0009643,8.0687116 30.0009643,7.59082661 29.997107,6.9537779 C26.5571147,6.92806717 23.2335168,7.8264559 20.2710729,9.58597923 C19.3290374,10.1459122 18.4377131,10.7880321 17.6073791,11.5049337 C17.3291711,11.7431652 17.0568824,11.9927127 16.790513,12.2535761 L12.1166182,9.6538752 L9.5417142,8.22448637 L5.54262187,6 C2.26503728,11.9317196 4.38110709,19.4135734 10.2715663,22.7202759 L4.48424753,33.8391342 C13.6828492,38.6830681 25.0425395,35.1093953 29.8603707,25.8559976 L29.997107,25.5611862 L29.8692496,25.5611862 C25.2076749,25.4803075 21.4701718,21.6561892 21.4679593,16.9651991 Z" id="Shape" stroke="#2D6FE2" stroke-width="2" fill="#FFFFFF" stroke-linecap="round" stroke-linejoin="round"></path>
                <path d="M2.61050996,4.26936779 C-1.3359698,11.7090618 1.62677077,21.3014545 8.72600583,25.438981 L10.1885555,22.6628461 C7.47008422,21.0787675 5.27494467,17.9964749 4.42174263,14.8618692 C3.56854058,11.7272635 3.87467542,8.76745969 5.38661496,5.91882367 L2.61050996,4.26936779 Z" id="Shape" stroke="#2D6FE2" stroke-width="2" fill="#FFFFFF" stroke-linecap="round" stroke-linejoin="round"></path>
                <path d="M30,18.3803533 L30,25 C32.9008255,24.9953344 35.6357987,22.7312282 36.2384081,19.9642505 L30,18.3803533 Z" id="Shape" stroke="#2D6FE2" stroke-width="2" fill="#FFFFFF" stroke-linecap="round" stroke-linejoin="round"></path>
                <path d="M38.0942143,10.0203575 C36.0968386,8.2442708 33.5394083,7.18739157 30.8444436,7.02432969 C30.579555,7.01042701 30.3111108,7.00173784 30.0497777,7 L30,7 C30,7.04170804 30,18.5548659 30,18.5548659 L41.7528774,21 C42.6065558,16.965114 41.2151947,12.7896416 38.0942143,10.0203575 Z" id="Shape" stroke="#2D6FE2" stroke-width="2" fill="#FFFFFF" stroke-linecap="round" stroke-linejoin="round"></path>
                <path d="M21,9.01938524 L18.1336526,3 C15.4896464,4.1963624 13.5793592,6.59771406 13,9.45332555 L17,11.9508688 C18.0348807,10.9473938 19.7604403,9.75196054 21,9.01938524 Z" id="Shape" stroke="#2D6FE2" stroke-width="2" fill="#FFFFFF" stroke-linecap="round" stroke-linejoin="round"></path>
                <path d="M18.236322,3.1282166 L16.8030923,0 C13.4775923,1.43882286 10.9861973,4.22098983 10,7.59708455 L13.0379844,9.30939776 C13.6431632,6.45545135 15.4744838,4.32388141 18.236322,3.1282166 Z" id="Shape" stroke="#2D6FE2" stroke-width="2" fill="#FFFFFF" stroke-linecap="round" stroke-linejoin="round"></path>
                <path d="M0.309623415,40.9137597 C2.57477204,42.0308069 5.94941607,42.2986759 8.28765899,41.323652 C10.6259019,40.3486281 12.3616011,38.4227316 13,36.0949342 C10.1919225,35.9420309 6.97203202,35.0412521 4.48114013,33.813435 L0.309623415,40.9137597 Z" id="Shape" stroke="#2D6FE2" stroke-width="2" fill="#FFFFFF" stroke-linecap="round" stroke-linejoin="round"></path>
                <circle id="Oval" fill="#2D6FE2" cx="26.5" cy="15.5" r="1.5"></circle>
            </g>
        </g>
    </g>
</svg>