<?xml version="1.0" encoding="utf-8"?>
<!-- Generator: Adobe Illustrator 17.0.0, SVG Export Plug-In . SVG Version: 6.00 Build 0)  -->
<!DOCTYPE svg PUBLIC "-//W3C//DTD SVG 1.1//EN" "http://www.w3.org/Graphics/SVG/1.1/DTD/svg11.dtd">
<svg version="1.1" id="Layer_1" xmlns="http://www.w3.org/2000/svg" xmlns:xlink="http://www.w3.org/1999/xlink" x="0px" y="0px"
	 width="801px" height="467px" viewBox="0 0 801 467" enable-background="new 0 0 801 467" xml:space="preserve">
<path fill="none" d="M497.966,282.756c0.051,0,0.051,0,0.101,0c33.637-0.051,57.625-24.273,65.275-55.534L499.3,213.277
	L497.966,282.756z M634,207.583c0-39.532-17.042-75.095-44.16-99.769c-21.919-19.954-50.484-32.72-81.942-34.651
	c-3.001-0.161-6.002-0.268-9.003-0.268c-0.161,0-0.375,0-0.536,0c0.161,0,0.375,0,0.536,0c-29.1-0.268-57.879,5.525-84.514,16.682
	c-9.003,3.755-17.793,8.153-26.206,13.142l-33.066-73.378L341.87,0c-32.852,14.858-56.968,41.141-69.777,72.037l51.02,45.164
	l-56.379-29.823l-75.993-42.16c-46.571,83.838-15.863,189.989,67.847,236.602L167,456.682c43.892,23.065,98.18,6.168,121.225-37.815
	c1.286-2.414,2.412-4.935,3.43-7.402c-2.787-1.448-5.52-2.897-8.253-4.398c-4.93-2.736-9.807-5.525-14.631-8.368
	c-9.593-5.739-19.025-11.801-28.189-18.023c10.343,4.023,20.847,7.724,31.351,11.157c5.252,1.663,10.504,3.272,15.81,4.774
	c4.019,1.126,8.092,2.199,12.058,3.111c79.477,3.111,157.453-38.674,196.843-113.929l1.554-3.326c-0.482,0-0.965,0-1.447,0
	c-52.627-0.912-95.018-43.877-95.018-96.765c0-1.502,0.054-2.95,0.107-4.452c2.304-51.279,44.749-92.152,96.519-92.366
	c0,32.452,0,103.899,0,115.914l133.069,28.804C633.089,225.176,634,216.487,634,207.583z M465.085,158.979
	c10.975,0,19.872,8.897,19.872,19.872c0,10.975-8.897,19.872-19.872,19.872c-10.975,0-19.872-8.897-19.872-19.872
	C445.213,167.876,454.11,158.979,465.085,158.979z"/>
</svg>
