<?xml version="1.0" encoding="UTF-8"?>
<svg width="872px" height="871px" viewBox="0 0 872 871" version="1.1" xmlns="http://www.w3.org/2000/svg" xmlns:xlink="http://www.w3.org/1999/xlink">
    <!-- Generator: Sketch 52.6 (67491) - http://www.bohemiancoding.com/sketch -->
    <title>berty_picto@3x</title>
    <desc>Created with Sketch.</desc>
    <g id="Page-1" stroke="none" stroke-width="1" fill="none" fill-rule="evenodd">
        <g id="berty_picto" fill="#000000">
            <path d="M618.9,526.7 C619,526.7 619,526.7 619.1,526.7 C685.5,526.6 741.1,480.7 756.2,418.9 L618.9,389.2 L618.9,526.7 Z" id="Path"></path>
            <path d="M872,387.2 C872,313.5 840.2,247.2 789.6,201.2 C748.7,164 695.4,140.2 636.7,136.6 C631.1,136.3 625.5,136.1 619.9,136.1 C619.6,136.1 619.2,136.1 618.9,136.1 C619.2,136.1 619.6,136.1 619.9,136.1 C565.6,135.6 511.9,146.4 462.2,167.2 C445.4,174.2 429,182.4 413.3,191.7 L351.6,54.9 L326.9,0.2 C265.6,27.9 220.6,76.9 196.7,134.5 L291.9,218.7 L186.7,163.1 L44.9,84.5 C-42,240.8 15.3,438.7 171.5,525.6 L0.6,851.6 C82.5,894.6 183.8,863.1 226.8,781.1 C229.2,776.6 231.3,771.9 233.2,767.3 C228,764.6 222.9,761.9 217.8,759.1 C208.6,754 199.5,748.8 190.5,743.5 C172.6,732.8 155,721.5 137.9,709.9 C157.2,717.4 176.8,724.3 196.4,730.7 C206.2,733.8 216,736.8 225.9,739.6 C233.4,741.7 241,743.7 248.4,745.4 C396.7,751.2 542.2,673.3 615.7,533 L618.6,526.8 C617.7,526.8 616.8,526.8 615.9,526.8 C517.7,525.1 438.6,445 438.6,346.4 C438.6,343.6 438.7,340.9 438.8,338.1 C443.1,242.5 522.3,166.3 618.9,165.9 C618.9,226.4 618.9,359.6 618.9,382 L867.2,435.7 C870.3,420 872,403.8 872,387.2 Z" id="Path"></path>
            <circle id="Oval" cx="561" cy="335.1" r="32.3"></circle>
        </g>
    </g>
</svg>