<svg xmlns="http://www.w3.org/2000/svg" xmlns:xlink="http://www.w3.org/1999/xlink" width="95" height="95" version="1.1" viewBox="0 0 95 95"><title>Artboard</title><g id="Artboard" fill="none" fill-rule="evenodd" stroke="none" stroke-width="1"><g id="Earth_442803" fill="currentColor" fill-rule="nonzero" transform="translate(3.000000, 2.000000)"><path id="Path" d="M72.915,63.692 C72.811,63.463 72.632,63.456 72.514,63.677 L71.885,64.849 C71.764,65.07 71.542,65.408 71.386,65.605 L70.51,66.713 C70.353,66.909 70.072,67.2 69.881,67.362 C69.438,67.737 68.714,68.355 68.559,68.509 C68.391,68.676 67.856,69.048 67.613,69.445 C67.482,69.66 67.528,70.076 67.591,70.32 C67.658,70.586 67.743,70.879 67.816,71.109 C67.888,71.35 67.82,71.698 67.655,71.887 C67.344,72.249 66.885,72.788 66.74,72.986 C66.512,73.289 66.134,73.894 66.134,74.123 C66.134,74.246 66.134,74.591 66.134,74.882 C66.134,75.133 66.337,75.337 66.586,75.337 L67.043,75.337 C67.294,75.337 67.648,75.199 67.834,75.03 L68.408,74.503 L69.433,73.365 L70.226,72.487 C70.396,72.3 70.566,71.949 70.61,71.702 L70.757,70.853 C70.8,70.607 70.918,70.221 71.022,69.992 L71.332,69.305 C71.436,69.075 71.655,68.738 71.824,68.552 L71.971,68.391 C72.138,68.205 72.36,67.87 72.466,67.641 L72.732,67.069 L73.17,65.973 C73.262,65.74 73.339,65.347 73.339,65.097 C73.339,64.845 73.255,64.454 73.154,64.225 L72.915,63.692 Z"/><path id="Path" d="M45.23,33.102 C45.32,33.102 45.444,33.002 45.508,32.878 C45.571,32.755 45.574,32.518 45.517,32.348 L45.498,32.299 C45.439,32.13 45.303,32.083 45.196,32.195 C45.087,32.307 45.013,32.542 45.032,32.721 L45.036,32.777 C45.054,32.958 45.141,33.102 45.23,33.102 Z"/><path id="Path" d="M38.121,22.301 C38.016,22.394 37.912,22.489 37.894,22.515 C37.852,22.569 37.407,22.704 37.364,22.745 C37.324,22.786 37.041,23.218 37.041,23.313 C37.041,23.352 37.041,23.408 37.041,23.462 C37.041,23.545 36.92,23.661 36.778,23.736 C36.66,23.799 36.548,23.869 36.553,23.908 C36.56,23.951 36.59,24.166 36.616,24.358 C36.641,24.535 36.785,24.638 36.939,24.585 L37.216,24.49 C37.216,24.49 37.343,24.435 37.5,24.369 C37.659,24.301 37.882,24.259 38.001,24.274 C38.121,24.289 38.279,24.178 38.354,24.024 L38.489,23.747 C38.489,23.747 38.532,23.637 38.583,23.503 C38.635,23.368 38.769,23.192 38.882,23.111 C38.994,23.028 39.07,22.84 39.05,22.69 C39.032,22.541 38.885,22.356 38.724,22.276 L38.644,22.236 C38.484,22.16 38.247,22.187 38.121,22.301 Z"/><path id="Path" d="M39.423,22.028 C39.437,22.151 39.409,22.597 39.49,22.678 C39.572,22.759 40.073,22.963 40.073,23.044 C40.073,23.125 39.733,23.49 39.733,23.53 C39.733,23.572 39.382,23.355 39.301,23.544 C39.218,23.734 39.233,24.018 39.341,24.086 C39.448,24.154 38.704,24.465 38.69,24.532 C38.684,24.569 38.9,24.609 39.101,24.639 C39.278,24.665 39.328,24.769 39.212,24.878 L39.002,25.073 L38.758,25.345 C38.638,25.479 38.686,25.572 38.864,25.551 L39.624,25.467 L40.68,25.399 L41.292,25.329 C41.47,25.308 41.645,25.155 41.682,24.986 C41.719,24.819 41.789,24.61 41.839,24.52 C41.886,24.431 41.851,24.232 41.76,24.079 L41.632,23.865 C41.54,23.711 41.419,23.449 41.361,23.279 L41.285,23.055 C41.227,22.885 41.058,22.666 40.909,22.566 L40.801,22.494 C40.652,22.394 40.507,22.174 40.477,22.002 C40.447,21.83 40.492,21.594 40.578,21.475 C40.664,21.356 40.785,21.164 40.849,21.048 C40.914,20.931 40.834,20.772 40.675,20.691 L40.591,20.647 C40.431,20.566 40.236,20.419 40.153,20.316 C40.07,20.216 39.886,20.22 39.74,20.324 L39.441,20.539 C39.296,20.644 39.168,20.874 39.157,21.054 L39.156,21.082 C39.145,21.26 39.207,21.534 39.286,21.694 C39.353,21.829 39.416,21.971 39.423,22.028 Z"/><path id="Path" d="M36.438,16.932 L36.661,16.932 C36.841,16.932 37.121,16.877 37.286,16.811 L37.695,16.647 L38.278,16.348 C38.438,16.267 38.494,16.086 38.404,15.946 C38.316,15.806 38.113,15.627 37.952,15.547 L37.884,15.513 C37.723,15.432 37.449,15.389 37.272,15.416 L36.96,15.462 C36.782,15.488 36.505,15.451 36.341,15.379 L36.287,15.355 C36.121,15.284 35.921,15.292 35.837,15.377 C35.753,15.462 35.684,15.611 35.684,15.713 L35.684,15.896 C35.684,15.896 35.684,16.031 35.684,16.2 C35.684,16.368 35.78,16.599 35.898,16.718 C36.017,16.836 36.259,16.932 36.438,16.932 Z"/><path id="Path" d="M45.524,10.603 C45.691,10.672 45.887,10.791 45.962,10.872 C46.036,10.955 46.171,10.937 46.265,10.831 L46.434,10.642 C46.434,10.642 46.489,10.577 46.557,10.497 C46.624,10.418 46.791,10.418 46.928,10.497 C47.067,10.577 47.216,10.531 47.261,10.392 C47.306,10.253 47.247,10.084 47.132,10.014 C47.016,9.943 46.986,9.841 47.064,9.785 C47.143,9.73 47.082,9.611 46.926,9.519 L46.863,9.482 C46.708,9.39 46.474,9.407 46.339,9.519 C46.205,9.632 45.952,9.697 45.773,9.688 C45.551,9.678 45.293,9.694 45.27,9.83 C45.23,10.075 45.121,10.399 45.163,10.44 C45.183,10.461 45.359,10.536 45.524,10.603 Z"/><path id="Path" d="M49.303,9.221 C49.43,9.279 49.677,9.278 49.85,9.231 L50.076,9.17 C50.248,9.123 50.525,9.033 50.692,8.97 L51.005,8.85 C51.174,8.786 51.177,8.671 51.015,8.596 L50.765,8.479 C50.601,8.402 50.327,8.367 50.15,8.399 C49.79,8.467 49.252,8.571 49.252,8.597 C49.252,8.639 49.116,9.017 49.103,9.085 C49.097,9.118 49.198,9.174 49.303,9.221 Z"/><path id="Path" d="M53.244,11.117 C53.353,11.239 53.786,11.631 53.786,11.699 C53.786,11.734 53.928,11.849 54.065,11.954 C54.208,12.063 54.472,12.145 54.652,12.145 L54.828,12.145 C55.008,12.145 55.208,12.122 55.275,12.091 C55.343,12.062 55.275,11.961 55.121,11.865 L55.023,11.804 C54.87,11.708 54.634,11.539 54.498,11.424 L54.442,11.379 C54.303,11.264 54.143,11.035 54.083,10.865 L54.059,10.794 C53.998,10.626 53.908,10.447 53.854,10.397 C53.802,10.346 53.771,10.16 53.785,9.981 L53.804,9.722 C53.818,9.543 53.765,9.266 53.688,9.105 L53.617,8.96 C53.54,8.798 53.376,8.703 53.254,8.748 C53.131,8.793 53.015,8.966 52.996,9.135 C52.977,9.302 52.823,9.501 52.708,9.639 C52.636,9.725 52.585,9.838 52.624,9.966 C52.719,10.279 53.071,10.522 53.085,10.657 C53.096,10.792 53.138,10.995 53.244,11.117 Z"/><path id="Path" d="M56.183,10.866 L56.481,11.109 C56.481,11.109 56.551,11.158 56.636,11.218 C56.722,11.278 56.906,11.38 57.046,11.448 C57.186,11.515 57.35,11.508 57.41,11.43 C57.473,11.354 57.496,11.203 57.465,11.095 C57.434,10.987 57.326,10.848 57.225,10.786 L57.042,10.676 L56.595,10.358 C56.595,10.358 56.496,10.275 56.375,10.175 C56.254,10.073 56.054,10.017 55.93,10.055 C55.832,10.087 55.735,10.122 55.716,10.146 C55.676,10.201 55.789,10.431 55.797,10.493 C55.804,10.555 56.183,10.866 56.183,10.866 Z"/><path id="Path" d="M6.619,37.209 C6.591,37.032 6.591,36.766 6.621,36.617 C6.65,36.468 6.608,36.218 6.526,36.058 L6.391,35.796 C6.308,35.636 6.112,35.445 5.949,35.366 L5.804,35.296 C5.642,35.218 5.473,35.015 5.427,34.842 L5.326,34.467 C5.279,34.293 5.137,34.254 5.008,34.38 L4.959,34.428 C4.83,34.553 4.726,34.8 4.726,34.979 C4.726,35.233 4.726,35.552 4.726,35.616 C4.726,35.686 4.882,35.955 4.997,36.182 C5.079,36.343 5.155,36.623 5.226,36.789 C5.27,36.893 5.324,37.009 5.371,37.111 C5.448,37.273 5.591,37.527 5.687,37.678 L6.042,38.239 C6.138,38.39 6.201,38.659 6.183,38.836 L6.081,39.813 L5.96,40.71 C5.938,40.888 5.994,40.909 6.089,40.755 L6.234,40.521 C6.328,40.369 6.445,40.106 6.496,39.934 L6.693,39.257 C6.744,39.085 6.785,38.8 6.785,38.62 L6.785,38.54 C6.785,38.361 6.76,38.071 6.732,37.894 L6.619,37.209 Z"/><path id="Shape" d="M76.82,13.18 C68.321,4.681 57.021,0 45,0 C32.981,0 21.68,4.681 13.181,13.18 C4.682,21.68 0,32.98 0,45 C0,57.021 4.682,68.321 13.181,76.82 C21.68,85.319 32.981,90 45,90 C57.021,90 68.321,85.319 76.82,76.82 C85.319,68.321 90,57.021 90,45 C90,32.98 85.319,21.68 76.82,13.18 Z M45,86.715 C32.821,86.715 21.845,81.468 14.211,73.115 C14.09,72.983 13.967,72.731 13.937,72.554 L13.823,71.909 C13.794,71.731 13.672,71.48 13.55,71.348 C13.386,71.17 13.164,70.932 12.989,70.764 C12.859,70.64 12.745,70.425 12.85,70.28 C12.955,70.135 13.101,69.964 13.224,69.826 C13.343,69.691 13.574,69.647 13.737,69.724 L14.068,69.881 C14.232,69.955 14.482,69.935 14.628,69.831 L15.018,69.555 C15.165,69.451 15.274,69.223 15.26,69.044 L15.122,67.202 L15.075,65.091 C15.072,64.911 15.161,64.654 15.275,64.516 L15.943,63.716 C16.058,63.577 16.13,63.321 16.103,63.145 L15.764,60.81 C15.738,60.632 15.621,60.38 15.502,60.246 L14.418,59.026 L13.548,58.027 C13.43,57.89 13.213,57.702 13.063,57.604 L11.93,56.874 C11.78,56.776 11.556,56.592 11.434,56.462 L9.985,54.931 C9.862,54.8 9.693,54.566 9.609,54.408 L9.048,53.357 C8.964,53.199 8.868,52.928 8.834,52.752 L8.679,51.934 L8.212,49.976 C8.171,49.801 8.066,49.533 7.978,49.376 L6.995,47.614 C6.909,47.457 6.739,47.223 6.621,47.088 C6.432,46.868 6.187,46.565 6.187,46.465 C6.187,46.303 5.645,43.919 5.645,43.919 L4.925,41.469 C4.874,41.297 4.755,41.034 4.66,40.883 L3.846,39.593 C3.752,39.441 3.693,39.174 3.72,38.995 C4.116,36.262 4.775,33.612 5.677,31.075 C5.737,30.907 5.761,30.876 5.729,31.008 L5.673,31.247 L5.459,32.471 C5.428,32.647 5.5,32.899 5.619,33.033 L5.837,33.28 C5.957,33.413 6.096,33.384 6.15,33.212 L6.336,32.613 C6.39,32.443 6.432,32.158 6.432,31.979 L6.432,31.302 C6.432,31.123 6.393,30.837 6.343,30.664 L6.211,30.2 C6.161,30.028 6.174,29.752 6.24,29.585 C6.833,28.1 7.51,26.655 8.263,25.259 C8.347,25.1 8.558,24.96 8.731,24.942 C8.905,24.925 9.169,24.837 9.322,24.742 L9.661,24.535 C9.815,24.44 10.039,24.259 10.162,24.129 C10.445,23.829 10.893,23.344 10.893,23.289 C10.893,23.207 11.664,22.821 11.664,22.7 C11.664,22.614 12.297,22.243 12.681,22.025 C12.838,21.937 13.109,21.867 13.289,21.867 L13.552,21.867 C13.732,21.867 13.961,21.747 14.062,21.599 C14.198,21.398 14.362,21.145 14.386,21.075 C14.411,21.001 14.749,20.875 15.011,20.788 C15.181,20.73 15.339,20.833 15.362,21.011 L15.401,21.301 C15.423,21.48 15.587,21.609 15.764,21.588 C16.264,21.531 17.168,21.424 17.168,21.38 C17.168,21.35 17.123,21.222 17.074,21.094 C17.015,20.937 16.949,20.667 16.928,20.49 L16.9,20.242 C16.88,20.063 17.004,19.877 17.175,19.826 L17.304,19.788 C17.475,19.736 17.717,19.589 17.839,19.459 L18.184,19.097 C18.307,18.966 18.277,18.796 18.117,18.717 L18.049,18.682 C17.888,18.602 17.758,18.401 17.758,18.232 C17.758,18.065 17.901,17.951 18.078,17.981 L18.432,18.038 C18.61,18.067 18.88,18.162 19.036,18.25 L19.544,18.537 L19.995,18.801 C20.15,18.891 20.191,19.082 20.086,19.228 L19.897,19.493 C19.792,19.639 19.569,19.803 19.399,19.861 L18.816,20.058 C18.646,20.116 18.465,20.302 18.412,20.473 L18.24,21.031 C18.187,21.203 18.243,21.447 18.365,21.577 L18.875,22.12 C18.996,22.25 19.24,22.328 19.415,22.289 C19.77,22.21 20.295,22.085 20.295,22.031 C20.295,21.986 20.263,21.748 20.237,21.541 C20.212,21.363 20.258,21.088 20.339,20.93 L21.025,19.576 L21.508,18.627 C21.589,18.467 21.764,18.24 21.899,18.123 L22.407,17.678 C22.541,17.561 22.715,17.334 22.791,17.172 C23.024,16.696 23.464,15.797 23.524,15.738 C23.58,15.681 24.149,15.151 24.483,14.843 C24.614,14.719 24.734,14.477 24.75,14.298 L24.776,13.99 C24.791,13.81 24.662,13.699 24.487,13.739 L23.535,13.959 C23.361,14 23.323,13.931 23.453,13.806 L23.95,13.322 L24.824,12.4 C24.948,12.27 25.099,12.029 25.161,11.861 L25.32,11.434 C25.383,11.266 25.3,11.13 25.139,11.13 C24.975,11.13 24.73,11.218 24.586,11.327 L23.809,11.922 L22.504,12.903 C22.361,13.012 22.113,13.162 21.952,13.239 L21.563,13.425 C21.402,13.503 21.15,13.65 21.004,13.754 L19.748,14.638 C19.601,14.742 19.337,14.826 19.158,14.826 L18.893,14.826 C18.714,14.826 18.663,14.714 18.776,14.576 L19.274,13.978 C19.389,13.84 19.592,13.632 19.726,13.513 L21.026,12.368 L22.123,11.353 L23.403,10.297 L24.243,9.644 C24.385,9.534 24.642,9.415 24.818,9.377 L25.157,9.307 C25.332,9.271 25.619,9.237 25.799,9.233 L25.982,9.229 C26.162,9.225 26.242,9.351 26.162,9.511 L25.946,9.946 C25.865,10.107 25.937,10.241 26.106,10.246 C26.273,10.252 26.51,10.194 26.633,10.114 C26.755,10.036 26.9,10.111 26.955,10.281 L26.959,10.294 C27.013,10.464 26.973,10.72 26.867,10.865 L26.822,10.928 C26.717,11.073 26.529,11.292 26.4,11.417 L26.094,11.716 C25.965,11.841 25.817,12.081 25.762,12.252 L25.573,12.852 C25.519,13.022 25.61,13.107 25.777,13.04 L26.227,12.858 L26.841,12.598 C27.007,12.529 27.285,12.461 27.465,12.445 L27.813,12.417 C27.991,12.403 28.272,12.34 28.441,12.277 L29.131,12.018 C29.3,11.955 29.555,11.822 29.703,11.719 L30.817,10.949 L31.775,10.383 C31.93,10.291 32.147,10.104 32.259,9.965 L32.504,9.659 C32.614,9.519 32.576,9.343 32.414,9.264 L32.369,9.242 C32.208,9.164 32.149,8.996 32.238,8.868 C32.329,8.739 32.465,8.503 32.544,8.342 L32.848,7.72 C32.848,7.72 32.897,7.611 32.96,7.476 C33.023,7.342 33.184,7.324 33.325,7.436 L33.571,7.636 C33.711,7.749 33.949,7.766 34.103,7.673 L34.535,7.415 L34.83,7.225 C34.982,7.128 35.237,7.105 35.403,7.176 L36.145,7.491 C36.31,7.561 36.304,7.656 36.13,7.701 L35.62,7.839 C35.448,7.884 35.224,8.035 35.124,8.176 C35.023,8.317 35.05,8.526 35.185,8.644 C35.32,8.762 35.298,8.92 35.135,8.998 L34.829,9.144 C34.666,9.222 34.423,9.378 34.287,9.492 L33.419,10.218 L32.715,10.923 C32.588,11.049 32.357,11.222 32.2,11.309 L31.49,11.7 L30.094,12.636 C29.945,12.737 29.725,12.923 29.601,13.053 L29.356,13.312 C29.234,13.443 29.05,13.667 28.947,13.814 L28.565,14.361 L28.044,15.09 C27.939,15.237 27.821,15.496 27.781,15.672 L27.726,15.912 C27.685,16.087 27.779,16.3 27.936,16.388 L28.384,16.639 C28.54,16.726 28.772,16.695 28.901,16.571 L29.166,16.313 C29.294,16.188 29.486,15.971 29.596,15.827 L29.71,15.676 C29.819,15.532 30.044,15.37 30.214,15.314 L30.755,15.133 C30.926,15.076 31.189,14.959 31.346,14.87 L31.675,14.683 C31.831,14.594 32.102,14.522 32.282,14.522 L33.175,14.522 C33.355,14.522 33.628,14.452 33.785,14.366 L34.577,13.928 C34.733,13.842 35.006,13.783 35.184,13.798 L35.998,13.867 C36.178,13.881 36.451,13.825 36.61,13.741 L37.03,13.518 C37.189,13.434 37.419,13.262 37.544,13.133 L37.883,12.786 C38.008,12.658 38.238,12.486 38.398,12.403 L39.263,11.953 C39.422,11.869 39.63,11.68 39.726,11.53 L40.106,10.94 C40.202,10.789 40.385,10.564 40.512,10.437 L40.966,9.982 C41.094,9.855 41.155,9.613 41.105,9.44 L40.871,8.655 L40.574,7.824 C40.515,7.655 40.601,7.57 40.769,7.632 L41.318,7.842 L42.603,8.386 C42.769,8.454 43.023,8.593 43.172,8.692 L43.302,8.778 C43.451,8.878 43.714,8.991 43.89,9.029 L44.615,9.193 C44.792,9.232 45.069,9.211 45.236,9.145 L45.769,8.936 C45.936,8.87 46.216,8.824 46.394,8.833 L46.985,8.862 C47.164,8.87 47.435,8.807 47.591,8.718 L48.245,8.348 C48.399,8.259 48.665,8.142 48.836,8.084 L49.315,7.924 C49.486,7.867 49.768,7.819 49.948,7.816 L50.537,7.806 C50.716,7.805 50.886,7.658 50.915,7.481 L50.95,7.269 C50.98,7.092 51.126,6.869 51.275,6.769 L51.504,6.619 C51.655,6.52 51.921,6.455 52.1,6.474 L52.814,6.549 C52.993,6.568 53.243,6.482 53.373,6.359 L53.735,6.015 C53.865,5.891 53.844,5.718 53.689,5.628 L53.093,5.284 C52.938,5.194 52.747,4.991 52.666,4.831 L52.523,4.55 C52.443,4.389 52.52,4.291 52.695,4.331 L54.579,4.757 C54.755,4.796 55.028,4.887 55.193,4.96 L55.777,5.222 C55.941,5.296 56.181,5.453 56.315,5.574 L56.462,5.707 C56.595,5.827 56.673,6.067 56.636,6.243 L56.587,6.48 C56.55,6.656 56.38,6.761 56.205,6.716 L55.982,6.657 C55.807,6.612 55.525,6.607 55.349,6.647 L54.278,6.89 C54.102,6.93 54.072,7.054 54.212,7.169 L54.645,7.526 C54.785,7.64 55.028,7.793 55.193,7.865 L55.554,8.027 C55.717,8.1 55.912,8.291 55.988,8.454 L56.282,9.084 C56.357,9.246 56.532,9.47 56.671,9.584 L57.062,9.903 C57.201,10.017 57.393,10.231 57.492,10.382 L57.866,10.954 C57.965,11.105 58.149,11.328 58.277,11.454 L58.788,11.953 C58.916,12.079 58.878,12.153 58.701,12.118 L57.878,11.958 C57.7,11.924 57.415,11.923 57.238,11.956 L56.577,12.08 C56.401,12.113 56.393,12.192 56.562,12.255 L56.868,12.37 C57.035,12.434 57.19,12.585 57.213,12.709 C57.234,12.832 57.112,12.966 56.937,13.008 L56.554,13.099 C56.379,13.141 56.123,13.266 55.983,13.377 L55.519,13.746 C55.378,13.856 55.305,14.087 55.356,14.259 L55.436,14.53 C55.487,14.702 55.381,14.848 55.202,14.855 L54.939,14.868 C54.759,14.875 54.542,15.009 54.451,15.163 L54.33,15.372 C54.24,15.527 54.141,15.796 54.108,15.973 L54.085,16.085 C54.053,16.261 53.886,16.363 53.714,16.312 L53.24,16.171 C53.067,16.12 52.827,15.975 52.702,15.846 L52.445,15.58 C52.318,15.452 52.362,15.327 52.539,15.302 L53.176,15.211 C53.354,15.186 53.506,15.019 53.516,14.84 L53.52,14.798 C53.53,14.619 53.413,14.402 53.256,14.312 L52.865,14.087 C52.711,13.997 52.443,13.889 52.268,13.844 L51.72,13.702 C51.546,13.657 51.259,13.623 51.079,13.627 L50.715,13.634 C50.535,13.638 50.248,13.603 50.076,13.555 L49.728,13.462 C49.554,13.415 49.275,13.42 49.103,13.471 L47.938,13.83 C47.766,13.883 47.527,14.03 47.404,14.162 L46.795,14.806 C46.671,14.936 46.55,15.186 46.522,15.364 L46.5,15.513 C46.473,15.691 46.357,15.947 46.243,16.084 L45.846,16.56 C45.731,16.698 45.561,16.933 45.464,17.084 L45.285,17.367 C45.187,17.518 44.981,17.708 44.821,17.79 L44.526,17.94 C44.367,18.023 44.178,18.221 44.106,18.384 L43.964,18.704 C43.89,18.868 43.826,19.147 43.821,19.326 L43.801,19.895 C43.796,20.075 43.93,20.263 44.1,20.316 L44.393,20.407 C44.565,20.461 44.843,20.462 45.015,20.409 L45.531,20.253 C45.702,20.202 45.923,20.277 46.025,20.423 C46.126,20.569 46.256,20.823 46.317,20.992 L46.441,21.335 C46.503,21.504 46.668,21.729 46.81,21.838 L46.985,21.971 C47.128,22.08 47.371,22.101 47.529,22.015 C47.833,21.85 48.272,21.598 48.298,21.519 C48.324,21.442 48.247,21.036 48.186,20.74 C48.149,20.565 48.188,20.296 48.277,20.14 L48.443,19.851 C48.532,19.695 48.548,19.435 48.482,19.268 L48.298,18.814 C48.232,18.649 48.184,18.368 48.192,18.189 C48.204,17.913 48.217,17.556 48.217,17.52 C48.217,17.479 48.543,17.013 48.761,16.707 C48.865,16.561 49.085,16.401 49.253,16.352 C49.422,16.301 49.609,16.396 49.673,16.564 L49.728,16.707 C49.791,16.876 49.748,17.121 49.629,17.256 L49.508,17.396 C49.39,17.531 49.307,17.786 49.323,17.964 L49.324,17.987 C49.342,18.167 49.484,18.377 49.644,18.457 L49.876,18.573 C50.036,18.653 50.312,18.722 50.49,18.725 L50.612,18.729 C50.791,18.734 51.081,18.719 51.258,18.695 L51.529,18.659 C51.707,18.637 51.957,18.717 52.085,18.842 L52.146,18.899 C52.276,19.023 52.388,19.22 52.401,19.338 C52.412,19.456 52.289,19.551 52.127,19.551 L51.833,19.551 L51.2,19.551 C51.02,19.551 50.919,19.69 50.973,19.861 L50.982,19.89 C51.035,20.062 51.078,20.346 51.078,20.526 L51.078,20.85 C51.078,21.03 50.947,21.113 50.785,21.037 L50.681,20.988 C50.519,20.913 50.319,20.923 50.236,21.013 C50.152,21.102 50.118,21.317 50.161,21.491 L50.229,21.773 C50.271,21.948 50.24,22.219 50.158,22.377 L49.908,22.856 C49.826,23.015 49.63,23.075 49.472,22.99 L49.292,22.894 C49.134,22.808 48.878,22.808 48.72,22.893 L48.034,23.257 C47.876,23.341 47.613,23.354 47.446,23.285 L46.813,23.023 L46.33,22.862 C46.159,22.805 46.014,22.614 46.005,22.435 L45.998,22.312 C45.99,22.132 45.99,21.846 46.001,21.672 C46.013,21.499 45.88,21.322 45.706,21.279 L45.606,21.254 C45.432,21.21 45.253,21.316 45.207,21.489 L45.089,21.937 C45.044,22.11 45.009,22.396 45.012,22.575 L45.02,22.982 C45.023,23.161 44.885,23.339 44.708,23.379 L43.921,23.56 C43.746,23.6 43.541,23.763 43.464,23.925 L43.236,24.394 C43.159,24.556 42.999,24.797 42.881,24.931 L42.559,25.296 C42.44,25.431 42.206,25.587 42.035,25.644 L40.964,26.008 L39.888,26.374 L38.879,26.667 C38.707,26.719 38.658,26.873 38.77,27.013 L39.665,28.13 C39.775,28.27 39.846,28.527 39.82,28.705 L39.691,29.565 C39.665,29.743 39.498,29.88 39.319,29.874 L38.892,29.858 C38.712,29.851 38.423,29.819 38.248,29.787 L36.922,29.541 C36.922,29.541 36.814,29.513 36.678,29.48 C36.544,29.446 36.357,29.541 36.258,29.693 L35.901,30.243 C35.802,30.394 35.758,30.658 35.8,30.832 L35.911,31.297 C35.953,31.472 35.865,31.69 35.712,31.785 L35.613,31.847 C35.461,31.943 35.257,32.14 35.155,32.289 L34.971,32.562 C34.869,32.711 34.907,32.899 35.052,32.983 C35.198,33.067 35.307,33.28 35.294,33.46 L35.277,33.747 C35.265,33.925 35.389,34.126 35.555,34.197 L35.972,34.371 C36.137,34.44 36.396,34.572 36.55,34.663 L36.845,34.838 C36.998,34.929 37.265,34.972 37.441,34.932 L37.701,34.873 C37.875,34.832 38.139,34.88 38.29,34.978 L38.334,35.008 C38.485,35.106 38.714,35.089 38.847,34.968 L39.439,34.435 L39.883,33.978 C40.008,33.849 40.051,33.611 39.983,33.445 C39.864,33.157 39.704,32.76 39.704,32.709 C39.704,32.66 39.992,32.463 40.221,32.314 C40.372,32.217 40.637,32.101 40.808,32.053 L41.198,31.944 C41.37,31.895 41.604,31.744 41.719,31.608 L41.849,31.455 C41.964,31.318 42.062,31.061 42.066,30.881 L42.071,30.698 C42.075,30.519 42.211,30.329 42.374,30.273 C42.536,30.217 42.797,30.238 42.957,30.319 L43.374,30.532 C43.533,30.613 43.787,30.602 43.938,30.507 L44.414,30.212 L45.28,29.787 C45.44,29.708 45.635,29.774 45.717,29.934 L45.833,30.164 C45.912,30.326 46.109,30.519 46.271,30.598 L46.437,30.68 C46.599,30.758 46.839,30.917 46.974,31.036 L47.4,31.411 L47.97,31.828 C48.116,31.933 48.36,32.091 48.515,32.18 L48.701,32.287 C48.857,32.374 48.978,32.592 48.971,32.771 L48.958,33.097 C48.949,33.276 48.807,33.472 48.638,33.533 L48.417,33.614 C48.248,33.675 47.983,33.797 47.828,33.885 L47.42,34.115 C47.263,34.203 47.271,34.331 47.435,34.404 L47.732,34.532 C47.897,34.603 48.172,34.689 48.349,34.723 L48.543,34.761 C48.72,34.796 48.945,34.703 49.046,34.555 L49.35,34.112 L49.959,33.341 L50.329,32.932 C50.449,32.799 50.475,32.565 50.385,32.41 L50.264,32.201 C50.174,32.046 49.976,31.847 49.819,31.759 L49.531,31.594 C49.376,31.504 49.105,31.421 48.926,31.404 L48.903,31.402 C48.724,31.386 48.499,31.253 48.398,31.104 L48.294,30.952 C48.193,30.802 48.004,30.585 47.872,30.463 L47.438,30.069 C47.305,29.948 47.19,29.704 47.179,29.527 L47.156,29.139 C47.146,28.96 47.246,28.86 47.381,28.916 C47.516,28.973 47.736,29.108 47.878,29.222 L48.903,30.053 L49.465,30.422 C49.614,30.521 49.871,30.654 50.039,30.719 L50.673,30.969 C50.839,31.035 50.966,31.22 50.955,31.382 C50.943,31.545 50.974,31.817 51.022,31.99 L51.09,32.237 C51.138,32.41 51.278,32.656 51.402,32.786 L51.685,33.086 C51.81,33.216 51.99,33.443 52.089,33.592 L52.297,33.904 C52.397,34.053 52.62,34.199 52.797,34.231 L52.969,34.261 C53.147,34.292 53.312,34.185 53.34,34.022 C53.368,33.86 53.536,33.719 53.716,33.709 L53.778,33.705 C53.958,33.695 53.989,33.597 53.848,33.484 L53.749,33.4 C53.608,33.287 53.454,33.092 53.404,32.963 C53.353,32.834 53.253,32.633 53.181,32.516 C53.106,32.398 53.112,32.194 53.191,32.059 C53.269,31.925 53.466,31.759 53.63,31.688 L53.745,31.639 C53.909,31.569 54.156,31.511 54.297,31.511 C54.438,31.511 54.641,31.625 54.751,31.765 L54.815,31.846 C54.927,31.987 55.04,32.237 55.068,32.406 C55.096,32.573 55.185,32.84 55.267,32.998 L55.334,33.132 C55.417,33.292 55.572,33.536 55.683,33.679 L55.834,33.874 C55.942,34.016 56.17,34.181 56.337,34.242 L56.457,34.285 C56.626,34.346 56.821,34.468 56.895,34.557 C56.968,34.646 57.16,34.659 57.321,34.581 L57.383,34.553 C57.545,34.477 57.704,34.319 57.738,34.202 C57.771,34.084 57.894,34.006 58.011,34.03 L58.225,34.07 L58.662,34.161 C58.904,34.212 59.269,34.116 59.479,33.949 L59.53,33.908 C59.74,33.74 60.079,33.602 60.287,33.602 C60.494,33.602 60.672,33.708 60.683,33.836 C60.695,33.965 60.704,34.07 60.704,34.07 L60.784,34.923 L60.93,35.74 C60.961,35.917 60.944,36.199 60.891,36.371 L60.662,37.117 L60.492,37.564 C60.428,37.732 60.235,37.834 60.061,37.792 L59.352,37.62 C59.178,37.578 58.91,37.614 58.754,37.703 L58.243,37.993 C58.086,38.081 57.814,38.153 57.635,38.153 L57.046,38.153 L55.402,38.032 L54.445,37.925 C54.266,37.906 54.085,37.813 54.041,37.718 C53.996,37.622 53.814,37.534 53.636,37.521 L53.45,37.507 C53.271,37.494 52.987,37.522 52.812,37.569 L52.466,37.664 C52.291,37.71 52.119,37.891 52.08,38.065 L52.059,38.162 C52.02,38.337 52.068,38.601 52.163,38.752 L52.178,38.774 C52.276,38.925 52.215,39.09 52.042,39.143 L51.811,39.215 C51.64,39.268 51.378,39.233 51.226,39.138 L51.165,39.099 C51.014,39.002 50.746,38.901 50.571,38.872 L49.872,38.755 C49.694,38.725 49.479,38.574 49.393,38.417 L49.382,38.397 C49.296,38.24 49.091,38.06 48.924,37.995 L48.594,37.865 C48.426,37.8 48.148,37.724 47.97,37.698 L47.171,37.573 C46.993,37.547 46.733,37.436 46.589,37.329 L46.237,37.067 C46.092,36.96 46.064,36.757 46.174,36.615 L46.51,36.177 C46.619,36.035 46.649,35.832 46.574,35.726 C46.503,35.62 46.503,35.419 46.574,35.279 C46.648,35.139 46.577,34.962 46.414,34.883 L46.208,34.782 C46.045,34.703 45.773,34.67 45.597,34.708 L44.913,34.855 C44.738,34.894 44.45,34.923 44.27,34.923 L43.052,34.923 L41.772,34.923 C41.592,34.923 41.31,34.971 41.14,35.029 L39.741,35.511 L38.81,35.833 C38.639,35.891 38.357,35.919 38.18,35.896 L37.587,35.818 C37.409,35.794 37.126,35.731 36.956,35.674 L36.76,35.611 C36.59,35.556 36.354,35.62 36.236,35.754 L35.549,36.527 C35.431,36.661 35.2,36.827 35.035,36.898 L34.638,37.068 C34.473,37.139 34.243,37.305 34.125,37.441 L33.7,37.927 C33.582,38.062 33.488,38.317 33.488,38.496 L33.488,38.903 C33.488,39.082 33.373,39.319 33.235,39.433 L32.562,39.978 C32.423,40.09 32.167,40.202 31.988,40.226 L31.738,40.262 C31.559,40.285 31.335,40.426 31.237,40.575 L31.027,40.888 C30.929,41.037 30.725,41.238 30.575,41.334 L30.147,41.612 C29.995,41.708 29.831,41.926 29.777,42.098 L29.686,42.39 C29.632,42.562 29.49,42.808 29.369,42.94 L28.632,43.741 C28.511,43.873 28.349,44.112 28.274,44.275 L28.127,44.6 C28.051,44.762 28.057,45.023 28.141,45.182 L28.285,45.46 C28.369,45.618 28.378,45.875 28.304,46.031 C28.232,46.189 28.197,46.46 28.227,46.636 L28.261,46.827 C28.29,47.005 28.277,47.289 28.231,47.463 L28.053,48.134 C28.008,48.307 27.906,48.579 27.828,48.74 L27.501,49.414 C27.424,49.576 27.431,49.835 27.518,49.99 L27.528,50.011 C27.616,50.168 27.64,50.435 27.584,50.605 L27.463,50.976 C27.406,51.146 27.454,51.396 27.57,51.533 L28.885,53.094 C29,53.232 29.163,53.471 29.247,53.629 L30.077,55.169 C30.161,55.327 30.337,55.554 30.469,55.677 L31.619,56.748 C31.749,56.872 31.979,57.046 32.132,57.141 L33.258,57.83 C33.411,57.923 33.677,57.968 33.851,57.926 L35.113,57.639 C35.287,57.599 35.572,57.594 35.747,57.63 L37.277,57.935 C37.453,57.971 37.723,57.929 37.88,57.842 L38.774,57.343 C38.931,57.256 39.2,57.155 39.376,57.116 L40.743,56.821 C40.919,56.782 41.173,56.845 41.311,56.96 L41.785,57.356 C41.925,57.471 42.133,57.672 42.252,57.804 L42.793,58.407 C42.913,58.539 43.153,58.617 43.328,58.579 L44.21,58.391 C44.384,58.353 44.67,58.345 44.847,58.373 L45.234,58.435 C45.411,58.463 45.665,58.581 45.8,58.699 L46.177,59.029 C46.312,59.148 46.393,59.386 46.358,59.561 L46.27,60.008 C46.235,60.184 46.132,60.453 46.045,60.608 L45.717,61.182 C45.628,61.337 45.458,61.536 45.339,61.626 C45.219,61.715 45.216,61.899 45.333,62.035 L46.483,63.383 C46.598,63.519 46.8,63.728 46.933,63.849 L47.753,64.601 C47.885,64.722 47.992,64.967 47.992,65.146 L47.992,66.013 C47.992,66.193 48.052,66.47 48.124,66.634 L48.294,67.015 C48.366,67.179 48.514,67.428 48.623,67.57 L48.769,67.758 C48.877,67.901 48.931,68.157 48.888,68.331 L48.774,68.782 C48.731,68.957 48.609,69.216 48.501,69.358 L48.242,69.706 C48.134,69.848 47.99,70.099 47.92,70.265 L47.468,71.344 C47.398,71.51 47.342,71.789 47.342,71.969 L47.342,72.618 C47.342,72.798 47.432,73.057 47.542,73.2 L48.48,74.406 L49.13,75.136 C49.249,75.271 49.345,75.525 49.345,75.704 L49.345,76.841 C49.345,77.021 49.46,77.257 49.6,77.368 L49.906,77.613 C50.047,77.725 50.223,77.946 50.303,78.106 L50.826,79.148 C50.905,79.311 50.97,79.585 50.97,79.765 L50.97,80.089 C50.97,80.27 51.116,80.414 51.295,80.414 L51.892,80.414 C52.071,80.414 52.355,80.373 52.528,80.324 L53.583,80.017 C53.756,79.967 54.04,79.913 54.22,79.897 L55.901,79.741 C56.08,79.722 56.353,79.641 56.509,79.555 L57.346,79.105 C57.505,79.021 57.747,78.864 57.892,78.755 L58.944,77.956 C59.088,77.848 59.291,77.644 59.4,77.502 L60.251,76.395 C60.36,76.251 60.561,76.042 60.697,75.928 L61.553,75.208 C61.691,75.092 61.88,74.875 61.975,74.724 L62.55,73.813 C62.645,73.661 62.752,73.395 62.789,73.218 L62.981,72.285 C63.017,72.109 63.159,71.875 63.298,71.761 L64.583,70.71 C64.721,70.596 64.96,70.434 65.116,70.346 L66.012,69.851 C66.167,69.763 66.335,69.552 66.383,69.38 L66.696,68.273 C66.743,68.1 66.788,67.815 66.793,67.634 L66.829,66.28 C66.833,66.1 66.818,65.811 66.793,65.633 C66.745,65.28 66.675,64.744 66.675,64.603 C66.675,64.386 66.784,62.599 66.784,62.437 C66.784,62.321 67.204,61.531 67.439,61.096 C67.525,60.939 67.689,60.7 67.803,60.563 C68.142,60.156 68.79,59.371 68.949,59.134 C69.166,58.808 70.52,56.968 70.52,56.968 L71.405,55.816 C71.513,55.674 71.659,55.424 71.724,55.258 L72.184,54.127 C72.251,53.96 72.332,53.683 72.367,53.507 L72.848,50.903 L73.097,49.274 C73.124,49.097 73.008,48.998 72.837,49.054 L71.803,49.392 C71.632,49.449 71.365,49.563 71.208,49.647 L70.156,50.208 C69.998,50.293 69.731,50.404 69.558,50.458 L69.312,50.535 C69.142,50.588 68.886,50.545 68.743,50.436 L68.613,50.338 C68.468,50.23 68.275,50.022 68.178,49.869 L67.769,49.226 C67.671,49.076 67.449,48.952 67.27,48.952 L67.162,48.952 C66.981,48.952 66.748,48.837 66.64,48.695 L66.285,48.235 C66.176,48.092 66.011,47.852 65.917,47.699 L65.598,47.172 C65.505,47.02 65.323,46.799 65.185,46.682 C64.9,46.437 64.456,46.065 64.347,46.028 C64.258,45.999 64.121,45.792 64.016,45.61 C63.925,45.456 63.816,45.187 63.761,45.016 L63.608,44.541 C63.552,44.37 63.438,44.104 63.35,43.947 L63.099,43.497 C63.01,43.34 62.834,43.112 62.704,42.989 L62.037,42.355 C61.906,42.23 61.741,41.998 61.665,41.835 L60.909,40.205 C60.834,40.041 60.916,39.932 61.094,39.958 L61.535,40.024 C61.713,40.05 61.95,40.184 62.065,40.32 L63.297,41.774 C63.412,41.911 63.63,42.098 63.782,42.193 L64.719,42.771 C64.873,42.866 64.995,43.087 64.995,43.267 L64.995,43.907 C64.995,44.087 65.111,44.321 65.254,44.429 L66.093,45.073 C66.235,45.182 66.429,45.393 66.527,45.544 L67.542,47.113 L68.496,48.676 C68.589,48.829 68.804,48.906 68.972,48.849 L70.087,48.465 L71.838,47.867 C72.007,47.809 72.234,47.646 72.347,47.507 L73.406,46.176 C73.517,46.035 73.711,45.818 73.838,45.691 L75.057,44.462 C75.184,44.334 75.296,44.086 75.309,43.906 C75.364,43.093 75.504,41.015 75.504,40.885 C75.504,40.768 75.53,39.944 75.546,39.476 C75.553,39.297 75.423,39.094 75.258,39.022 L74.718,38.791 C74.554,38.72 74.356,38.772 74.276,38.906 C74.195,39.041 74.002,39.08 73.845,38.995 L73.714,38.924 C73.557,38.838 73.332,38.66 73.213,38.525 L73.167,38.473 C73.048,38.338 72.892,38.363 72.819,38.526 L72.757,38.664 C72.686,38.829 72.551,39.085 72.458,39.24 L72.366,39.393 C72.273,39.547 72.056,39.7 71.88,39.735 L71.654,39.78 C71.478,39.816 71.363,39.701 71.396,39.524 L71.436,39.32 C71.47,39.144 71.354,38.978 71.176,38.948 L71.027,38.923 C70.85,38.894 70.58,38.932 70.423,39.01 C70.267,39.087 70.047,39.038 69.934,38.9 L68.871,37.614 C68.757,37.475 68.664,37.218 68.664,37.038 L68.664,36.389 C68.664,36.21 68.799,36.118 68.966,36.187 L69.044,36.218 C69.21,36.287 69.43,36.459 69.537,36.604 L69.712,36.841 C69.816,36.985 70.023,37.186 70.171,37.288 L70.466,37.49 L70.787,37.699 C70.938,37.796 71.202,37.908 71.378,37.949 L71.658,38.015 C71.833,38.056 72.092,38.004 72.237,37.897 L72.26,37.88 C72.405,37.775 72.667,37.679 72.847,37.666 L74.526,37.55 C74.705,37.536 74.98,37.457 75.135,37.371 L76.352,36.708 C76.51,36.622 76.747,36.649 76.879,36.769 L77.424,37.257 C77.558,37.377 77.811,37.454 77.988,37.427 C78.461,37.354 79.291,37.211 79.291,37.094 C79.291,36.984 79.7,36.436 79.957,36.105 C80.065,35.964 80.193,35.991 80.238,36.165 L80.563,37.431 C80.608,37.605 80.699,37.881 80.765,38.048 L81.39,39.611 C81.455,39.777 81.584,40.038 81.674,40.193 L82.862,42.231 C82.953,42.386 83.071,42.651 83.125,42.821 L83.74,44.748 C83.795,44.918 83.95,45.15 84.087,45.267 L84.619,45.716 C84.757,45.831 84.842,45.781 84.81,45.605 C84.637,44.617 84.136,41.673 84.271,41.539 C84.389,41.42 83.849,40.643 83.544,40.228 C83.44,40.084 83.366,39.824 83.388,39.645 C83.483,38.81 83.73,36.633 83.73,36.502 C83.73,36.378 83.324,35.128 83.128,34.536 C83.071,34.366 83.065,34.087 83.118,33.915 L83.474,32.698 C83.524,32.526 83.644,32.509 83.74,32.661 L85.342,35.199 C85.439,35.35 85.536,35.468 85.563,35.461 C85.587,35.454 85.641,35.591 85.68,35.765 C86.356,38.737 86.712,41.829 86.712,45.002 C86.715,68.002 68.002,86.715 45,86.715 Z"/></g></g></svg>