<svg xmlns="http://www.w3.org/2000/svg" xmlns:xlink="http://www.w3.org/1999/xlink" width="42" height="37" version="1.1" viewBox="0 0 42 37"><title>add picture_2467220</title><defs><filter id="filter-1"><feColorMatrix in="SourceGraphic" type="matrix" values="0 0 0 0 0.780392 0 0 0 0 0.784314 0 0 0 0 0.847059 0 0 0 1.000000 0"/></filter></defs><g id="berty" fill="none" fill-rule="evenodd" stroke="none" stroke-width="1"><g id="add-picture_2467220" filter="url(#filter-1)" transform="translate(-53.000000, -575.000000)"><g id="Group" fill="currentColor" fill-rule="nonzero" transform="translate(53.000000, 575.000000)"><path id="Path" d="M37.142,4.96653846 L14.868,4.96653846 C14.0948014,4.96653846 13.468,5.6036717 13.468,6.38961538 C13.468,7.17555907 14.0948014,7.81269231 14.868,7.81269231 L37.142,7.81269231 C37.94,7.81269231 38.542,8.70923077 38.542,9.77653846 L38.542,27.4653846 L33.81,21.7730769 C33.1200383,20.9245036 32.0930314,20.4338539 31.01,20.4353846 L31.01,20.4353846 C29.929273,20.4303424 28.9026626,20.9155851 28.21,21.7588462 L23.24,27.8353846 L18.2,21.8015385 C17.5049105,20.9614937 16.4798714,20.4769937 15.4,20.4780769 L15.4,20.4780769 C14.3155456,20.484035 13.2897238,20.9793322 12.6,21.83 L7.63,27.9919231 L7.63,15.8815385 C7.63,15.0955948 7.00319865,14.4584615 6.23,14.4584615 L6.23,14.4584615 C5.45680135,14.4584615 4.83,15.0955948 4.83,15.8815385 L4.83,31.5353846 C4.83,31.7346154 4.83,31.9338462 4.83,32.1615385 C4.86880914,32.4365146 4.92967873,32.7078036 5.012,32.9726923 C5.012,33.0438462 5.012,33.1292308 5.012,33.2003846 L5.012,33.2003846 L5.082,33.3711538 C5.17831411,33.6272431 5.29538303,33.8747603 5.432,34.1111538 L5.6,34.3815385 C5.72640815,34.5722849 5.86680738,34.7530554 6.02,34.9223077 L6.23,35.1357692 C6.45112915,35.3482895 6.69537281,35.5344917 6.958,35.6907692 L7,35.6907692 C7.60910813,36.0756999 8.31278012,36.277949 9.03,36.2742811 L37.03,36.2742811 C38.2686418,36.2613915 39.4337551,35.6744726 40.194,34.6803846 C40.5709868,34.2058611 40.8603216,33.6658669 41.048,33.0865385 C41.160692,32.6970574 41.2311112,32.2962095 41.258,31.8911538 C41.258,31.7488462 41.258,31.6065385 41.258,31.45 L41.258,31.45 L41.258,9.77653846 C41.3803942,7.30945713 39.5626202,5.18518762 37.142,4.96653846 Z"/><ellipse id="Oval" cx="21.854" cy="14.33" rx="2.8" ry="2.846"/><path id="Path" d="M6.174,12.1103846 L6.174,12.1103846 C6.94719865,12.1103846 7.574,11.4732514 7.574,10.6873077 L7.574,7.84115385 L10.374,7.84115385 C11.1471986,7.84115385 11.774,7.20402061 11.774,6.41807692 C11.774,5.63213324 11.1471986,4.995 10.374,4.995 L7.574,4.995 L7.574,2.14884615 C7.574,1.36290247 6.94719865,0.725769231 6.174,0.725769231 L6.174,0.725769231 C5.40080135,0.725769231 4.774,1.36290247 4.774,2.14884615 L4.774,4.995 L1.974,4.995 C1.20080135,4.995 0.574,5.63213324 0.574,6.41807692 C0.574,7.20402061 1.20080135,7.84115385 1.974,7.84115385 L4.774,7.84115385 L4.774,10.6873077 C4.774,11.4732514 5.40080135,12.1103846 6.174,12.1103846 Z"/></g></g></g></svg>