<svg xmlns="http://www.w3.org/2000/svg" xmlns:xlink="http://www.w3.org/1999/xlink" width="20" height="24" version="1.1" viewBox="0 0 20 24"><title>Path</title><desc>Created with Sketch.</desc><defs><path id="path-1" d="M18,10.9874858 L18,18.996587 C18,20.698521 16.7,22 15,22 L3,22 C1.3,22 0,20.698521 0,18.996587 L0,10.9874858 C0,10.3868032 0.4,9.98634812 1,9.98634812 C1.6,9.98634812 2,10.3868032 2,10.9874858 L2,18.996587 C2,19.5972696 2.4,19.9977247 3,19.9977247 L15,19.9977247 C15.6,19.9977247 16,19.5972696 16,18.996587 L16,10.9874858 C16,10.3868032 16.4,9.98634812 17,9.98634812 C17.6,9.98634812 18,10.3868032 18,10.9874858 Z M5.7,5.6814562 L8,3.37883959 L8,13.9908987 C8,14.5915813 8.4,14.9920364 9,14.9920364 C9.6,14.9920364 10,14.5915813 10,13.9908987 L10,3.37883959 L12.3,5.6814562 C12.5,5.88168373 12.7,5.9817975 13,5.9817975 C13.3,5.9817975 13.5,5.88168373 13.7,5.6814562 C14.1,5.28100114 14.1,4.68031854 13.7,4.27986348 L9.7,0.275312856 C9.6,0.17519909 9.5,0.0750853242 9.4,0.0750853242 C9.2,-0.0250284414 8.9,-0.0250284414 8.6,0.0750853242 C8.5,0.17519909 8.4,0.17519909 8.3,0.275312856 L4.3,4.27986348 C3.9,4.68031854 3.9,5.28100114 4.3,5.6814562 C4.7,6.08191126 5.3,6.08191126 5.7,5.6814562 Z"/></defs><g id="Symbols" fill="none" fill-rule="evenodd" stroke="none" stroke-width="1"><g id="button/circle/share" transform="translate(-17.000000, -15.000000)"><g id="button/circle/plus"><g id="button"><g id="icon-/-share" transform="translate(18.000000, 16.000000)"><mask id="mask-2" fill="currentColor"><use xlink:href="#path-1"/></mask><use id="Mask" fill="currentColor" fill-rule="nonzero" stroke="currentColor" stroke-width=".5" xlink:href="#path-1"/></g></g></g></g></g></svg>