<?xml version="1.0" encoding="UTF-8"?>
<svg width="5494px" height="5494px" viewBox="0 0 5494 5494" version="1.1" xmlns="http://www.w3.org/2000/svg" xmlns:xlink="http://www.w3.org/1999/xlink">
    <!-- Generator: Sketch 51.2 (57519) - http://www.bohemiancoding.com/sketch -->
    <title>RGB_berty_logotype</title>
    <desc>Created with Sketch.</desc>
    <defs></defs>
    <g id="Page-1" stroke="none" stroke-width="1" fill="none" fill-rule="evenodd">
        <g id="RGB_berty_logotype" fill-rule="nonzero">
            <g id="Group" transform="translate(467.000000, 3292.000000)" fill="#E94E6B">
                <path d="M400.212726,498.324252 C351.393066,498.324252 314.832565,506.52645 288.469948,516.629819 L288.469948,0 L0,0 L0,1379.27288 C81.3118564,1430.11564 209.27361,1476.93879 365.659256,1476.93879 C680.600309,1476.93879 904.031621,1289.75486 904.031621,972.367826 C903.977376,689.582121 668.341149,498.324252 400.212726,498.324252 Z M386.000781,1218.48808 C345.371975,1218.48808 312.879778,1210.39452 288.469948,1200.18251 L288.469948,781.164276 C310.818504,766.932648 357.522646,754.656511 398.151452,754.656511 C511.955504,754.656511 617.568703,846.238666 617.568703,982.525515 C617.568703,1122.94062 528.17448,1218.48808 386.000781,1218.48808 Z" id="Shape"></path>
                <path d="M2368.7018,671.765434 L2360.60931,527.410382 L2086.00791,527.410382 L2086.00791,1448.48139 L2382.93154,1448.48139 L2382.93154,1084.52642 C2382.93154,862.917799 2529.35665,769.377462 2688.00197,769.377462 C2702.23171,769.377462 2708.36896,769.377462 2712.44236,769.377462 L2714.94071,531.373495 C2564.38788,531.319206 2425.67507,555.857936 2368.7018,671.765434 Z" id="Shape"></path>
                <path d="M3240.23551,240.939275 L2955.68843,348.766806 L2955.68843,527.755075 L2846.79842,527.755075 L2848.75258,771.928754 L2949.55455,771.928754 L2949.55455,1148.26585 C2949.55455,1333.39241 3087.75693,1465.55583 3291.04361,1465.55583 C3350.04832,1465.55583 3400.85642,1457.46197 3431.30871,1443.1755 L3453.67296,1199.11047 C3427.29183,1209.32285 3396.78526,1213.34262 3358.13636,1213.34262 C3290.98933,1213.34262 3244.30667,1174.66594 3244.30667,1105.51508 L3244.30667,771.928754 L3506.48951,771.928754 L3528.85375,527.755075 L3240.18123,527.755075 L3240.18123,240.939275 L3240.23551,240.939275 Z" id="Shape"></path>
                <path d="M4279.15217,527.464693 L4140.82008,889.502313 C4120.44516,944.410809 4102.1349,1001.38313 4085.8893,1066.44779 L4081.75999,1066.44779 C4063.44973,999.373616 4045.13947,940.337479 4024.81889,887.492803 L3888.44279,527.410382 L3593.35968,527.410382 L3937.23392,1402.03592 C3849.75762,1613.63186 3760.27099,1696.99936 3617.80958,1743.81551 L3739.89607,1937 C3961.68382,1882.0915 4112.29519,1692.98034 4236.39201,1369.50359 L4560,527.410382 L4279.15217,527.410382 L4279.15217,527.464693 Z" id="Shape"></path>
                <path d="M1505.33033,498.952987 C1247.12361,498.952987 1025.45455,684.143571 1025.45455,983.33939 C1025.45455,1284.49145 1263.35653,1477.88737 1564.29006,1477.88737 C1686.28134,1477.88737 1775.80676,1455.4993 1838.78401,1424.96024 L1865.27788,1178.69155 C1785.95912,1225.47825 1704.57732,1249.93123 1598.87326,1249.93123 C1436.21823,1249.93123 1350.76461,1156.30348 1328.45112,1074.84788 L1727.32513,1075.98902 C1727.32513,1075.98902 1893.34619,1075.98902 1911.75075,956.00639 C1911.75075,956.00639 1918.10277,895.254315 1918.10277,865.312997 C1918.10277,676.046917 1761.52829,498.952987 1505.33033,498.952987 Z M1643.60882,883.679904 L1318.29876,883.679904 C1338.65778,790.052153 1415.91349,724.952881 1505.38462,724.952881 C1590.83823,724.952881 1645.67187,790.052153 1645.67187,863.302419 C1645.67187,871.399073 1645.67187,877.539488 1643.60882,883.679904 Z" id="Shape"></path>
            </g>
            <g id="Group" transform="translate(1240.000000, 313.000000)">
                <g transform="translate(241.904762, 406.955466)" id="Shape">
                    <path d="M1290.15873,804.709374 C1290.15873,795.03351 1290.34846,785.357646 1290.82278,775.776643 C1305.90626,441.105575 1589.07712,174.45014 1927.26947,173.691249 C1927.64893,111.177577 1920.62894,70.5768919 1920.62894,69.1539707 C1921.86218,69.1539707 1923.09542,69.0591093 1924.2338,69.0591093 C1734.21998,67.2567424 1546.48291,104.916724 1372.78581,177.77029 C1313.96975,202.434257 1256.86125,231.082404 1201.74491,263.619869 C1132.49374,304.505139 1066.56284,351.461538 1004.80598,404.489069 C984.220355,422.133292 964.109057,440.441545 944.472082,459.413827 L599.449486,268.457801 L409.340803,163.351355 L114.027264,0.0948614139 C-128.067227,435.508751 28.3645191,984.566615 463.223903,1227.12725 L35.8588235,2043.12513 C35.9536881,2043.12513 35.9536881,2043.21999 36.0485528,2043.21999 C216.196452,2137.51224 407.63324,2187.97851 598.216246,2199.0773 C1126.23268,2229.90726 1648.36751,1956.32694 1909.71951,1457.3559 L1919.77516,1435.82236 C1916.64463,1435.82236 1913.41923,1435.82236 1910.2887,1435.7275 C1566.8788,1429.84609 1290.15873,1149.62547 1290.15873,804.709374 Z" fill="#07539F"></path>
                    <path d="M1454.46424,1171.53846 C1358.46125,1066.05257 1297.65303,927.934351 1290.82278,775.776643 C1290.34846,785.357646 1290.15873,795.03351 1290.15873,804.709374 C1290.15873,1149.62547 1566.78394,1429.94095 1910.38357,1435.7275 C1914.08329,1435.82236 1917.68814,1435.82236 1921.38786,1435.82236 L1921.38786,1377.86204 C1736.40187,1377.9569 1569.91447,1298.36817 1454.46424,1171.53846 Z" fill="#F7B352"></path>
                    <path d="M1919.87003,173.596387 C1581.67768,174.355279 1306.00112,441.105575 1290.82278,775.776643 C1297.65303,927.934351 1358.46125,1066.05257 1454.46424,1171.53846 C1569.91447,1298.36817 1736.307,1377.9569 1921.38786,1377.9569 L1921.38786,173.501526 C1920.91354,173.501526 1920.43922,173.501526 1919.87003,173.596387 Z" fill="#FFFFFF"></path>
                </g>
                <g>
                    <path d="M355.932026,407.050327 L155.388235,295.493304 C-148.463119,841.98991 51.7960784,1534.28851 598.311111,1838.12962 L706.26704,1634.74675 C270.45901,1392.47069 113.647806,842.843662 355.932026,407.050327 Z" id="Shape" fill="#F7B352"></path>
                    <g transform="translate(2161.964519, 475.255684)" id="Shape">
                        <path d="M0.569187675,872.630146 L0.569187675,1367.23756 C0.7589169,1367.23756 1.04351074,1367.23756 1.23323996,1367.23756 C238.77423,1366.95297 437.04127,1199.14313 484.378711,975.649642 L0.569187675,872.630146 Z" fill="#F49A18"></path>
                        <path d="M597.552194,228.616007 C454.401494,98.6558704 268.18226,15.4624105 62.8952381,2.56125818 C43.3531279,1.51778262 23.8110177,0.853752725 4.26890756,0.664029897 C3.0356676,0.664029897 1.80242764,0.758891311 0.664052288,0.758891311 C0.664052288,3.98417938 0.664052288,872.630146 0.664052288,872.630146 L867.536881,1057.04073 C879.394958,999.554718 885.750887,940.076612 885.750887,879.080723 C885.561158,621.2474 774.474697,389.311243 597.552194,228.616007 Z" fill="#F7B352"></path>
                    </g>
                    <g id="Shape">
                        <g transform="translate(650.771242, 0.000000)">
                            <path d="M792.783567,670.480473 L577.061438,191.999502 C370.351447,285.248272 232.987488,469.089692 190.583007,675.413267 L535.700467,866.17957 C614.058637,790.385301 700.575163,724.930925 792.783567,670.480473 Z" fill="#074C84"></path>
                            <path d="M190.583007,675.413267 C233.082353,469.089692 370.351447,285.248272 577.061438,191.999502 L490.829505,0.758891311 C241.525303,113.169667 69.4408964,326.228402 0.37945845,570.211959 L190.583007,675.413267 Z" fill="#F7B352"></path>
                        </g>
                        <path d="M0.664052288,2978.45867 C287.155182,3128.81401 641.284781,3018.49019 791.645191,2732.00872 C813.084594,2691.12345 829.116713,2648.91012 840.121008,2606.03276 C649.443137,2594.93398 458.101214,2544.4677 277.953315,2450.17546 L0.664052288,2978.45867 Z" fill="#E94E6B"></path>
                    </g>
                    <ellipse id="Oval" fill="#000000" cx="1960.09262" cy="1172.20249" rx="113.078618" ry="113.074805"></ellipse>
                </g>
            </g>
        </g>
    </g>
</svg>