<?xml version="1.0" encoding="UTF-8"?>
<svg width="35px" height="35px" viewBox="0 0 35 35" version="1.1" xmlns="http://www.w3.org/2000/svg" xmlns:xlink="http://www.w3.org/1999/xlink">
    <title>Shape</title>
    <g id="berty" stroke="none" stroke-width="1" fill="none" fill-rule="evenodd">
        <g id="newsimplerUI/homeWithPlusandButtons-Activated-Copy" transform="translate(-309.000000, -53.000000)" fill="currentColor" fill-rule="nonzero">
            <path d="M326.499837,53 C316.834944,53 309,60.8349876 309,70.4999346 C309,80.1648816 316.834944,88 326.499837,88 C330.493516,88.0153922 334.369664,86.6492265 337.471034,84.1330214 C338.172515,83.5674662 338.829667,82.9490339 339.436728,82.2831461 C344.103524,77.1603356 345.307596,69.7661415 342.50721,63.4273597 C339.706823,57.0885779 333.429619,52.9995455 326.499837,53 Z M326.50002,60 C330.089866,60 333,63.1339996 333,66.9999534 C333,70.8659072 330.089866,74 326.50002,74 C322.910175,74 320,70.865946 320,66.9999534 C320,63.1339607 322.910183,60 326.50002,60 Z M337.643321,80.8882599 C337.120188,81.4842942 336.554248,82.0382686 335.950371,82.5454134 C330.428483,87.1545342 322.560154,87.1511949 317.041899,82.5373887 C315.86966,81.5536936 314.844529,80.3948683 314,79.098775 C314.82713,76.4225683 317.3859,74.1876562 320.822047,73 C322.28176,74.6492628 324.340534,75.5879486 326.498067,75.5879486 C328.655601,75.5879486 330.714374,74.6492628 332.174088,73 C335.60637,74.1916685 338.168986,76.4185239 339,79.0947386 C338.591184,79.7266304 338.137709,80.3261207 337.643321,80.8882599 Z" id="Shape"></path>
        </g>
    </g>
</svg>
