<?xml version="1.0" encoding="utf-8"?>
<!-- Generator: Adobe Illustrator 24.0.3, SVG Export Plug-In . SVG Version: 6.00 Build 0)  -->
<svg version="1.1" id="Layer_1" xmlns="http://www.w3.org/2000/svg" xmlns:xlink="http://www.w3.org/1999/xlink" x="0px" y="0px"
	 width="52px" height="53px" viewBox="0 0 52 53" style="enable-background:new 0 0 52 53;" xml:space="preserve">
<style type="text/css">
	.st0{fill:#FFFFFF;}
</style>
<title>-add group_632764</title>
<g id="berty">
	<g id="newsimplerUI_x2F_home-v5.1-Copy-3" transform="translate(-18.000000, -619.000000)">
		<g id="Group" transform="translate(18.000000, 619.000000)">
			<path id="Shape" class="st0" d="M51.9,35.9l-0.5-4.6l0-0.1c-0.5-3.9-3.8-6.7-7.7-6.7h-9.9l-0.1,0h-1.7H18.3l-0.8,0.1l0,0H8.3
				c-3.9,0-7.2,2.9-7.7,6.8l0,0.1L0.1,36l0,0l0,0.7c0,3.3,2.7,6,6,6h3c0.6,1.2,1.5,2.3,2.7,3c1.1,0.7,2.6,0.3,3.2-0.9
				c0.7-1.1,0.3-2.6-0.9-3.2l0,0c-0.7-0.4-1.1-1.1-1.1-2l0-0.3l0-0.1l0.6-6c0.3-2.3,2.3-4.1,4.7-4.1h13.5l0.1,0h1.7h0.1
				c2.3,0,4.3,1.7,4.6,4.1l0.6,5.9l0,0.1l0,0.4l0,0.3c-0.1,0.7-0.5,1.3-1.1,1.6c-1.1,0.7-1.5,2.1-0.9,3.2c0.7,1.1,2.1,1.5,3.2,0.9
				c1.2-0.7,2.1-1.8,2.8-3h2.9c3.4,0,6-2.7,6-6L51.9,35.9L51.9,35.9z M4.8,36.7l0-0.2l0-0.1l0.4-4.6c0.2-1.5,1.5-2.7,3.1-2.7h1.9
				c-0.6,1-1,2.2-1.2,3.5l0,0.1l-0.5,5.3H6.1C5.4,38.1,4.8,37.5,4.8,36.7z M45.9,38h-2.3L43,32.7l0-0.1c-0.2-1.3-0.6-2.4-1.2-3.4
				h1.9c1.5,0,2.9,1.1,3.1,2.7l0.5,4.6l0,0.1l0,0.2C47.2,37.4,46.6,38,45.9,38z"/>
			<path id="Shape_1_" class="st0" d="M35.1,4.9C33.2,2,29.8,0,26,0c-3.8,0-7.2,2-9.1,5c-0.8-0.3-1.7-0.4-2.7-0.4
				c-4.8,0-8.6,3.9-8.6,8.6c0,4.8,3.9,8.6,8.6,8.6c2.1,0,4-0.8,5.5-2.1c1.8,1.3,3.9,2,6.3,2c2.4,0,4.5-0.8,6.3-2
				c1.5,1.2,3.4,2,5.5,2c4.8,0,8.6-3.9,8.6-8.6c0-4.7-3.9-8.6-8.6-8.6C36.9,4.5,36,4.6,35.1,4.9z M10.3,13.1c0-2.1,1.8-3.9,3.9-3.9
				c0.4,0,0.7,0.1,1.1,0.2c-0.1,0.5-0.1,0.9-0.1,1.4c0,2,0.6,3.8,1.5,5.3C16,16.7,15.2,17,14.2,17C12.1,17,10.3,15.3,10.3,13.1z
				 M19.9,10.8c0-0.8,0.2-1.5,0.4-2.2l0,0c0.9-2.3,3.1-4,5.7-4c3.4,0,6.1,2.7,6.2,6.1c0,3.4-2.8,6.1-6.2,6.1
				C22.6,17,19.9,14.2,19.9,10.8z M41.8,13.1c0,2.1-1.8,3.9-3.9,3.9c-0.9,0-1.7-0.3-2.4-0.8c0.9-1.6,1.4-3.4,1.4-5.3
				c0-0.5-0.1-1-0.2-1.5c0.3-0.1,0.7-0.2,1.1-0.2C40,9.2,41.7,10.9,41.8,13.1z"/>
			<path id="Path" class="st0" d="M32.3,42h-3.9v-3.9c0-1.3-1.1-2.3-2.4-2.3s-2.4,1.1-2.4,2.3V42h-3.9c-1.3,0-2.4,1.1-2.4,2.3
				c0,1.3,1.1,2.3,2.4,2.3h3.9v3.9c0,1.3,1.1,2.3,2.4,2.3s2.4-1.1,2.4-2.3v-3.9h3.9c1.3,0,2.4-1.1,2.4-2.3
				C34.6,43.1,33.6,42,32.3,42z"/>
		</g>
	</g>
</g>
</svg>
