<?xml version="1.0" encoding="UTF-8"?>
<svg width="39px" height="34px" viewBox="0 0 39 34" version="1.1"
    xmlns="http://www.w3.org/2000/svg"
    xmlns:xlink="http://www.w3.org/1999/xlink">
    <title>add picture_2467220</title>
    <defs>
        <filter id="filter-1">
            <feColorMatrix in="SourceGraphic" type="matrix" values="0 0 0 0 0.780392 0 0 0 0 0.784314 0 0 0 0 0.847059 0 0 0 1.000000 0"></feColorMatrix>
        </filter>
    </defs>
    <g id="berty" stroke="none" stroke-width="1" fill="none" fill-rule="evenodd">
        <g id="add-picture_2467220" transform="translate(-27.000000, -627.000000)" filter="url(#filter-1)">
            <g transform="translate(27.000000, 627.000000)" id="Group" fill="currentColor" fill-rule="nonzero">
                <path d="M34.489,4.56384615 L13.806,4.56384615 C13.0880298,4.56384615 12.506,5.14931994 12.506,5.87153846 C12.506,6.59375698 13.0880298,7.17923077 13.806,7.17923077 L34.489,7.17923077 C35.23,7.17923077 35.789,8.00307692 35.789,8.98384615 L35.789,25.2384615 L31.395,20.0076923 C30.7543212,19.2279222 29.8006721,18.777055 28.795,18.7784615 L28.795,18.7784615 C27.7914678,18.7738282 26.8381867,19.2197268 26.195,19.9946154 L21.58,25.5784615 L16.9,20.0338462 C16.2545598,19.2619131 15.3027377,18.8166969 14.3,18.8176923 L14.3,18.8176923 C13.2930066,18.8231673 12.3404579,19.2783053 11.7,20.06 L7.085,25.7223077 L7.085,14.5938462 C7.085,13.8716276 6.50297017,13.2861538 5.785,13.2861538 L5.785,13.2861538 C5.06702983,13.2861538 4.485,13.8716276 4.485,14.5938462 L4.485,28.9784615 C4.485,29.1615385 4.485,29.3446154 4.485,29.5538462 C4.52103706,29.8065269 4.57755882,30.0558195 4.654,30.2992308 C4.654,30.3646154 4.654,30.4430769 4.654,30.5084615 L4.654,30.5084615 L4.719,30.6653846 C4.80843453,30.9007099 4.91714139,31.1281581 5.044,31.3453846 L5.2,31.5938462 C5.317379,31.7691267 5.44774971,31.9352401 5.59,32.0907692 L5.785,32.2869231 C5.99033421,32.482212 6.2171319,32.6533167 6.461,32.7969231 L6.5,32.7969231 C7.0656004,33.1506432 7.71901011,33.3364936 8.385,33.3331232 L34.385,33.3331232 C35.5351674,33.3212787 36.6170583,32.7819478 37.323,31.8684615 C37.6730592,31.4324129 37.9417272,30.936202 38.116,30.4038462 C38.2206425,30.0459446 38.2860318,29.6775979 38.311,29.3053846 C38.311,29.1746154 38.311,29.0438462 38.311,28.9 L38.311,28.9 L38.311,8.98384615 C38.4246518,6.71679844 36.7367187,4.764767 34.489,4.56384615 Z" id="Path"></path>
                <ellipse id="Oval" cx="20.293" cy="13.1684615" rx="2.6" ry="2.61538462"></ellipse>
                <path d="M5.733,11.1284615 L5.733,11.1284615 C6.45097017,11.1284615 7.033,10.5429877 7.033,9.82076923 L7.033,7.20538462 L9.633,7.20538462 C10.3509702,7.20538462 10.933,6.61991083 10.933,5.89769231 C10.933,5.17547379 10.3509702,4.59 9.633,4.59 L7.033,4.59 L7.033,1.97461538 C7.033,1.25239687 6.45097017,0.666923077 5.733,0.666923077 L5.733,0.666923077 C5.01502983,0.666923077 4.433,1.25239687 4.433,1.97461538 L4.433,4.59 L1.833,4.59 C1.11502983,4.59 0.533,5.17547379 0.533,5.89769231 C0.533,6.61991083 1.11502983,7.20538462 1.833,7.20538462 L4.433,7.20538462 L4.433,9.82076923 C4.433,10.5429877 5.01502983,11.1284615 5.733,11.1284615 Z" id="Path"></path>
            </g>
        </g>
    </g>
</svg>