<?xml version="1.0" encoding="UTF-8"?>
<svg width="45px" height="36px" viewBox="0 0 45 36" version="1.1" xmlns="http://www.w3.org/2000/svg" xmlns:xlink="http://www.w3.org/1999/xlink">
    <title>Group 2</title>
    <defs>
        <path d="M32.3785534,30.6 L32.3785534,34.2 C32.3785534,35.28 31.65903,36 30.5797449,36 C29.5004597,36 28.7809363,35.28 28.7809363,34.2 L28.7809363,30.6 C28.7809363,27.54 26.4424853,25.2 23.3845108,25.2 L8.9940426,25.2 C5.93606812,25.2 3.59761704,27.54 3.59761704,30.6 L3.59761704,34.2 C3.59761704,35.28 2.87809363,36 1.79880852,36 C0.719523408,36 0,35.28 0,34.2 L0,30.6 C0,25.56 3.95737875,21.6 8.9940426,21.6 L23.3845108,21.6 C28.4211746,21.6 32.3785534,25.56 32.3785534,30.6 Z M7.19523408,9 C7.19523408,3.96 11.1526128,0 16.1892767,0 C21.2259405,0 25.1833193,3.96 25.1833193,9 C25.1833193,14.04 21.2259405,18 16.1892767,18 C11.1526128,18 7.19523408,14.04 7.19523408,9 Z M10.7928511,9 C10.7928511,12.06 13.1313022,14.4 16.1892767,14.4 C19.2472512,14.4 21.5857022,12.06 21.5857022,9 C21.5857022,5.94 19.2472512,3.6 16.1892767,3.6 C13.1313022,3.6 10.7928511,5.94 10.7928511,9 Z M36.3359321,21.96 C35.4365279,21.78 34.3572427,22.32 34.1773619,23.22 C33.997481,24.12 34.5371236,25.2 35.4365279,25.38 C37.7749789,25.92 39.3939066,28.08 39.3939066,30.6 L39.3939066,34.2 C39.3939066,35.28 40.11343,36 41.1927151,36 C42.2720002,36 42.9915236,35.28 42.9915236,34.2 L42.9915236,30.6 C43.1714045,26.46 40.4731917,22.86 36.3359321,21.96 Z M29.140698,0.36 C28.2412938,5.27355937e-16 27.3418895,0.54 26.9821278,1.62 C26.802247,2.52 27.3418895,3.6 28.2412938,3.78 C31.1193874,4.5 32.9181959,7.38 32.1986725,10.44 C31.65903,12.42 30.2199831,13.86 28.2412938,14.4 C27.3418895,14.58 26.6223661,15.66 26.9821278,16.56 C27.1620087,17.46 27.8815321,18 28.7809363,18 C28.9608172,18 29.140698,18 29.140698,18 C32.3785534,17.1 34.8968853,14.76 35.6164087,11.52 C36.8755747,6.48 33.997481,1.44 29.140698,0.36 Z" id="path-1"></path>
    </defs>
    <g id="berty" stroke="none" stroke-width="1" fill="none" fill-rule="evenodd">
        <g id="newsimplerUI/home-v5-Copy" transform="translate(-25.000000, -550.000000)">
            <g id="Quick-Change-Account" transform="translate(-62.431169, 197.890137)">
                <g id="Create-new-group" transform="translate(67.431169, 321.109863)">
                    <g id="btn/createnewgroupbutton" transform="translate(8.000000, 8.000000)">
                        <g id="Group-2" transform="translate(2.000000, 23.000000)">
                            <g id="icon-/-users" transform="translate(12.000000, 0.000000)">
                                <mask id="mask-2" fill="white">
                                    <use xlink:href="#path-1"></use>
                                </mask>
                                <g id="Mask-Copy" fill-rule="nonzero"></g>
                                <g id="Icon-Color" mask="url(#mask-2)" fill="#FFFFFF">
                                    <g transform="translate(0.000000, -4.000000)" id="Shape">
                                        <rect x="0" y="0" width="43" height="43.2478632"></rect>
                                    </g>
                                </g>
                            </g>
                            <text id="+" font-family="OpenSans-SemiBold, Open Sans" font-size="16" font-weight="500" fill="#FFFFFF">
                                <tspan x="9.43359375" y="20">+</tspan>
                            </text>
                        </g>
                    </g>
                </g>
            </g>
        </g>
    </g>
</svg>