<svg xmlns="http://www.w3.org/2000/svg" xmlns:xlink="http://www.w3.org/1999/xlink" width="37" height="35" version="1.1" viewBox="0 0 37 35"><title>1_berty_out</title><defs><linearGradient id="linearGradient-1" x1="50.017%" x2="50.017%" y1=".06%" y2="100.052%"><stop offset="0%" stop-color="#4E53FF"/><stop offset="100%" stop-color="#3442D9"/></linearGradient></defs><g id="v4.0---App" fill="none" fill-rule="evenodd" stroke="none" stroke-width="1"><g id="Conversation/StatutPeers-Anim" fill-rule="nonzero" transform="translate(-57.000000, -747.000000)"><g id="1_berty_out" transform="translate(57.000000, 747.750983)"><g id="Group" transform="translate(4.000000, 0.249017)"><path id="Shape" fill="#FFBF47" d="M3.88445783,4.41486486 L1.7364759,3.26135135 C-1.56551205,9.17261261 0.586445783,16.6298198 6.52545181,19.9169369 L7.6685241,17.6981081 C2.94813253,14.9451351 1.30310241,9.16072072 3.88445783,4.41486486 Z"/><path id="Path" fill="#3442D9" d="M15.7356325,7.31747748 L13.3918373,2.14252252 C11.1454518,3.15135135 9.6525,5.13927928 9.19228916,7.37099099 L12.9415663,9.43423423 C13.7934036,8.61468468 14.7337048,7.90612613 15.7356325,7.31747748 Z"/><path id="Path" fill="#FFBF47" d="M9.19129518,7.37099099 C9.65349398,5.13927928 11.1444578,3.15135135 13.3908434,2.14252252 L12.4545181,0.0733333333 C9.74493976,1.28927928 7.87527108,3.59333333 7.12481928,6.23234234 L9.19129518,7.37099099 L9.19129518,7.37099099 Z"/><path id="Path" fill="url(#linearGradient-1)" d="M16.6312048,13.1236937 C16.6312048,13.0186486 16.6331928,12.9145946 16.6381627,12.8105405 C16.8011747,9.18846847 19.8705723,6.30171171 23.5355131,6.29378378 C23.5393373,5.61693694 23.4637952,5.17792793 23.4637952,5.16207207 C23.4767169,5.16207207 23.3783133,5.13234234 23.3912349,5.13234234 C21.3317169,5.11252252 19.4093675,5.54954955 17.5267771,6.33837838 C16.8896386,6.60495495 16.2703916,6.91513514 15.673012,7.26792793 C14.9225602,7.7109009 14.2078916,8.21828829 13.5389458,8.79306306 C13.3162952,8.98432432 13.0976205,9.18252252 12.8849096,9.38765766 L9.14557229,7.32045045 L7.08506024,6.18279279 L3.88445783,4.41585586 C1.26135542,9.12900901 2.95608434,15.071982 7.6685241,17.6971171 L3.03759036,26.5298198 C4.99174699,27.5515315 7.0661747,28.0975676 9.13165663,28.2174775 C14.8539759,28.5514414 20.5574096,25.3554955 23.390241,19.9545946 C19.6300301,19.8901802 16.6312048,16.8567568 16.6312048,13.1236937 Z"/><path id="Path" fill="#FFC14B" d="M18.4114157,17.0945946 C17.3707229,15.952973 16.7117169,14.4575676 16.6381627,12.8105405 C16.6331928,12.9145946 16.6312048,13.0186486 16.6312048,13.1236937 C16.6312048,16.8567568 19.6290361,19.8911712 23.3524699,19.9536036 C23.3922289,19.9545946 23.431988,19.9545946 23.471747,19.9545946 L23.471747,19.3272973 C21.4668976,19.3282883 19.6628313,18.4671171 18.4114157,17.0945946 Z"/><path id="Path" fill="#FFF" d="M23.4548494,6.29279279 C19.7900602,6.30072072 16.8021687,9.18846847 16.6381627,12.8105405 C16.7117169,14.4575676 17.3707229,15.952973 18.4114157,17.0945946 C19.6628313,18.4671171 21.4659036,19.3292793 23.471747,19.3292793 L23.471747,6.2918018 C23.4667771,6.2918018 23.4608133,6.2918018 23.4548494,6.29279279 Z"/><path id="Path" fill="#FFAE3A" d="M23.3803012,14.5606306 C23.3793072,18.1589189 23.3793072,19.9575676 23.3803012,19.9575676 C25.9616566,19.9545946 28.1235542,18.0925225 28.6374398,15.6745045 L23.3803012,14.5606306 Z"/><path id="Path" fill="#FFC14B" d="M29.8679819,7.59495495 C28.3124096,6.18972973 26.2886747,5.28990991 24.0581928,5.15018018 C23.8454819,5.13927928 23.6337651,5.13135135 23.4210542,5.12936937 C23.4081325,5.12936937 23.3942169,5.13036036 23.3822892,5.13036036 C23.3822892,5.16504505 23.3822892,14.5606306 23.3822892,14.5606306 L32.8021988,16.5554955 C32.9314157,15.9341441 33,15.29 33,14.630991 C32.998012,11.8413514 31.7903313,9.33315315 29.8679819,7.59495495 Z"/><path id="Path" fill="#F74868" d="M0.0487048193,32.2032432 C3.16183735,33.8294595 7.01051205,32.6363063 8.64460843,29.5374775 C8.8771988,29.0954955 9.0421988,28.6812613 9.1614759,28.2174775 C7.08903614,28.0975676 4.99671687,27.5475676 3.03957831,26.5278378 L0.0487048193,32.2032432 Z"/></g><g id="Group" fill="#383B62" transform="translate(24.000000, 11.249017)"><path id="Path" d="M1.5,0.235294118 C0.782,0.235294118 0.2,0.92 0.2,1.76470588 L0.7,1.76470588 C0.7,1.24588235 1.059,0.823529412 1.5,0.823529412 C1.941,0.823529412 2.3,1.24588235 2.3,1.76470588 L2.8,1.76470588 C2.8,0.92 2.218,0.235294118 1.5,0.235294118 Z"/><path id="Path" d="M1.5,0.0588235294 C0.681,0.107058824 0.091,0.801176471 0.05,1.76470588 C0.046,1.86 0.122,1.94117647 0.2,1.94117647 C0.367,1.94117647 0.533,1.94117647 0.7,1.94117647 C0.786,1.94117647 0.843,1.86 0.85,1.76470588 C0.918,0.783529412 2.082,0.783529412 2.15,1.76470588 C2.157,1.86 2.213,1.94117647 2.3,1.94117647 C2.467,1.94117647 2.633,1.94117647 2.8,1.94117647 C2.878,1.94117647 2.954,1.86 2.95,1.76470588 C2.909,0.801176471 2.319,0.107058824 1.5,0.0588235294 C1.307,0.0470588235 1.308,0.4 1.5,0.411764706 C2.148,0.450588235 2.617,1.00235294 2.65,1.76470588 C2.7,1.70588235 2.75,1.64705882 2.8,1.58823529 C2.633,1.58823529 2.467,1.58823529 2.3,1.58823529 C2.35,1.64705882 2.4,1.70588235 2.45,1.76470588 C2.351,0.325882353 0.649,0.325882353 0.55,1.76470588 C0.6,1.70588235 0.65,1.64705882 0.7,1.58823529 C0.533,1.58823529 0.367,1.58823529 0.2,1.58823529 C0.25,1.64705882 0.3,1.70588235 0.35,1.76470588 C0.383,1.00235294 0.852,0.450588235 1.5,0.411764706 C1.692,0.4 1.693,0.0470588235 1.5,0.0588235294 Z"/></g><path id="Path" fill="#D3D5DD" d="M1.07561743,10.5353257 C0.775559556,13.2440525 1.36642695,16.338025 2.88521303,18.6334884 C3.5716468,19.67115 4.47284802,20.541705 5.54463008,21.2011254 C5.8806538,21.4082574 6.19098762,20.8889263 5.8559915,20.6827949 C2.67763875,18.7275484 1.59147035,14.9041109 1.64593291,11.4288953 C1.65107089,11.1317059 1.65929165,10.8315145 1.69217471,10.5353257 C1.73430612,10.1520813 1.11774884,10.1550833 1.07561743,10.5353257 L1.07561743,10.5353257 Z"/><path id="Path" fill="#D3D5DD" d="M0.00113472188,16.527089 C0.166668552,18.7178185 1.19004272,20.8631093 2.65049144,22.1914687 C2.90001534,22.4186626 3.14383118,21.9149689 2.89756903,21.6906753 C1.58471451,20.4966987 0.635545163,18.4500197 0.491212711,16.527089 C0.462672395,16.157778 -0.026590156,16.1548776 0.00113472188,16.527089 L0.00113472188,16.527089 Z"/></g></g></g></svg>