<svg xmlns="http://www.w3.org/2000/svg" xmlns:xlink="http://www.w3.org/1999/xlink" width="34" height="34" version="1.1" viewBox="0 0 34 34"><title>Group</title><defs><radialGradient id="radialGradient-1" cx="-73.233%" cy="0%" r="290.531%" fx="-73.233%" fy="0%"><stop offset="0%" stop-color="#3E49EA"/><stop offset="100%" stop-color="#2E51E7"/></radialGradient></defs><g id="v4.0---App" fill="none" fill-rule="evenodd" stroke="none" stroke-width="1"><g id="Conversation/SyncwithPeers/Intro3" transform="translate(-286.000000, -750.000000)"><g id="Group" transform="translate(286.000000, 750.000000)"><circle id="Ellipse_502" cx="17" cy="17" r="17" fill="url(#radialGradient-1)"/><g id="camera-icon" transform="translate(7.000000, 7.000000)"><rect id="Rectangle_3044" width="19" height="19" x="0" y="0"/><g fill="#FFF" transform="translate(3.000000, 3.000000)"><path id="Path_12588" d="M8.2369,5.72417083 C8.92018493,6.4117042 8.92008755,7.526254 8.23668248,8.21366654 C7.55327742,8.90107907 6.44532258,8.90107907 5.76191752,8.21366654 C5.07851245,7.526254 5.07841507,6.4117042 5.7617,5.72417083 C6.08990192,5.39392827 6.53509119,5.2083926 6.9993,5.2083926 C7.46350881,5.2083926 7.90869808,5.39392827 8.2369,5.72417083"/><path id="Path_12589" fill-rule="nonzero" d="M12.25,2.12799167 L11.0411,2.12799167 L10.1654,0.367575 L3.8339,0.367575 L2.9596,2.12799167 L1.7521,2.12799167 C0.785601688,2.12799167 0.0021,2.91615705 0.0021,3.88840833 L0,10.930075 C0,11.9023263 0.783501688,12.6904917 1.75,12.6904917 L12.25,12.6904917 C13.2164983,12.6904917 14,11.9023263 14,10.930075 L14,3.88840833 C14,2.91615705 13.2164983,2.12799167 12.25,2.12799167 Z M7,10.4920833 C5.06700338,10.4920833 3.5,8.91575256 3.5,6.97125 C3.5,5.02674744 5.06700338,3.45041667 7,3.45041667 C8.93299662,3.45041667 10.5,5.02674744 10.5,6.97125 C10.4976857,8.91478743 8.93203721,10.4897553 7,10.4920833 L7,10.4920833 Z"/></g></g></g></g></g></svg>