<svg xmlns="http://www.w3.org/2000/svg" xmlns:xlink="http://www.w3.org/1999/xlink" width="36" height="29" version="1.1" viewBox="0 0 36 29"><title>chart-network-light (1)</title><g id="berty-networkmap-monitoring" fill="none" fill-rule="evenodd" stroke="none" stroke-width="1"><g id="networkmap/home/detailsPeerStatus/AllTypesWithFilters" fill="currentColor" fill-rule="nonzero" stroke="#383B62" stroke-width=".3" transform="translate(-51.000000, -139.000000)"><g id="All-typeslist-peers" transform="translate(23.000000, 126.000000)"><g id="chart-network-light-(1)" transform="translate(29.000000, 14.000000)"><path id="Shape" d="M27.285,10.6945312 L26.265,9.34453125 L23.715,11.2429687 L24.735,12.5929687 L27.285,10.6945312 Z M30.6,10.125 C31.3065625,10.125 31.96,9.9140625 32.501875,9.55019531 C32.863125,9.30761719 33.1765625,8.99648437 33.4209375,8.63789062 C33.7875,8.1 34,7.45136719 34,6.75 C34,6.04863281 33.7875,5.4 33.4209375,4.86210937 C33.29875,4.6828125 33.160625,4.5140625 33.0065625,4.36113281 C32.8525,4.20820312 32.6825,4.07109375 32.501875,3.94980469 C31.96,3.5859375 31.3065625,3.375 30.6,3.375 C29.8934375,3.375 29.24,3.5859375 28.698125,3.94980469 C28.336875,4.19238281 28.0234375,4.50351562 27.7790625,4.86210937 C27.4125,5.4 27.2,6.04863281 27.2,6.75 C27.2,8.61152344 28.7246875,10.125 30.6,10.125 Z M30.6,5.0625 C31.535,5.0625 32.3,5.821875 32.3,6.75 C32.3,7.678125 31.535,8.4375 30.6,8.4375 C29.665,8.4375 28.9,7.678125 28.9,6.75 C28.9,5.821875 29.665,5.0625 30.6,5.0625 Z M5.301875,13.2310547 C4.76,12.8671875 4.1065625,12.65625 3.4,12.65625 C2.6934375,12.65625 2.04,12.8671875 1.498125,13.2310547 C1.136875,13.4736328 0.8234375,13.7847656 0.5790625,14.1433594 C0.2125,14.68125 0,15.3298828 0,16.03125 C0,17.8927734 1.5246875,19.40625 3.4,19.40625 C5.2753125,19.40625 6.8,17.8927734 6.8,16.03125 C6.8,15.3298828 6.5875,14.68125 6.2209375,14.1433594 C5.9765625,13.7847656 5.663125,13.4736328 5.301875,13.2310547 L5.301875,13.2310547 Z M3.4,17.71875 C2.465,17.71875 1.7,16.959375 1.7,16.03125 C1.7,15.103125 2.465,14.34375 3.4,14.34375 C4.335,14.34375 5.1,15.103125 5.1,16.03125 C5.1,16.959375 4.335,17.71875 3.4,17.71875 Z M8.075,16.875 L10.625,16.875 L10.625,15.1875 L8.075,15.1875 L8.075,16.875 Z M33.0065625,21.2361328 C32.8525,21.0832031 32.6825,20.9460937 32.501875,20.8248047 C31.96,20.4609375 31.3065625,20.25 30.6,20.25 C29.8934375,20.25 29.24,20.4609375 28.698125,20.8248047 C28.5228125,20.9408203 28.3634375,21.0726562 28.2146875,21.2203125 L23.3378125,18.3146484 C23.6353125,17.6132812 23.8,16.8380859 23.8,16.03125 C23.8,12.7669922 21.1384375,10.125 17.85,10.125 C17.2496875,10.125 16.6865625,10.2410156 16.139375,10.3992187 L14.0515625,5.96425781 C14.81125,5.34726562 15.3,4.42441406 15.3,3.375 C15.3,2.67363281 15.0875,2.025 14.7209375,1.48710937 C14.4765625,1.12851562 14.163125,0.817382812 13.801875,0.574804687 C13.26,0.2109375 12.6065625,0 11.9,0 C11.1934375,0 10.54,0.2109375 9.998125,0.574804687 C9.636875,0.817382812 9.3234375,1.12851562 9.0790625,1.48710937 C8.7125,2.025 8.5,2.67363281 8.5,3.375 C8.5,5.23652344 10.0246875,6.75 11.9,6.75 C12.1125,6.75 12.3196875,6.72363281 12.5215625,6.68671875 L14.5934375,11.0953125 C12.973125,12.15 11.9,13.9640625 11.9,16.03125 C11.9,19.2955078 14.5615625,21.9375 17.85,21.9375 C19.709375,21.9375 21.345625,21.0726562 22.44,19.7490234 L27.34875,22.6705078 C27.2584375,22.9763672 27.2053125,23.2927734 27.2053125,23.625 C27.2053125,25.4865234 28.73,27 30.6053125,27 C31.311875,27 31.9653125,26.7890625 32.5071875,26.4251953 C32.8684375,26.1826172 33.181875,25.8714844 33.42625,25.5128906 C33.7875,24.975 34,24.3263672 34,23.625 C34,22.9236328 33.7875,22.275 33.4209375,21.7371094 C33.29875,21.5578125 33.1553125,21.3890625 33.0065625,21.2361328 L33.0065625,21.2361328 Z M11.9,5.0625 C10.965,5.0625 10.2,4.303125 10.2,3.375 C10.2,2.446875 10.965,1.6875 11.9,1.6875 C12.835,1.6875 13.6,2.446875 13.6,3.375 C13.6,4.303125 12.835,5.0625 11.9,5.0625 Z M17.85,20.25 C15.5071875,20.25 13.6,18.3568359 13.6,16.03125 C13.6,13.7056641 15.5071875,11.8125 17.85,11.8125 C20.1928125,11.8125 22.1,13.7056641 22.1,16.03125 C22.1,18.3568359 20.1928125,20.25 17.85,20.25 Z M30.6,25.3125 C29.665,25.3125 28.9,24.553125 28.9,23.625 C28.9,22.696875 29.665,21.9375 30.6,21.9375 C31.535,21.9375 32.3,22.696875 32.3,23.625 C32.3,24.553125 31.535,25.3125 30.6,25.3125 Z"/></g></g></g></g></svg>