<?xml version="1.0" encoding="UTF-8"?>
<svg width="34px" height="34px" viewBox="0 0 34 34" version="1.1"
    xmlns="http://www.w3.org/2000/svg"
    xmlns:xlink="http://www.w3.org/1999/xlink">
    <title>Advanced technology_1246504</title>
    <defs>
        <filter id="filter-1">
            <feColorMatrix in="SourceGraphic" type="matrix" values="0 0 0 0 0.431373 0 0 0 0 0.427451 0 0 0 0 1.000000 0 0 0 1.000000 0"></feColorMatrix>
        </filter>
    </defs>
    <g id="v4.0---App-DarkTheme" stroke="none" stroke-width="1" fill="none" fill-rule="evenodd">
        <g id="Advanced-technology_1246504" transform="translate(-48.000000, -336.000000)" filter="url(#filter-1)">
            <g transform="translate(48.000000, 336.000000)" id="Group" fill="currentColor" fill-rule="nonzero">
                <path d="M11.44474,12.11658 C11.70552,12.26652 12.03362,12.22776 12.2519,12.0207 C13.04342,11.26998 14.01004,10.71306 15.04772,10.41012 C15.33774,10.32546 15.53698,10.05958 15.53698,9.75732 L15.53698,8.14538 L18.46472,8.14538 L18.46472,9.75732 C18.46472,10.13268 18.76936,10.43732 19.14472,10.43732 C19.52008,10.43732 19.82472,10.13268 19.82472,9.75732 L19.82472,7.46538 C19.82472,7.09002 19.52008,6.78538 19.14472,6.78538 L14.85698,6.78538 C14.48162,6.78538 14.17698,7.09002 14.17698,7.46538 L14.17698,9.26466 C13.27836,9.59072 12.43516,10.07658 11.6977,10.69334 L10.1303,9.792 C9.8056,9.605 9.3908,9.71618 9.20278,10.04054 L7.05874,13.74348 C6.9683,13.89954 6.94382,14.08586 6.9904,14.26028 C7.03698,14.4347 7.15156,14.58362 7.3083,14.67338 L8.87298,15.57336 C8.79036,16.04086 8.74854,16.51856 8.74854,16.99966 C8.74854,17.48076 8.79036,17.95846 8.87298,18.42596 L7.3083,19.32594 C7.15156,19.41604 7.03732,19.56462 6.9904,19.73904 C6.94348,19.91346 6.9683,20.09978 7.05874,20.25584 L9.20278,23.95878 C9.32892,24.17672 9.55706,24.29844 9.792,24.29844 C9.90692,24.29844 10.02354,24.2692 10.1303,24.20766 L12.12236,23.06152 C12.44808,22.87418 12.55994,22.4587 12.3726,22.13332 C12.1856,21.8076 11.76944,21.6954 11.4444,21.88308 L10.03986,22.69092 L8.57752,20.16506 L9.97866,19.35892 C10.2408,19.2083 10.37204,18.90196 10.3003,18.6082 C10.17314,18.088 10.10854,17.54672 10.10854,17 C10.10854,16.45328 10.17314,15.912 10.3003,15.3918 C10.37204,15.0977 10.24114,14.7917 9.97866,14.64108 L8.57752,13.83494 L10.03986,11.30908 L11.44474,12.11658 Z" id="Path"></path>
                <path d="M27.00892,14.25994 C27.05584,14.08552 27.03102,13.89954 26.94058,13.74314 L24.79654,10.0402 C24.60886,9.71584 24.19406,9.605 23.86868,9.79166 L21.879,10.9378 C21.55362,11.12514 21.44176,11.54096 21.6291,11.86634 C21.81644,12.19172 22.23226,12.30358 22.55764,12.11624 L23.96014,11.30874 L25.42248,13.8346 L24.0227,14.6404 C23.76056,14.79136 23.62966,15.09736 23.7014,15.39112 C23.82856,15.91132 23.89316,16.4526 23.89316,16.99932 C23.89316,17.54604 23.82856,18.08732 23.7014,18.60752 C23.62966,18.90128 23.76056,19.20728 24.0227,19.35824 L25.42248,20.16404 L23.96014,22.6899 L22.55764,21.8824 C22.29686,21.73246 21.96842,21.77122 21.75048,21.97828 C20.9593,22.72832 19.992,23.28626 18.9533,23.59124 C18.66362,23.67624 18.46472,23.94178 18.46472,24.2437 L18.46472,25.85394 L15.53698,25.85394 L15.53698,24.2437 C15.53698,23.86834 15.23234,23.5637 14.85698,23.5637 C14.48162,23.5637 14.17698,23.86834 14.17698,24.2437 L14.17698,26.53394 C14.17698,26.9093 14.48162,27.21394 14.85698,27.21394 L19.14472,27.21394 C19.52008,27.21394 19.82472,26.9093 19.82472,26.53394 L19.82472,24.73568 C20.72368,24.4086 21.56688,23.92206 22.30366,23.30564 L23.86902,24.20698 C24.1944,24.39432 24.6092,24.28314 24.79688,23.95844 L26.94092,20.2555 C27.03136,20.09944 27.05584,19.91346 27.00926,19.7387 C26.96268,19.56428 26.84844,19.41536 26.6917,19.32526 L25.12872,18.42562 C25.21134,17.95812 25.25316,17.48008 25.25316,16.99898 C25.25316,16.51788 25.21134,16.03984 25.12872,15.57234 L26.6917,14.6727 C26.8481,14.58328 26.96234,14.4347 27.00892,14.25994 Z" id="Path"></path>
                <path d="M26.792,4.2007 C27.16736,4.2007 27.472,3.89606 27.472,3.5207 L27.472,0.68 C27.472,0.30464 27.16736,0 26.792,0 C26.41664,0 26.112,0.30464 26.112,0.68 L26.112,2.8407 L24.208,2.8407 L24.208,0.68 C24.208,0.30464 23.90336,0 23.528,0 C23.15264,0 22.848,0.30464 22.848,0.68 L22.848,2.8407 L20.944,2.8407 L20.944,0.68 C20.944,0.30464 20.63936,0 20.264,0 C19.88864,0 19.584,0.30464 19.584,0.68 L19.584,2.8407 L17.68,2.8407 L17.68,0.68 C17.68,0.30464 17.37536,0 17,0 C16.62464,0 16.32,0.30464 16.32,0.68 L16.32,2.8407 L14.416,2.8407 L14.416,0.68 C14.416,0.30464 14.11136,0 13.736,0 C13.36064,0 13.056,0.30464 13.056,0.68 L13.056,2.8407 L11.15166,2.8407 L11.15166,0.68 C11.15166,0.30464 10.84702,0 10.47166,0 C10.0963,0 9.79166,0.30464 9.79166,0.68 L9.79166,2.8407 L7.88766,2.8407 L7.88766,0.68 C7.88766,0.30464 7.58302,0 7.20766,0 C6.8323,0 6.52766,0.30464 6.52766,0.68 L6.52766,2.8407 L3.5207,2.8407 C3.14534,2.8407 2.8407,3.14534 2.8407,3.5207 L2.8407,6.528 L0.68,6.528 C0.30464,6.528 0,6.83264 0,7.208 C0,7.58336 0.30464,7.888 0.68,7.888 L2.8407,7.888 L2.8407,9.792 L0.68,9.792 C0.30464,9.792 0,10.09664 0,10.472 C0,10.84736 0.30464,11.152 0.68,11.152 L2.8407,11.152 L2.8407,13.056 L0.68,13.056 C0.30464,13.056 0,13.36064 0,13.736 C0,14.11136 0.30464,14.416 0.68,14.416 L2.8407,14.416 L2.8407,16.32 L0.68,16.32 C0.30464,16.32 0,16.62464 0,17 C0,17.37536 0.30464,17.68 0.68,17.68 L2.8407,17.68 L2.8407,19.584 L0.68,19.584 C0.30464,19.584 0,19.88864 0,20.264 C0,20.63936 0.30464,20.944 0.68,20.944 L2.8407,20.944 L2.8407,22.848 L0.68,22.848 C0.30464,22.848 0,23.15264 0,23.528 C0,23.90336 0.30464,24.208 0.68,24.208 L2.8407,24.208 L2.8407,26.112 L0.68,26.112 C0.30464,26.112 0,26.41664 0,26.792 C0,27.16736 0.30464,27.472 0.68,27.472 L2.8407,27.472 L2.8407,30.47896 C2.8407,30.85432 3.14534,31.15896 3.5207,31.15896 C3.89606,31.15896 4.2007,30.85432 4.2007,30.47896 L4.2007,4.2007 L26.792,4.2007 Z" id="Path"></path>
                <path d="M33.32,11.152 C33.69536,11.152 34,10.84736 34,10.472 C34,10.09664 33.69536,9.792 33.32,9.792 L31.15896,9.792 L31.15896,7.888 L33.32,7.888 C33.69536,7.888 34,7.58336 34,7.208 C34,6.83264 33.69536,6.528 33.32,6.528 L31.15896,6.528 L31.15896,3.52104 C31.15896,3.14568 30.85432,2.84104 30.47896,2.84104 C30.1036,2.84104 29.79896,3.14568 29.79896,3.52104 L29.79896,29.7993 L7.20766,29.7993 C6.8323,29.7993 6.52766,30.10394 6.52766,30.4793 L6.52766,33.32 C6.52766,33.69536 6.8323,34 7.20766,34 C7.58302,34 7.88766,33.69536 7.88766,33.32 L7.88766,31.1593 L9.79166,31.1593 L9.79166,33.32 C9.79166,33.69536 10.0963,34 10.47166,34 C10.84702,34 11.15166,33.69536 11.15166,33.32 L11.15166,31.1593 L13.056,31.1593 L13.056,33.32 C13.056,33.69536 13.36064,34 13.736,34 C14.11136,34 14.416,33.69536 14.416,33.32 L14.416,31.1593 L16.32,31.1593 L16.32,33.32 C16.32,33.69536 16.62464,34 17,34 C17.37536,34 17.68,33.69536 17.68,33.32 L17.68,31.1593 L19.584,31.1593 L19.584,33.32 C19.584,33.69536 19.88864,34 20.264,34 C20.63936,34 20.944,33.69536 20.944,33.32 L20.944,31.1593 L22.848,31.1593 L22.848,33.32 C22.848,33.69536 23.15264,34 23.528,34 C23.90336,34 24.208,33.69536 24.208,33.32 L24.208,31.1593 L26.112,31.1593 L26.112,33.32 C26.112,33.69536 26.41664,34 26.792,34 C27.16736,34 27.472,33.69536 27.472,33.32 L27.472,31.1593 L30.47896,31.1593 C30.85432,31.1593 31.15896,30.85466 31.15896,30.4793 L31.15896,27.472 L33.32,27.472 C33.69536,27.472 34,27.16736 34,26.792 C34,26.41664 33.69536,26.112 33.32,26.112 L31.15896,26.112 L31.15896,24.208 L33.32,24.208 C33.69536,24.208 34,23.90336 34,23.528 C34,23.15264 33.69536,22.848 33.32,22.848 L31.15896,22.848 L31.15896,20.944 L33.32,20.944 C33.69536,20.944 34,20.63936 34,20.264 C34,19.88864 33.69536,19.584 33.32,19.584 L31.15896,19.584 L31.15896,17.68 L33.32,17.68 C33.69536,17.68 34,17.37536 34,17 C34,16.62464 33.69536,16.32 33.32,16.32 L31.15896,16.32 L31.15896,14.416 L33.32,14.416 C33.69536,14.416 34,14.11136 34,13.736 C34,13.36064 33.69536,13.056 33.32,13.056 L31.15896,13.056 L31.15896,11.152 L33.32,11.152 Z" id="Path"></path>
                <path d="M17,21.25952 C19.34872,21.25952 21.25918,19.34872 21.25918,17 C21.25918,14.65128 19.34872,12.74082 17,12.74082 C14.65128,12.74082 12.74048,14.65128 12.74048,17 C12.74048,19.34872 14.65128,21.25952 17,21.25952 Z M17,14.10082 C18.59868,14.10082 19.89918,15.40132 19.89918,17 C19.89918,18.59868 18.59868,19.89952 17,19.89952 C15.40132,19.89952 14.10048,18.59868 14.10048,17 C14.10048,15.40132 15.40132,14.10082 17,14.10082 Z" id="Shape"></path>
            </g>
        </g>
    </g>
</svg>