<svg width="41" height="41" viewBox="0 0 41 41" fill="none" xmlns="http://www.w3.org/2000/svg">
<path fill-rule="evenodd" clip-rule="evenodd" d="M29.8077 21.1816L39.2834 30.6632C40.2355 31.6151 40.2355 33.1535 39.291 34.1131L34.119 39.2841C33.6467 39.7639 33.0221 40 32.3975 40C31.7729 40 31.1483 39.7563 30.6761 39.2841L21.1928 29.8026C19.1058 27.7159 18.8468 24.502 20.4159 22.1336L13.9033 15.6221H8.31238L1 5.87405L5.87492 1L15.6248 8.31107V13.901L22.1374 20.4124C23.1504 19.7346 24.3235 19.3995 25.4965 19.3995C27.058 19.3995 28.6195 19.9936 29.8077 21.1816ZM13.187 13.1854V13.0407V9.52987L6.10314 4.22172L4.22172 6.1028L9.53082 13.1854H13.187ZM32.3896 37.5553L22.9139 28.0737C22.2208 27.3807 21.8399 26.4668 21.8399 25.492C21.8399 24.5172 22.2208 23.5957 22.9139 22.9103C23.6071 22.2173 24.5211 21.8365 25.4961 21.8365C26.4711 21.8365 27.3928 22.2173 28.0783 22.9103L37.5616 32.3842L32.3896 37.5553ZM7.09373 35.1176C6.42343 35.1176 5.875 34.5693 5.875 33.8991C5.875 33.2289 6.42343 32.6806 7.09373 32.6806C7.76403 32.6806 8.31246 33.2289 8.31246 33.8991C8.31246 34.5693 7.76403 35.1176 7.09373 35.1176ZM22.0843 6.09411C23.8134 4.36535 26.0909 3.43623 28.4674 3.43623C28.993 3.43623 29.5186 3.48193 30.0441 3.57331L24.7655 8.85861L25.8167 15.1796L32.1465 16.2306L37.4251 10.9529C37.9354 13.8621 37.0214 16.8018 34.9038 18.9113C34.2259 19.5891 33.449 20.1298 32.6187 20.5487L34.4163 22.346C35.2085 21.8738 35.955 21.3103 36.6253 20.6325C39.5045 17.7537 40.6395 13.6717 39.6493 9.71918C39.4741 8.99569 38.9104 8.42451 38.1944 8.22651C37.4708 8.0285 36.6938 8.22651 36.1606 8.75961L31.2933 13.626L27.9266 13.0625L27.3629 9.69634L32.2302 4.8299C32.7558 4.30442 32.9615 3.52762 32.7634 2.81174C32.5654 2.08825 31.9865 1.53231 31.2629 1.34953C27.3249 0.367104 23.2421 1.49423 20.3552 4.37296C19.3726 5.35539 18.6109 6.49774 18.0625 7.72387V12.8873L19.7459 14.5704C19.0146 11.4936 19.8677 8.31028 22.0843 6.09411ZM4.41244 36.5733C5.67688 37.8375 7.88583 37.8375 9.15026 36.5733L17.4452 28.2798C17.7271 29.0795 18.1155 29.8487 18.6259 30.5493L10.8717 38.2945C9.78247 39.3911 8.32762 39.9928 6.78135 39.9928C5.23509 39.9928 3.78023 39.3911 2.69099 38.3021C0.436337 36.0402 0.436337 32.3695 2.69099 30.1152L13.8195 18.9887L15.541 20.7098L4.41244 31.8364C3.10993 33.1386 3.10993 35.271 4.41244 36.5733Z" fill="white"/>
<path d="M39.2834 30.6632L39.1065 30.8399L39.1066 30.8399L39.2834 30.6632ZM29.8077 21.1816L29.9846 21.0049L29.9845 21.0048L29.8077 21.1816ZM39.291 34.1131L39.4677 34.2899L39.4692 34.2884L39.291 34.1131ZM34.119 39.2841L33.9422 39.1073L33.9408 39.1087L34.119 39.2841ZM30.6761 39.2841L30.8528 39.1073L30.6761 39.2841ZM21.1928 29.8026L21.3696 29.6258L21.1928 29.8026ZM20.4159 22.1336L20.6243 22.2716L20.7372 22.1013L20.5927 21.9568L20.4159 22.1336ZM13.9033 15.6221L14.0801 15.4454L14.0068 15.3721H13.9033V15.6221ZM8.31238 15.6221L8.11239 15.7722L8.1874 15.8721H8.31238V15.6221ZM1 5.87405L0.823239 5.69726L0.669881 5.85059L0.800013 6.02407L1 5.87405ZM5.87492 1L6.0249 0.799987L5.85146 0.669931L5.69816 0.823207L5.87492 1ZM15.6248 8.31107H15.8748V8.18606L15.7747 8.11106L15.6248 8.31107ZM15.6248 13.901H15.3748V14.0046L15.448 14.0778L15.6248 13.901ZM22.1374 20.4124L21.9606 20.5892L22.1058 20.7344L22.2764 20.6202L22.1374 20.4124ZM13.187 13.1854V13.4354H13.437V13.1854H13.187ZM13.187 9.52987H13.437V9.4048L13.3369 9.3298L13.187 9.52987ZM6.10314 4.22172L6.25305 4.02166L6.07963 3.89171L5.92638 4.04493L6.10314 4.22172ZM4.22172 6.1028L4.04496 5.92601L3.89166 6.07929L4.02169 6.25275L4.22172 6.1028ZM9.53082 13.1854L9.33078 13.3354L9.40578 13.4354H9.53082V13.1854ZM22.9139 28.0737L23.0908 27.897L23.0907 27.8969L22.9139 28.0737ZM32.3896 37.5553L32.2127 37.732L32.3895 37.9089L32.5663 37.7321L32.3896 37.5553ZM22.9139 22.9103L23.0897 23.0881L23.0907 23.0871L22.9139 22.9103ZM28.0783 22.9103L27.9006 23.0861L27.9016 23.0871L28.0783 22.9103ZM37.5616 32.3842L37.7383 32.561L37.9152 32.3841L37.7382 32.2074L37.5616 32.3842ZM22.0843 6.09411L22.2611 6.2709L22.0843 6.09411ZM30.0441 3.57331L30.221 3.74998L30.5611 3.40946L30.087 3.32701L30.0441 3.57331ZM24.7655 8.85861L24.5886 8.68194L24.4978 8.77286L24.5189 8.89962L24.7655 8.85861ZM25.8167 15.1796L25.5701 15.2207L25.5994 15.397L25.7757 15.4263L25.8167 15.1796ZM32.1465 16.2306L32.1055 16.4772L32.2323 16.4983L32.3232 16.4074L32.1465 16.2306ZM37.4251 10.9529L37.6713 10.9097L37.5883 10.4363L37.2483 10.7761L37.4251 10.9529ZM34.9038 18.9113L34.7274 18.7342L34.7271 18.7345L34.9038 18.9113ZM32.6187 20.5487L32.5061 20.3255L32.1976 20.4812L32.4419 20.7255L32.6187 20.5487ZM34.4163 22.346L34.2396 22.5228L34.3772 22.6604L34.5443 22.5608L34.4163 22.346ZM36.6253 20.6325L36.4485 20.4557L36.4475 20.4567L36.6253 20.6325ZM39.6493 9.71918L39.4063 9.77802L39.4068 9.77994L39.6493 9.71918ZM38.1944 8.22651L38.261 7.98555L38.2604 7.98537L38.1944 8.22651ZM36.1606 8.75961L35.9839 8.58281L36.1606 8.75961ZM31.2933 13.626L31.2521 13.8726L31.3791 13.8939L31.4701 13.8028L31.2933 13.626ZM27.9266 13.0625L27.68 13.1038L27.7095 13.2796L27.8853 13.309L27.9266 13.0625ZM27.3629 9.69634L27.1862 9.51954L27.0951 9.6106L27.1164 9.73762L27.3629 9.69634ZM32.2302 4.8299L32.0535 4.65311V4.65311L32.2302 4.8299ZM32.7634 2.81174L32.5223 2.87775L32.5225 2.8784L32.7634 2.81174ZM31.2629 1.34953L31.3241 1.10714L31.3234 1.10696L31.2629 1.34953ZM20.3552 4.37296L20.1787 4.19594L20.1785 4.19617L20.3552 4.37296ZM18.0625 7.72387L17.8343 7.62179L17.8125 7.67051V7.72387H18.0625ZM18.0625 12.8873H17.8125V12.9909L17.8857 13.0641L18.0625 12.8873ZM19.7459 14.5704L19.5691 14.7472L20.1931 15.3711L19.9891 14.5126L19.7459 14.5704ZM9.15026 36.5733L9.32702 36.7501L9.15026 36.5733ZM4.41244 36.5733L4.58921 36.3965L4.41244 36.5733ZM17.4452 28.2798L17.681 28.1967L17.5491 27.8225L17.2685 28.103L17.4452 28.2798ZM18.6259 30.5493L18.8026 30.7262L18.9539 30.575L18.828 30.4021L18.6259 30.5493ZM10.8717 38.2945L10.695 38.1176L10.6943 38.1183L10.8717 38.2945ZM2.69099 38.3021L2.51393 38.4786L2.51423 38.4789L2.69099 38.3021ZM2.69099 30.1152L2.51423 29.9384H2.51423L2.69099 30.1152ZM13.8195 18.9887L13.9963 18.8119L13.8195 18.6352L13.6428 18.8119L13.8195 18.9887ZM15.541 20.7098L15.7177 20.8866L15.8946 20.7098L15.7177 20.533L15.541 20.7098ZM4.41244 31.8364L4.58921 32.0132H4.58921L4.41244 31.8364ZM39.4602 30.4864L29.9846 21.0049L29.6309 21.3583L39.1065 30.8399L39.4602 30.4864ZM39.4692 34.2884C40.5092 33.2318 40.5102 31.5362 39.4601 30.4864L39.1066 30.8399C39.9608 31.694 39.9618 33.0751 39.1128 33.9377L39.4692 34.2884ZM34.2958 39.4609L39.4677 34.2899L39.1142 33.9363L33.9422 39.1073L34.2958 39.4609ZM32.3975 40.25C33.085 40.25 33.7751 39.9899 34.2972 39.4595L33.9408 39.1087C33.5184 39.538 32.9592 39.75 32.3975 39.75V40.25ZM30.4993 39.4609C31.0196 39.9811 31.7082 40.25 32.3975 40.25V39.75C31.8376 39.75 31.2771 39.5315 30.8528 39.1073L30.4993 39.4609ZM21.0161 29.9794L30.4993 39.4609L30.8528 39.1073L21.3696 29.6258L21.0161 29.9794ZM20.2075 21.9955C18.574 24.4612 18.8433 27.807 21.0161 29.9794L21.3696 29.6258C19.3682 27.6248 19.1196 24.5429 20.6243 22.2716L20.2075 21.9955ZM13.7265 15.7989L20.2391 22.3104L20.5927 21.9568L14.0801 15.4454L13.7265 15.7989ZM8.31238 15.8721H13.9033V15.3721H8.31238V15.8721ZM0.800013 6.02407L8.11239 15.7722L8.51237 15.4721L1.19999 5.72403L0.800013 6.02407ZM5.69816 0.823207L0.823239 5.69726L1.17676 6.05084L6.05168 1.17679L5.69816 0.823207ZM15.7747 8.11106L6.0249 0.799987L5.72494 1.20001L15.4748 8.51109L15.7747 8.11106ZM15.8748 13.901V8.31107H15.3748V13.901H15.8748ZM22.3141 20.2356L15.8015 13.7242L15.448 14.0778L21.9606 20.5892L22.3141 20.2356ZM25.4965 19.1495C24.276 19.1495 23.0542 19.4982 21.9983 20.2046L22.2764 20.6202C23.2467 19.971 24.3709 19.6495 25.4965 19.6495V19.1495ZM29.9845 21.0048C28.7473 19.7678 27.1213 19.1495 25.4965 19.1495V19.6495C26.9947 19.6495 28.4917 20.2193 29.631 21.3584L29.9845 21.0048ZM12.937 13.0407V13.1854H13.437V13.0407H12.937ZM12.937 9.52987V13.0407H13.437V9.52987H12.937ZM5.95323 4.42179L13.0371 9.72993L13.3369 9.3298L6.25305 4.02166L5.95323 4.42179ZM4.39848 6.27959L6.2799 4.39852L5.92638 4.04493L4.04496 5.92601L4.39848 6.27959ZM9.73086 13.0355L4.42176 5.95285L4.02169 6.25275L9.33078 13.3354L9.73086 13.0355ZM13.187 12.9354H9.53082V13.4354H13.187V12.9354ZM22.7371 28.2505L32.2127 37.732L32.5664 37.3786L23.0908 27.897L22.7371 28.2505ZM21.5899 25.492C21.5899 26.5337 21.9976 27.511 22.7372 28.2505L23.0907 27.8969C22.444 27.2504 22.0899 26.3999 22.0899 25.492H21.5899ZM22.7382 22.7325C21.997 23.4654 21.5899 24.4511 21.5899 25.492H22.0899C22.0899 24.5833 22.4445 23.726 23.0897 23.0881L22.7382 22.7325ZM25.4961 21.5865C24.4543 21.5865 23.4768 21.994 22.7372 22.7335L23.0907 23.0871C23.7374 22.4405 24.588 22.0865 25.4961 22.0865V21.5865ZM28.256 22.7345C27.5231 21.9935 26.5372 21.5865 25.4961 21.5865V22.0865C26.405 22.0865 27.2625 22.441 27.9006 23.0861L28.256 22.7345ZM37.7382 32.2074L28.255 22.7334L27.9016 23.0871L37.3849 32.5611L37.7382 32.2074ZM32.5663 37.7321L37.7383 32.561L37.3848 32.2074L32.2128 37.3785L32.5663 37.7321ZM5.625 33.8991C5.625 34.7074 6.2854 35.3676 7.09373 35.3676V34.8676C6.56146 34.8676 6.125 34.4312 6.125 33.8991H5.625ZM7.09373 32.4306C6.2854 32.4306 5.625 33.0908 5.625 33.8991H6.125C6.125 33.367 6.56146 32.9306 7.09373 32.9306V32.4306ZM8.56246 33.8991C8.56246 33.0908 7.90206 32.4306 7.09373 32.4306V32.9306C7.626 32.9306 8.06246 33.367 8.06246 33.8991H8.56246ZM7.09373 35.3676C7.90206 35.3676 8.56246 34.7074 8.56246 33.8991H8.06246C8.06246 34.4312 7.626 34.8676 7.09373 34.8676V35.3676ZM28.4674 3.18623C26.0246 3.18623 23.6835 4.14168 21.9075 5.91732L22.2611 6.2709C23.9433 4.58901 26.1572 3.68623 28.4674 3.68623V3.18623ZM30.087 3.32701C29.5475 3.2332 29.0076 3.18623 28.4674 3.18623V3.68623C28.9784 3.68623 29.4897 3.73065 30.0013 3.81962L30.087 3.32701ZM24.9424 9.03527L30.221 3.74998L29.8673 3.39665L24.5886 8.68194L24.9424 9.03527ZM26.0633 15.1386L25.0121 8.8176L24.5189 8.89962L25.5701 15.2207L26.0633 15.1386ZM32.1874 15.984L25.8576 14.933L25.7757 15.4263L32.1055 16.4772L32.1874 15.984ZM37.2483 10.7761L31.9697 16.0538L32.3232 16.4074L37.6018 11.1297L37.2483 10.7761ZM35.0803 19.0884C37.2561 16.9209 38.1957 13.8988 37.6713 10.9097L37.1788 10.9961C37.6752 13.8254 36.7867 16.6827 34.7274 18.7342L35.0803 19.0884ZM32.7313 20.7719C33.5828 20.3423 34.382 19.7866 35.0806 19.0881L34.7271 18.7345C34.0698 19.3917 33.3151 19.9174 32.5061 20.3255L32.7313 20.7719ZM34.5931 22.1692L32.7955 20.3719L32.4419 20.7255L34.2396 22.5228L34.5931 22.1692ZM36.4475 20.4567C35.7939 21.1177 35.0647 21.6685 34.2883 22.1313L34.5443 22.5608C35.3524 22.0791 36.1161 21.5029 36.803 20.8083L36.4475 20.4567ZM39.4068 9.77994C40.3756 13.6471 39.2658 17.6389 36.4485 20.4557L36.802 20.8093C39.7433 17.8686 40.9034 13.6964 39.8918 9.65843L39.4068 9.77994ZM38.1278 8.46746C38.7582 8.6418 39.2529 9.14462 39.4063 9.77802L39.8922 9.66035C39.6952 8.84676 39.0626 8.20723 38.261 7.98555L38.1278 8.46746ZM36.3374 8.9364C36.8059 8.46804 37.4897 8.29286 38.1284 8.46764L38.2604 7.98537C37.4519 7.76414 36.5818 7.98498 35.9839 8.58281L36.3374 8.9364ZM31.4701 13.8028L36.3374 8.9364L35.9839 8.58281L31.1166 13.4492L31.4701 13.8028ZM27.8853 13.309L31.2521 13.8726L31.3346 13.3795L27.9679 12.8159L27.8853 13.309ZM27.1164 9.73762L27.68 13.1038L28.1732 13.0212L27.6095 9.65505L27.1164 9.73762ZM32.0535 4.65311L27.1862 9.51954L27.5397 9.87313L32.407 5.0067L32.0535 4.65311ZM32.5225 2.8784C32.6965 3.50725 32.5156 4.19112 32.0535 4.65311L32.407 5.0067C32.9961 4.41772 33.2265 3.54799 33.0044 2.74509L32.5225 2.8784ZM31.2016 1.59192C31.8398 1.7531 32.3486 2.24306 32.5223 2.87775L33.0046 2.74574C32.7822 1.93345 32.1332 1.31151 31.3241 1.10714L31.2016 1.59192ZM20.5318 4.54999C23.3567 1.73304 27.3495 0.630918 31.2024 1.59209L31.3234 1.10696C27.3002 0.10329 23.1275 1.25541 20.1787 4.19594L20.5318 4.54999ZM18.2907 7.82595C18.8275 6.62576 19.5724 5.5092 20.532 4.54975L20.1785 4.19617C19.1729 5.20157 18.3943 6.36972 17.8343 7.62179L18.2907 7.82595ZM18.3125 12.8873V7.72387H17.8125V12.8873H18.3125ZM19.9226 14.3936L18.2393 12.7105L17.8857 13.0641L19.5691 14.7472L19.9226 14.3936ZM21.9075 5.91732C19.6272 8.19723 18.7521 11.4703 19.5026 14.6282L19.9891 14.5126C19.2771 11.5169 20.1083 8.42333 22.2611 6.2709L21.9075 5.91732ZM8.9735 36.3965C7.80669 37.5631 5.75601 37.5631 4.58921 36.3965L4.23568 36.7501C5.59774 38.1119 7.96496 38.1119 9.32702 36.7501L8.9735 36.3965ZM17.2685 28.103L8.9735 36.3965L9.32702 36.7501L17.622 28.4566L17.2685 28.103ZM18.828 30.4021C18.3334 29.7231 17.9557 28.9759 17.681 28.1967L17.2095 28.3629C17.4985 29.183 17.8977 29.9742 18.4238 30.6965L18.828 30.4021ZM11.0484 38.4714L18.8026 30.7262L18.4492 30.3724L10.695 38.1176L11.0484 38.4714ZM6.78135 40.2428C8.39377 40.2428 9.91261 39.6149 11.0491 38.4707L10.6943 38.1183C9.65234 39.1674 8.26146 39.7428 6.78135 39.7428V40.2428ZM2.51423 38.4789C3.65052 39.615 5.16903 40.2428 6.78135 40.2428V39.7428C5.30115 39.7428 3.90994 39.1673 2.86775 38.1253L2.51423 38.4789ZM2.51423 29.9384C0.16176 32.2905 0.162188 36.1193 2.51393 38.4786L2.86805 38.1256C0.710487 35.9611 0.710915 32.4485 2.86775 30.292L2.51423 29.9384ZM13.6428 18.8119L2.51423 29.9384L2.86775 30.292L13.9963 19.1655L13.6428 18.8119ZM15.7177 20.533L13.9963 18.8119L13.6428 19.1655L15.3642 20.8866L15.7177 20.533ZM4.58921 32.0132L15.7177 20.8866L15.3642 20.533L4.23568 31.6596L4.58921 32.0132ZM4.58921 36.3965C3.38434 35.1919 3.38434 33.2178 4.58921 32.0132L4.23568 31.6596C2.83551 33.0595 2.83551 35.3502 4.23568 36.7501L4.58921 36.3965Z" fill="#383B62"/>
</svg>
