<?xml version="1.0" encoding="UTF-8"?>
<svg width="14px" height="14px" viewBox="0 0 14 14" version="1.1" xmlns="http://www.w3.org/2000/svg" xmlns:xlink="http://www.w3.org/1999/xlink">
    <title>Edit-Name</title>
    <g id="berty" stroke="none" stroke-width="1" fill="none" fill-rule="evenodd">
        <g id="group/settings/v2" transform="translate(-243.000000, -141.000000)" fill="currentColor" fill-rule="nonzero">
            <g id="Group" transform="translate(243.000000, 141.000000)">
                <path d="M9.34705882,0.679411765 C10.0676471,-0.0411764706 11.2411765,-0.0411764706 11.9823529,0.679411765 L13.3205882,2.01764706 C14.0411765,2.73823529 14.0411765,3.91176471 13.3205882,4.65294118 L4.65294118,13.3205882 C4.30294118,13.6705882 3.82941176,13.8558824 3.33529412,13.8558824 L0.761764706,13.8558824 C0.411764706,13.8558824 0.144117647,13.5882353 0.144117647,13.2382353 L0.144117647,10.6647059 C0.144117647,10.1705882 0.35,9.69705882 0.679411765,9.34705882 L9.34705882,0.679411765 Z M11.0970588,1.56470588 C10.85,1.31764706 10.4588235,1.31764706 10.2117647,1.56470588 L9.03823529,2.73823529 L11.2617647,4.96176471 L12.4352941,3.78823529 C12.6823529,3.54117647 12.6823529,3.15 12.4352941,2.90294118 L11.0970588,1.56470588 Z M10.3970588,5.80588235 L8.17352941,3.58235294 L1.54411765,10.2117647 C1.42058824,10.3352941 1.35882353,10.4794118 1.35882353,10.6441176 L1.35882353,12.6 L3.31470588,12.6 C3.47941176,12.6 3.64411765,12.5382353 3.74705882,12.4147059 L10.3970588,5.80588235 Z" id="Shape"></path>
            </g>
        </g>
    </g>
</svg>
