<svg width="21" height="21" viewBox="0 0 21 21" fill="none" xmlns="http://www.w3.org/2000/svg">
<path fill-rule="evenodd" clip-rule="evenodd" d="M3.5 0.875H17.5C18.9875 0.875 20.125 2.0125 20.125 3.5V7C20.125 8.4875 18.9875 9.625 17.5 9.625H3.5C2.0125 9.625 0.875 8.4875 0.875 7V3.5C0.875 2.0125 2.0125 0.875 3.5 0.875ZM17.5 7.875C18.025 7.875 18.375 7.525 18.375 7V3.5C18.375 2.975 18.025 2.625 17.5 2.625H3.5C2.975 2.625 2.625 2.975 2.625 3.5V7C2.625 7.525 2.975 7.875 3.5 7.875H17.5ZM17.5 11.375H3.5C2.0125 11.375 0.875 12.5125 0.875 14V17.5C0.875 18.9875 2.0125 20.125 3.5 20.125H17.5C18.9875 20.125 20.125 18.9875 20.125 17.5V14C20.125 12.5125 18.9875 11.375 17.5 11.375ZM17.5 18.375C18.025 18.375 18.375 18.025 18.375 17.5V14C18.375 13.475 18.025 13.125 17.5 13.125H3.5C2.975 13.125 2.625 13.475 2.625 14V17.5C2.625 18.025 2.975 18.375 3.5 18.375H17.5ZM5.8625 4.6375C6.0375 4.8125 6.125 4.9875 6.125 5.25C6.125 5.5125 6.0375 5.6875 5.8625 5.8625C5.6875 6.0375 5.5125 6.125 5.25 6.125C4.9875 6.125 4.8125 6.0375 4.6375 5.8625C4.55 5.775 4.4625 5.6875 4.4625 5.6C4.375 5.5125 4.375 5.3375 4.375 5.25C4.375 5.1625 4.375 4.9875 4.4625 4.9C4.50625 4.85625 4.52812 4.8125 4.55 4.76875C4.57187 4.725 4.59375 4.68125 4.6375 4.6375C4.725 4.55 4.8125 4.4625 4.9 4.4625C5.1625 4.375 5.3375 4.375 5.6 4.4625C5.6875 4.4625 5.775 4.55 5.8625 4.6375ZM6.125 15.75C6.125 15.4875 6.0375 15.3125 5.8625 15.1375C5.5125 14.7875 4.9875 14.7875 4.6375 15.1375C4.59375 15.1812 4.57188 15.225 4.55 15.2687C4.52813 15.3125 4.50625 15.3562 4.4625 15.4C4.375 15.4875 4.375 15.6625 4.375 15.75C4.375 16.0125 4.4625 16.1875 4.6375 16.3625C4.8125 16.5375 4.9875 16.625 5.25 16.625C5.5125 16.625 5.6875 16.5375 5.8625 16.3625C6.0375 16.1875 6.125 16.0125 6.125 15.75Z" fill="black"/>
<mask id="mask0_285:37419" style="mask-type:alpha" maskUnits="userSpaceOnUse" x="0" y="0" width="21" height="21">
<path fill-rule="evenodd" clip-rule="evenodd" d="M3.5 0.875H17.5C18.9875 0.875 20.125 2.0125 20.125 3.5V7C20.125 8.4875 18.9875 9.625 17.5 9.625H3.5C2.0125 9.625 0.875 8.4875 0.875 7V3.5C0.875 2.0125 2.0125 0.875 3.5 0.875ZM17.5 7.875C18.025 7.875 18.375 7.525 18.375 7V3.5C18.375 2.975 18.025 2.625 17.5 2.625H3.5C2.975 2.625 2.625 2.975 2.625 3.5V7C2.625 7.525 2.975 7.875 3.5 7.875H17.5ZM17.5 11.375H3.5C2.0125 11.375 0.875 12.5125 0.875 14V17.5C0.875 18.9875 2.0125 20.125 3.5 20.125H17.5C18.9875 20.125 20.125 18.9875 20.125 17.5V14C20.125 12.5125 18.9875 11.375 17.5 11.375ZM17.5 18.375C18.025 18.375 18.375 18.025 18.375 17.5V14C18.375 13.475 18.025 13.125 17.5 13.125H3.5C2.975 13.125 2.625 13.475 2.625 14V17.5C2.625 18.025 2.975 18.375 3.5 18.375H17.5ZM5.8625 4.6375C6.0375 4.8125 6.125 4.9875 6.125 5.25C6.125 5.5125 6.0375 5.6875 5.8625 5.8625C5.6875 6.0375 5.5125 6.125 5.25 6.125C4.9875 6.125 4.8125 6.0375 4.6375 5.8625C4.55 5.775 4.4625 5.6875 4.4625 5.6C4.375 5.5125 4.375 5.3375 4.375 5.25C4.375 5.1625 4.375 4.9875 4.4625 4.9C4.50625 4.85625 4.52812 4.8125 4.55 4.76875C4.57187 4.725 4.59375 4.68125 4.6375 4.6375C4.725 4.55 4.8125 4.4625 4.9 4.4625C5.1625 4.375 5.3375 4.375 5.6 4.4625C5.6875 4.4625 5.775 4.55 5.8625 4.6375ZM6.125 15.75C6.125 15.4875 6.0375 15.3125 5.8625 15.1375C5.5125 14.7875 4.9875 14.7875 4.6375 15.1375C4.59375 15.1812 4.57188 15.225 4.55 15.2687C4.52813 15.3125 4.50625 15.3562 4.4625 15.4C4.375 15.4875 4.375 15.6625 4.375 15.75C4.375 16.0125 4.4625 16.1875 4.6375 16.3625C4.8125 16.5375 4.9875 16.625 5.25 16.625C5.5125 16.625 5.6875 16.5375 5.8625 16.3625C6.0375 16.1875 6.125 16.0125 6.125 15.75Z" fill="white"/>
</mask>
<g mask="url(#mask0_285:37419)">
<rect width="21" height="21" fill="#383B62"/>
</g>
</svg>
