<svg width="32" height="32" viewBox="0 0 32 32" fill="none" xmlns="http://www.w3.org/2000/svg">
<path fill-rule="evenodd" clip-rule="evenodd" d="M32 23.2727C32 24.1455 31.4182 24.7273 30.5455 24.7273H1.45455C0.581818 24.7273 0 24.1455 0 23.2727C0 22.4 0.581818 21.8182 1.45455 21.8182C3.05455 21.8182 4.36364 20.5091 4.36364 18.9091V11.6364C4.36364 5.23636 9.6 0 16 0C22.4 0 27.6364 5.23636 27.6364 11.6364V18.9091C27.6364 20.5091 28.9455 21.8182 30.5455 21.8182C31.4182 21.8182 32 22.4 32 23.2727ZM19.7822 29.8181C18.9094 31.2726 17.4549 31.9999 16.0003 31.9999C15.2731 31.9999 14.5458 31.8545 13.8185 31.4181C13.0912 30.9817 12.6549 30.5454 12.2185 29.8181C11.7822 29.0908 12.0731 28.2181 12.8003 27.7817C13.5276 27.3454 14.4003 27.6363 14.8367 28.3635C14.8807 28.4076 14.9248 28.465 14.9729 28.5276C15.0836 28.6718 15.2157 28.844 15.4185 28.9454C16.1458 29.3817 17.0185 29.0908 17.4549 28.3635C17.8912 27.6363 18.764 27.4908 19.4912 27.7817C20.2185 28.0726 20.2185 29.0908 19.7822 29.8181ZM24.7273 18.9091C24.7273 19.9273 25.0182 20.9455 25.4545 21.8182H6.54545C6.98182 20.9455 7.27273 19.9273 7.27273 18.9091V11.6364C7.27273 6.83636 11.2 2.90909 16 2.90909C20.8 2.90909 24.7273 6.83636 24.7273 11.6364V18.9091Z" fill="#6E6DFF"/>
<mask id="mask0_233:38710" style="mask-type:alpha" maskUnits="userSpaceOnUse" x="0" y="0" width="32" height="32">
<path fill-rule="evenodd" clip-rule="evenodd" d="M32 23.2727C32 24.1455 31.4182 24.7273 30.5455 24.7273H1.45455C0.581818 24.7273 0 24.1455 0 23.2727C0 22.4 0.581818 21.8182 1.45455 21.8182C3.05455 21.8182 4.36364 20.5091 4.36364 18.9091V11.6364C4.36364 5.23636 9.6 0 16 0C22.4 0 27.6364 5.23636 27.6364 11.6364V18.9091C27.6364 20.5091 28.9455 21.8182 30.5455 21.8182C31.4182 21.8182 32 22.4 32 23.2727ZM19.7822 29.8181C18.9094 31.2726 17.4549 31.9999 16.0003 31.9999C15.2731 31.9999 14.5458 31.8545 13.8185 31.4181C13.0912 30.9817 12.6549 30.5454 12.2185 29.8181C11.7822 29.0908 12.0731 28.2181 12.8003 27.7817C13.5276 27.3454 14.4003 27.6363 14.8367 28.3635C14.8807 28.4076 14.9248 28.465 14.9729 28.5276C15.0836 28.6718 15.2157 28.844 15.4185 28.9454C16.1458 29.3817 17.0185 29.0908 17.4549 28.3635C17.8912 27.6363 18.764 27.4908 19.4912 27.7817C20.2185 28.0726 20.2185 29.0908 19.7822 29.8181ZM24.7273 18.9091C24.7273 19.9273 25.0182 20.9455 25.4545 21.8182H6.54545C6.98182 20.9455 7.27273 19.9273 7.27273 18.9091V11.6364C7.27273 6.83636 11.2 2.90909 16 2.90909C20.8 2.90909 24.7273 6.83636 24.7273 11.6364V18.9091Z" fill="white"/>
</mask>
<g mask="url(#mask0_233:38710)">
</g>
</svg>
