<?xml version="1.0" encoding="UTF-8"?>
<svg width="28px" height="37px" viewBox="0 0 28 37" version="1.1"
    xmlns="http://www.w3.org/2000/svg"
    xmlns:xlink="http://www.w3.org/1999/xlink">
    <title>Shape</title>
    <g id="berty" stroke="none" stroke-width="1" fill="none" fill-rule="evenodd">
        <g id="main/ConversationMedia/SecurityAccess-Microphone" transform="translate(-305.000000, -665.000000)" fill="currentColor" fill-rule="nonzero">
            <path d="M332.898182,674.396724 C332.885455,674.383966 332.872727,674.364828 332.86,674.352069 C332.847066,674.33347 332.832127,674.316355 332.815455,674.301034 L323.721818,665.185 C323.709091,665.172241 323.69,665.159483 323.677273,665.146724 C323.664545,665.133966 323.639091,665.114828 323.626364,665.102069 L323.530909,665 L307.545455,665 C306.139639,665 305,666.142446 305,667.551724 L305,699.448276 C305,700.857554 306.139639,702 307.545455,702 L330.454545,702 C331.860361,702 333,700.857554 333,699.448276 L333,674.492414 L332.898182,674.396724 Z M323.906364,667.175345 L330.83,674.116034 L325.179091,674.116034 C324.477053,674.113933 323.90846,673.543939 323.906364,672.840172 L323.906364,667.175345 Z M318.236364,672.244983 C318.869589,672.244725 319.440606,672.626911 319.683109,673.213302 C319.925612,673.799692 319.791835,674.474785 319.344169,674.923737 C318.896502,675.372689 318.223122,675.50707 317.638074,675.264208 C317.053025,675.021346 316.671545,674.449078 316.671545,673.814293 C316.671545,672.947836 317.372035,672.245335 318.236364,672.244983 L318.236364,672.244983 Z M308.818182,682.638793 L312.540273,672.659638 C312.630185,672.418658 312.855701,672.25541 313.112169,672.245651 C313.368636,672.235891 313.605849,672.38153 313.713727,672.614983 L317.053364,679.832534 C317.147774,680.036176 317.342038,680.175058 317.564853,680.198205 C317.787668,680.221352 318.006213,680.125355 318.140273,679.945448 L320.260636,677.096448 C320.378122,676.938569 320.561771,676.843949 320.758218,676.840082 C320.954665,676.836216 321.141878,676.923538 321.265455,677.076672 L325.610545,682.46081 C325.764639,682.651728 325.795726,682.914367 325.69048,683.136133 C325.585234,683.357899 325.362344,683.49941 325.117364,683.500002 L309.415727,683.500002 C309.206895,683.500471 309.011123,683.398198 308.891877,683.226336 C308.772631,683.054474 308.74509,682.834899 308.818182,682.638793 Z M331.727273,699.448276 C331.725176,700.152043 331.156583,700.722036 330.454545,700.724138 L307.545455,700.724138 C306.843417,700.722036 306.274824,700.152043 306.272727,699.448276 L306.272727,689.534828 L315.01,689.534828 L316.728182,691.506034 C316.847837,691.64501 317.022329,691.724308 317.205455,691.722931 L331.727273,691.722931 L331.727273,699.448276 Z" id="Shape"></path>
        </g>
    </g>
</svg>