<svg xmlns="http://www.w3.org/2000/svg" xmlns:xlink="http://www.w3.org/1999/xlink" width="60" height="96" version="1.1" viewBox="0 0 60 96"><title>Shape</title><g id="v4.0---App" fill="none" fill-rule="evenodd" stroke="none" stroke-width="1"><g id="Conversation/Reactions" fill="currentColor" fill-rule="nonzero" transform="translate(-315.000000, -716.000000)"><g id="Group" transform="translate(290.000000, 716.000000)"><path id="Shape" d="M82.4858263,34.44783 C80.8452177,34.44783 79.5155029,35.7775448 79.5155029,37.4181534 L79.5155029,50.2895545 C79.5155029,63.5282857 68.7441204,74.2996683 55.5053892,74.2996683 C42.266658,74.2996683 31.4952754,63.5282857 31.4952754,50.2895545 L31.4952754,37.4181534 C31.4952754,35.7775448 30.1655607,34.44783 28.5249521,34.44783 C26.8843435,34.44783 25.5546287,35.7775448 25.5546287,37.4181534 L25.5546287,50.2895545 C25.5546287,65.8025633 37.4101793,78.5967361 52.5350658,80.093779 L52.5350658,90.4720888 L39.0349462,90.4720888 C37.3943376,90.4720888 36.0646228,91.8027937 36.0646228,93.4424122 C36.0646228,95.0840109 37.3943376,96.4127355 39.0349462,96.4127355 L71.9758322,96.4127355 C73.6164408,96.4127355 74.9461555,95.0840109 74.9461555,93.4424122 C74.9461555,91.8027937 73.6164408,90.4720888 71.9758322,90.4720888 L58.4757125,90.4720888 L58.4757125,80.0927889 C73.600599,78.595746 85.4561496,65.8015732 85.4561496,50.2885644 L85.4561496,37.4171632 C85.4561496,35.7765547 84.1264349,34.44783 82.4858263,34.44783 Z M55.5053892,68.9808093 C66.0371657,68.9808093 74.5758552,60.4411296 74.5758552,49.9093532 L74.5758552,19.6882933 C74.5758552,9.15651678 66.0371657,0.617827257 55.5053892,0.617827257 C44.9736127,0.617827257 36.4349232,9.15651678 36.4349232,19.6882933 L36.4349232,49.9093532 C36.4349232,60.4411296 44.9736127,68.9808093 55.5053892,68.9808093 Z"/></g></g></g></svg>