<?xml version="1.0" encoding="UTF-8"?>
<svg width="33px" height="33px" viewBox="0 0 33 33" version="1.1" xmlns="http://www.w3.org/2000/svg" xmlns:xlink="http://www.w3.org/1999/xlink">
    <title>Shape</title>
    <defs>
        <filter id="filter-1">
            <feColorMatrix in="SourceGraphic" type="matrix" values="0 0 0 0 0.125490 0 0 0 0 0.368627 0 0 0 0 0.933333 0 0 0 1.000000 0"></feColorMatrix>
        </filter>
    </defs>
    <g id="v4.0---App" stroke="none" stroke-width="1" fill="none" fill-rule="evenodd">
        <g id="Microphone_-Copy" transform="translate(-329.000000, -750.000000)" filter="url(#filter-1)">
            <g transform="translate(329.000000, 750.000000)">
                <path d="M16.5,0 C7.38730163,0 0,7.38730163 0,16.5 C0,25.6126984 7.38730163,33 16.5,33 C25.6126984,33 33,25.6126984 33,16.5 C33,12.1239279 31.2616121,7.92708835 28.1672619,4.83273811 C25.0729116,1.73838787 20.8760721,0 16.5,0 Z M12.25,11.024 C12.2535446,9.35275924 13.4987544,8 15.0335714,8 L18.4664286,8 C20.0012456,8 21.2464554,9.35275924 21.25,11.024 L21.25,18.976 C21.2464554,20.6472408 20.0012456,22 18.4664286,22 L15.0335714,22 C13.4987544,22 12.2535446,20.6472408 12.25,18.976 L12.25,11.024 Z M24.25,18.8933333 C24.2462432,21.8962395 21.7575177,24.32966 18.6863636,24.3333333 L17.4318182,24.3333333 L17.4318182,25.6666667 L18.7954545,25.6666667 C19.1720123,25.6666667 19.4772727,25.9651435 19.4772727,26.3333333 C19.4772727,26.7015232 19.1720123,27 18.7954545,27 L14.7045455,27 C14.3279877,27 14.0227273,26.7015232 14.0227273,26.3333333 C14.0227273,25.9651435 14.3279877,25.6666667 14.7045455,25.6666667 L16.0681818,25.6666667 L16.0681818,24.3333333 L14.8136364,24.3333333 C11.7424823,24.32966 9.25375677,21.8962395 9.25,18.8933333 L9.25,17.6666667 C9.25,17.2984768 9.5552604,17 9.93181818,17 C10.308376,17 10.6136364,17.2984768 10.6136364,17.6666667 L10.6136364,18.8933333 C10.6136364,21.1613827 12.4940404,23 14.8136364,23 L18.6863636,23 C21.0059596,23 22.8863636,21.1613827 22.8863636,18.8933333 L22.8863636,17.6666667 C22.8863636,17.2984768 23.191624,17 23.5681818,17 C23.9447396,17 24.25,17.2984768 24.25,17.6666667 L24.25,18.8933333 Z" id="Shape" fill="#205EEE" fill-rule="nonzero"></path>
            </g>
        </g>
    </g>
</svg>