<svg xmlns="http://www.w3.org/2000/svg" xmlns:xlink="http://www.w3.org/1999/xlink" width="22" height="18" version="1.1" viewBox="0 0 22 18"><title>NEXT</title><g id="berty" fill="none" fill-rule="evenodd" stroke="none" stroke-width="1" opacity=".175"><g id="main/Sticky-Player-Pause" fill="currentColor" fill-rule="nonzero" transform="translate(-226.000000, -78.000000)"><g id="BOTTOM-BAR" transform="translate(10.000000, 60.000000)"><path id="NEXT" d="M228.076087,18.2197364 C227.788174,17.9787464 227.395043,17.9317483 227.064087,18.0997414 C226.732174,18.2667344 226.521739,18.61572 226.521739,19.000704 L226.521739,25.7194258 L217.554348,18.2197364 C217.266435,17.9787464 216.872348,17.9317483 216.542348,18.0997414 C216.210435,18.2667344 216,18.61572 216,19.000704 L216,35.0000414 C216,35.3850255 216.210435,35.734011 216.542348,35.9010041 C216.674348,35.9680013 216.815913,36 216.956522,36 C217.169826,36 217.381217,35.9260031 217.554348,35.7810091 L226.521739,28.2813197 L226.521739,35.0000414 C226.521739,35.3850255 226.732174,35.734011 227.064087,35.9010041 C227.196087,35.9680013 227.337652,36 227.478261,36 C227.691565,36 227.902957,35.9260031 228.076087,35.7810091 L237.641304,27.7813404 C237.868,27.5913483 238,27.3043601 238,27.0003727 C238,26.6963853 237.868,26.4093972 237.641304,26.2194051 L228.076087,18.2197364 Z"/></g></g></g></svg>