<svg xmlns="http://www.w3.org/2000/svg" xmlns:xlink="http://www.w3.org/1999/xlink" width="22" height="18" version="1.1" viewBox="0 0 22 18"><title>PREV</title><g id="berty" fill="none" fill-rule="evenodd" stroke="none" stroke-width="1" opacity=".175"><g id="main/Sticky-Player-Pause" fill="currentColor" fill-rule="nonzero" transform="translate(-128.000000, -78.000000)"><g id="BOTTOM-BAR" transform="translate(10.000000, 60.000000)"><path id="PREV" d="M130.076087,18.2197364 C129.788174,17.9787464 129.395043,17.9317483 129.064087,18.0997414 C128.732174,18.2667344 128.521739,18.61572 128.521739,19.000704 L128.521739,25.7194258 L119.554348,18.2197364 C119.266435,17.9787464 118.872348,17.9317483 118.542348,18.0997414 C118.210435,18.2667344 118,18.61572 118,19.000704 L118,35.0000414 C118,35.3850255 118.210435,35.734011 118.542348,35.9010041 C118.674348,35.9680013 118.815913,36 118.956522,36 C119.169826,36 119.381217,35.9260031 119.554348,35.7810091 L128.521739,28.2813197 L128.521739,35.0000414 C128.521739,35.3850255 128.732174,35.734011 129.064087,35.9010041 C129.196087,35.9680013 129.337652,36 129.478261,36 C129.691565,36 129.902957,35.9260031 130.076087,35.7810091 L139.641304,27.7813404 C139.868,27.5913483 140,27.3043601 140,27.0003727 C140,26.6963853 139.868,26.4093972 139.641304,26.2194051 L130.076087,18.2197364 Z" transform="translate(129.000000, 27.000000) scale(-1, 1) translate(-129.000000, -27.000000)"/></g></g></g></svg>