<?xml version="1.0" encoding="UTF-8"?>
<svg width="58px" height="66px" viewBox="0 0 58 66" version="1.1"
    xmlns="http://www.w3.org/2000/svg"
    xmlns:xlink="http://www.w3.org/1999/xlink">
    <title>noun_Privacy_1506405</title>
    <defs>
        <filter id="filter-1">
            <feColorMatrix in="SourceGraphic" type="matrix" values="0 0 0 0 1.000000 0 0 0 0 1.000000 0 0 0 0 1.000000 0 0 0 1.000000 0"></feColorMatrix>
        </filter>
    </defs>
    <g id="v4.0---App-DarkTheme" stroke="none" stroke-width="1" fill="none" fill-rule="evenodd">
        <g id="onboarding2/3" transform="translate(-263.000000, -489.000000)">
            <g id="noun_Privacy_1506405" transform="translate(29.000000, 466.000000)" filter="url(#filter-1)">
                <g transform="translate(234.000000, 23.000000)" id="Group" fill="currentColor" fill-rule="nonzero">
                    <g>
                        <path d="M34.4547619,34.30625 C33.35,34.30625 32.3833333,34.85625 31.7619048,35.26875 C31.4166667,35.475 31.4166667,35.95625 31.7619048,36.23125 C32.3142857,36.64375 33.2809524,37.19375 34.4547619,37.19375 C35.5595238,37.19375 36.5261905,36.64375 37.0785714,36.23125 C37.4238095,36.025 37.4238095,35.54375 37.0785714,35.26875 C36.5261905,34.925 35.5595238,34.30625 34.4547619,34.30625 Z" id="Path"></path>
                        <path d="M23.5452381,34.30625 C22.4404762,34.30625 21.4738095,34.85625 20.9214286,35.26875 C20.5761905,35.475 20.5761905,35.95625 20.9214286,36.23125 C21.4738095,36.64375 22.4404762,37.19375 23.5452381,37.19375 C24.65,37.19375 25.6166667,36.64375 26.1690476,36.23125 C26.5142857,36.025 26.5142857,35.54375 26.1690476,35.26875 C25.6166667,34.925 24.65,34.30625 23.5452381,34.30625 Z" id="Path"></path>
                        <path d="M5.59285714,11 L5.59285714,23.7875 C5.59285714,35.75 11.3928571,47.09375 21.0595238,54.24375 L29,60.01875 L36.9404762,54.24375 C46.6071429,47.1625 52.4071429,35.75 52.4071429,23.7875 L52.4071429,11 L29,5.84375 L5.59285714,11 Z M39.4952381,39.66875 C37.7690476,39.875 35.1452381,40.08125 32.9357143,40.15 C32.3833333,40.15 31.7619048,39.94375 31.347619,39.53125 L30.6571429,38.775 C30.2428571,38.3625 29.7595238,38.15625 29.2071429,38.15625 C28.6547619,38.15625 28.102381,38.3625 27.7571429,38.775 L26.9285714,39.6 C26.5142857,40.0125 25.9619048,40.21875 25.3404762,40.21875 C22.9928571,40.08125 20.3,39.94375 18.5047619,39.7375 C17.6071429,39.6 16.9166667,38.775 17.0547619,37.88125 L17.952381,31.14375 C20.9214286,31.83125 24.8571429,32.175 28.9309524,32.175 C33.0047619,32.175 36.9404762,31.83125 39.9785714,31.14375 L40.8761905,37.88125 C41.0142857,38.70625 40.3928571,39.53125 39.4952381,39.66875 Z M31.347619,18.2875 L34.1095238,17.66875 C35.4904762,17.325 36.8714286,18.21875 37.2166667,19.59375 L38.8738095,26.8125 L40.3238095,26.46875 L39.8404762,24.40625 C42.6714286,25.09375 44.4666667,25.9875 44.4666667,27.01875 C44.4666667,29.0125 37.5619048,30.6625 29,30.6625 C20.4380952,30.6625 13.5333333,29.0125 13.5333333,27.01875 C13.5333333,25.9875 15.3285714,25.09375 18.1595238,24.40625 L17.6761905,26.46875 L19.1261905,26.8125 L20.7833333,19.59375 C21.1285714,18.21875 22.5095238,17.325 23.8904762,17.66875 L26.652381,18.2875 C28.1714286,18.63125 29.8285714,18.63125 31.347619,18.2875 Z" id="Shape"></path>
                        <path d="M53.9952381,5.70625 L30.1047619,0.48125 C29.7595238,0.4125 29.4142857,0.34375 29,0.34375 C28.6547619,0.34375 28.2404762,0.4125 27.8952381,0.48125 L4.0047619,5.70625 C1.72619048,6.1875 0.069047619,8.25 0.069047619,10.5875 L0.069047619,23.7875 C0.069047619,37.46875 6.69761905,50.53125 17.8142857,58.64375 L26.0309524,64.69375 C26.9285714,65.3125 27.8952381,65.65625 29,65.65625 C30.1047619,65.65625 31.0714286,65.3125 31.9690476,64.69375 L40.1857143,58.64375 C51.302381,50.53125 57.9309524,37.46875 57.9309524,23.7875 L57.9309524,10.5875 C57.9309524,8.25 56.2738095,6.1875 53.9952381,5.70625 Z M54.202381,23.7875 C54.202381,36.36875 48.1952381,48.2625 37.9761905,55.6875 L29.7595238,61.7375 C29.552381,61.875 29.2761905,62.0125 29,62.0125 C28.7238095,62.0125 28.447619,61.94375 28.2404762,61.7375 L19.9547619,55.6875 C9.8047619,48.19375 3.79761905,36.36875 3.79761905,23.7875 L3.79761905,10.5875 C3.79761905,9.96875 4.21190476,9.41875 4.83333333,9.28125 L28.7238095,4.05625 C28.7928571,4.05625 28.9309524,4.05625 29,4.05625 C29.0690476,4.05625 29.2071429,4.05625 29.2761905,4.05625 L53.1666667,9.28125 C53.7880952,9.41875 54.202381,9.96875 54.202381,10.5875 L54.202381,23.7875 Z" id="Shape"></path>
                    </g>
                    <path d="M28.5857143,33.03125 C28.752381,33.03125 28.9190476,33.03125 29.0857143,33.03125 C29.252381,33.03125 29.4190476,33.03125 29.5857143,32.93125 C29.252381,33.13125 28.9190476,33.13125 28.5857143,33.03125 Z M28.5857143,33.03125 C28.752381,33.03125 28.9190476,33.03125 29.0857143,33.03125 C29.252381,33.03125 29.4190476,33.03125 29.5857143,32.93125 C29.252381,33.13125 28.9190476,33.13125 28.5857143,33.03125 Z M28.5857143,33.03125 C28.752381,33.03125 28.9190476,33.03125 29.0857143,33.03125 C29.252381,33.03125 29.4190476,33.03125 29.5857143,32.93125 C29.252381,33.13125 28.9190476,33.13125 28.5857143,33.03125 Z" id="Shape"></path>
                </g>
            </g>
        </g>
    </g>
</svg>