<?xml version="1.0" encoding="UTF-8"?>
<svg width="50px" height="52px" viewBox="0 0 50 52" version="1.1" xmlns="http://www.w3.org/2000/svg" xmlns:xlink="http://www.w3.org/1999/xlink">
    <title>Shape</title>
    <defs>
        <filter x="-17.4%" y="-14.8%" width="134.8%" height="129.6%" filterUnits="objectBoundingBox" id="filter-1">
            <feOffset dx="0" dy="2" in="SourceAlpha" result="shadowOffsetOuter1"></feOffset>
            <feGaussianBlur stdDeviation="2" in="shadowOffsetOuter1" result="shadowBlurOuter1"></feGaussianBlur>
            <feColorMatrix values="0 0 0 0 0   0 0 0 0 0   0 0 0 0 0  0 0 0 0.5 0" type="matrix" in="shadowBlurOuter1" result="shadowMatrixOuter1"></feColorMatrix>
            <feMerge>
                <feMergeNode in="shadowMatrixOuter1"></feMergeNode>
                <feMergeNode in="SourceGraphic"></feMergeNode>
            </feMerge>
        </filter>
    </defs>
    <g id="berty" stroke="none" stroke-width="1" fill="none" fill-rule="evenodd">
        <g id="newsimplerUI/home-v5-Copy" transform="translate(-23.000000, -643.000000)" fill="#FFFFFF" fill-rule="nonzero">
            <g id="Quick-Change-Account" transform="translate(-62.431169, 197.890137)">
                <g id="Scan-contact-or-group" transform="translate(67.431169, 192.109863)">
                    <g id="btn/scan-qr-code" filter="url(#filter-1)" transform="translate(8.000000, 236.000000)">
                        <g id="qrcode-light-(1)" transform="translate(13.651757, 18.448276)">
                            <path d="M0.348243243,19.408867 L18.3482432,19.408867 L18.3482432,0.551724138 L0.348243243,0.551724138 L0.348243243,19.408867 Z M3.34824324,3.69458128 L15.3482432,3.69458128 L15.3482432,16.2660099 L3.34824324,16.2660099 L3.34824324,3.69458128 Z M24.3482432,0.551724138 L24.3482432,19.408867 L42.3482432,19.408867 L42.3482432,0.551724138 L24.3482432,0.551724138 Z M39.3482432,16.2660099 L27.3482432,16.2660099 L27.3482432,3.69458128 L39.3482432,3.69458128 L39.3482432,16.2660099 Z M0.348243243,44.5517241 L18.3482432,44.5517241 L18.3482432,25.6945813 L0.348243243,25.6945813 L0.348243243,44.5517241 Z M3.34824324,28.8374384 L15.3482432,28.8374384 L15.3482432,41.408867 L3.34824324,41.408867 L3.34824324,28.8374384 Z M6.34824324,6.83743842 L12.3482432,6.83743842 L12.3482432,13.1231527 L6.34824324,13.1231527 L6.34824324,6.83743842 Z M36.3482432,13.1231527 L30.3482432,13.1231527 L30.3482432,6.83743842 L36.3482432,6.83743842 L36.3482432,13.1231527 Z M6.34824324,31.9802956 L12.3482432,31.9802956 L12.3482432,38.2660099 L6.34824324,38.2660099 L6.34824324,31.9802956 Z M39.3482432,25.6945813 L42.3482432,25.6945813 L42.3482432,38.2660099 L30.3482432,38.2660099 L30.3482432,35.1231527 L27.3482432,35.1231527 L27.3482432,44.5517241 L24.3482432,44.5517241 L24.3482432,25.6945813 L33.3482432,25.6945813 L33.3482432,28.8374384 L39.3482432,28.8374384 L39.3482432,25.6945813 Z M39.3482432,41.408867 L42.3482432,41.408867 L42.3482432,44.5517241 L39.3482432,44.5517241 L39.3482432,41.408867 Z M33.3482432,41.408867 L36.3482432,41.408867 L36.3482432,44.5517241 L33.3482432,44.5517241 L33.3482432,41.408867 Z" id="Shape"></path>
                        </g>
                    </g>
                </g>
            </g>
        </g>
    </g>
</svg>