<svg xmlns="http://www.w3.org/2000/svg" xmlns:xlink="http://www.w3.org/1999/xlink" id="Layer_1" x="0" y="0" version="1.1" viewBox="0 0 47 47" xml:space="preserve" style="enable-background:new 0 0 47 47"><style type="text/css">.st0{fill:currentColor}</style><title>Quote of the day</title><path id="Shape" d="M46.5,42.6L43,34.9c2.1-3.5,3.2-7.5,3.2-11.7c0-12.6-10.3-23-23-23s-23,10.3-23,23s10.3,23,23,23	c4.1,0,8.1-1.1,11.7-3.2l7.8,3.5c0.4,0.2,0.8,0.2,1.2,0.2c0.7,0,1.5-0.3,2.1-0.9C46.8,45,47,43.8,46.5,42.6z M35.4,39.9	c-0.2-0.1-0.4-0.1-0.6-0.1c-0.3,0-0.6,0.1-0.8,0.2c-3.2,2.1-7,3.1-10.8,3.1c-11,0-19.9-8.9-19.9-19.9s9-19.9,20-19.9	s19.9,8.9,19.9,19.9c0,3.8-1.1,7.5-3.1,10.8c-0.3,0.4-0.3,1-0.1,1.5l3.8,8.2L35.4,39.9z" class="st0"/><path id="Path" d="M17.5,16.2c-1.1,0-2,0.4-2.8,1.2c-0.8,0.8-1.2,1.7-1.2,2.7c0,1,0.3,1.9,1,2.6s1.7,1,2.6,1	c-0.1,1.3-0.9,2.6-1.6,3.5c-0.1,0.1-0.2,0.3-0.3,0.4c-0.2,0.2-0.2,0.5,0,0.7l1.5,1.6c0.2,0.2,0.6,0.2,0.8,0c0.6-0.7,1.2-1.5,1.8-2.4	c1.5-2.3,2.2-4.6,2.2-7c0-1.4-0.4-2.4-1.2-3.3C19.5,16.6,18.5,16.2,17.5,16.2z" class="st0"/><path id="Path_1_" d="M28.9,16.2c-1.1,0-2,0.4-2.8,1.2c-0.8,0.8-1.2,1.7-1.2,2.7c0,1,0.3,1.9,1,2.6c0.6,0.8,1.7,1,2.6,1	c-0.1,1.3-0.9,2.6-1.6,3.5c-0.1,0.1-0.2,0.3-0.3,0.4c-0.2,0.2-0.2,0.5,0,0.7l1.5,1.6c0.2,0.2,0.6,0.2,0.8,0c0.6-0.7,1.2-1.5,1.8-2.4	c1.5-2.3,2.2-4.6,2.2-7c0-1.4-0.4-2.4-1.2-3.3C30.9,16.6,30,16.2,28.9,16.2z" class="st0"/></svg>