<svg width="25" height="25" viewBox="0 0 25 25" fill="none" xmlns="http://www.w3.org/2000/svg">
<path fill-rule="evenodd" clip-rule="evenodd" d="M17.9892 12.902L23.5773 18.4936C24.1389 19.055 24.1389 19.9623 23.5818 20.5282L20.5317 23.5778C20.2532 23.8607 19.8848 24 19.5165 24C19.1481 24 18.7798 23.8562 18.5013 23.5778L12.9086 17.9861C11.6777 16.7555 11.525 14.8602 12.4504 13.4634L8.60963 9.62331H5.31243L1 3.87443L3.87495 1L9.62485 5.31165V8.60827L13.4656 12.4483C14.0631 12.0486 14.7548 11.851 15.4466 11.851C16.3675 11.851 17.2884 12.2013 17.9892 12.902ZM8.18811 8.18629V8.10096V6.03046L4.01045 2.90003L2.9009 4.00938L6.0319 8.18629H8.18811ZM19.5112 22.5583L13.9231 16.9666C13.5143 16.5579 13.2897 16.0189 13.2897 15.444C13.2897 14.8691 13.5143 14.3257 13.9231 13.9215C14.3318 13.5128 14.8709 13.2882 15.4459 13.2882C16.0209 13.2882 16.5644 13.5128 16.9687 13.9215L22.5614 19.5087L19.5112 22.5583ZM4.59373 21.1206C4.19843 21.1206 3.875 20.7973 3.875 20.402C3.875 20.0068 4.19843 19.6834 4.59373 19.6834C4.98904 19.6834 5.31247 20.0068 5.31247 20.402C5.31247 20.7973 4.98904 21.1206 4.59373 21.1206ZM13.4343 4.00424C14.454 2.98471 15.7972 2.43677 17.1987 2.43677C17.5087 2.43677 17.8186 2.46372 18.1286 2.51762L15.0155 5.63458L15.6355 9.36237L19.3684 9.98217L22.4814 6.86969C22.7824 8.58537 22.2433 10.319 20.9945 11.5631C20.5947 11.9628 20.1365 12.2817 19.6469 12.5287L20.707 13.5887C21.1742 13.3102 21.6145 12.9779 22.0098 12.5781C23.7078 10.8804 24.3771 8.47309 23.7931 6.1421C23.6898 5.71543 23.3574 5.37858 22.9351 5.2618C22.5084 5.14503 22.0502 5.2618 21.7357 5.5762L18.8653 8.44614L16.8798 8.11378L16.5474 6.12863L19.4178 3.25868C19.7278 2.94878 19.8491 2.49067 19.7323 2.06849C19.6155 1.64181 19.2741 1.31395 18.8473 1.20616C16.5249 0.626777 14.1171 1.29149 12.4146 2.9892C11.8351 3.56858 11.3859 4.24228 11.0625 4.96538V8.01048L12.0552 9.00306C11.624 7.18857 12.1271 5.31121 13.4343 4.00424ZM3.01247 21.9791C3.75816 22.7247 5.06087 22.7247 5.80656 21.9791L10.6985 17.0881C10.8647 17.5597 11.0938 18.0133 11.3947 18.4265L6.82177 22.9942C6.1794 23.6409 5.32141 23.9957 4.40951 23.9957C3.49761 23.9957 2.63962 23.6409 1.99725 22.9987C0.667584 21.6648 0.667584 19.4999 1.99725 18.1705L8.56022 11.6087L9.57544 12.6238L3.01247 19.1856C2.24431 19.9536 2.24431 21.2111 3.01247 21.9791Z" fill="#393C63"/>
<path d="M23.5773 18.4936L23.4005 18.6704L23.4006 18.6704L23.5773 18.4936ZM17.9892 12.902L18.166 12.7252L18.1659 12.7252L17.9892 12.902ZM23.5818 20.5282L23.7586 20.705L23.76 20.7036L23.5818 20.5282ZM20.5317 23.5778L20.3549 23.401L20.3535 23.4024L20.5317 23.5778ZM18.5013 23.5778L18.678 23.401L18.5013 23.5778ZM12.9086 17.9861L12.7318 18.1629L12.9086 17.9861ZM12.4504 13.4634L12.6588 13.6014L12.7717 13.4311L12.6271 13.2866L12.4504 13.4634ZM8.60963 9.62331L8.78639 9.44651L8.71317 9.37331H8.60963V9.62331ZM5.31243 9.62331L5.11244 9.77332L5.18744 9.87331H5.31243V9.62331ZM1 3.87443L0.823239 3.69764L0.669881 3.85097L0.800013 4.02445L1 3.87443ZM3.87495 1L4.02493 0.799987L3.85149 0.669931L3.69819 0.823207L3.87495 1ZM9.62485 5.31165H9.87485V5.18664L9.77483 5.11164L9.62485 5.31165ZM9.62485 8.60827H9.37485V8.71184L9.44809 8.78506L9.62485 8.60827ZM13.4656 12.4483L13.2888 12.6251L13.434 12.7703L13.6046 12.6561L13.4656 12.4483ZM8.18811 8.18629V8.43629H8.43811V8.18629H8.18811ZM8.18811 6.03046H8.43811V5.9054L8.33803 5.8304L8.18811 6.03046ZM4.01045 2.90003L4.16037 2.69996L3.98694 2.57001L3.83369 2.72323L4.01045 2.90003ZM2.9009 4.00938L2.72414 3.83258L2.57084 3.98586L2.70086 4.15933L2.9009 4.00938ZM6.0319 8.18629L5.83186 8.33624L5.90686 8.43629H6.0319V8.18629ZM13.9231 16.9666L14.0999 16.7899L14.0998 16.7898L13.9231 16.9666ZM19.5112 22.5583L19.3344 22.735L19.5112 22.9118L19.688 22.735L19.5112 22.5583ZM13.9231 13.9215L14.0988 14.0992L14.0998 14.0983L13.9231 13.9215ZM16.9687 13.9215L16.791 14.0973L16.792 14.0983L16.9687 13.9215ZM22.5614 19.5087L22.7381 19.6854L22.915 19.5086L22.7381 19.3318L22.5614 19.5087ZM13.4343 4.00424L13.6111 4.18103L13.4343 4.00424ZM18.1286 2.51762L18.3055 2.69428L18.6456 2.35376L18.1714 2.27131L18.1286 2.51762ZM15.0155 5.63458L14.8387 5.45792L14.7479 5.54884L14.7689 5.67559L15.0155 5.63458ZM15.6355 9.36237L15.3888 9.40338L15.4182 9.57971L15.5945 9.60899L15.6355 9.36237ZM19.3684 9.98217L19.3274 10.2288L19.4543 10.2498L19.5452 10.159L19.3684 9.98217ZM22.4814 6.86969L22.7277 6.82649L22.6446 6.35302L22.3047 6.6929L22.4814 6.86969ZM20.9945 11.5631L20.8181 11.386L20.8178 11.3863L20.9945 11.5631ZM19.6469 12.5287L19.5343 12.3055L19.2258 12.4612L19.4701 12.7055L19.6469 12.5287ZM20.707 13.5887L20.5303 13.7655L20.6679 13.9031L20.835 13.8034L20.707 13.5887ZM22.0098 12.5781L21.833 12.4013L21.832 12.4023L22.0098 12.5781ZM23.7931 6.1421L23.5501 6.20094L23.5506 6.20285L23.7931 6.1421ZM22.9351 5.2618L23.0018 5.02085L23.0011 5.02067L22.9351 5.2618ZM21.7357 5.5762L21.9125 5.75299L21.7357 5.5762ZM18.8653 8.44614L18.824 8.69271L18.951 8.71396L19.042 8.62293L18.8653 8.44614ZM16.8798 8.11378L16.6332 8.15507L16.6626 8.33092L16.8385 8.36035L16.8798 8.11378ZM16.5474 6.12863L16.3706 5.95183L16.2795 6.04289L16.3008 6.16991L16.5474 6.12863ZM19.4178 3.25868L19.241 3.08189L19.4178 3.25868ZM19.7323 2.06849L19.4911 2.13449L19.4913 2.13514L19.7323 2.06849ZM18.8473 1.20616L18.9085 0.963767L18.9078 0.96359L18.8473 1.20616ZM12.4146 2.9892L12.2381 2.81218L12.2379 2.81241L12.4146 2.9892ZM11.0625 4.96538L10.8343 4.8633L10.8125 4.91201V4.96538H11.0625ZM11.0625 8.01048H10.8125V8.11405L10.8857 8.18727L11.0625 8.01048ZM12.0552 9.00306L11.8785 9.17985L12.5025 9.80377L12.2985 8.94525L12.0552 9.00306ZM5.80656 21.9791L5.98332 22.1559L5.80656 21.9791ZM3.01247 21.9791L2.8357 22.1559L3.01247 21.9791ZM10.6985 17.0881L10.9342 17.005L10.8023 16.6307L10.5217 16.9113L10.6985 17.0881ZM11.3947 18.4265L11.5714 18.6034L11.7228 18.4522L11.5968 18.2793L11.3947 18.4265ZM6.82177 22.9942L6.6451 22.8173L6.6444 22.818L6.82177 22.9942ZM1.99725 22.9987L1.82019 23.1752L1.82049 23.1755L1.99725 22.9987ZM1.99725 18.1705L2.17401 18.3473H2.17401L1.99725 18.1705ZM8.56022 11.6087L8.73698 11.4319L8.56022 11.2552L8.38346 11.4319L8.56022 11.6087ZM9.57544 12.6238L9.7522 12.8006L9.92902 12.6238L9.7522 12.447L9.57544 12.6238ZM3.01247 19.1856L3.18923 19.3623L3.01247 19.1856ZM23.7542 18.3169L18.166 12.7252L17.8123 13.0787L23.4005 18.6704L23.7542 18.3169ZM23.76 20.7036C24.4125 20.0406 24.4135 18.9762 23.7541 18.3168L23.4006 18.6704C23.8642 19.1339 23.8652 19.8839 23.4037 20.3528L23.76 20.7036ZM20.7085 23.7546L23.7586 20.705L23.4051 20.3514L20.3549 23.401L20.7085 23.7546ZM19.5165 24.25C19.9477 24.25 20.3816 24.0867 20.7099 23.7532L20.3535 23.4024C20.1248 23.6348 19.8219 23.75 19.5165 23.75V24.25ZM18.3245 23.7546C18.651 24.081 19.0834 24.25 19.5165 24.25V23.75C19.2128 23.75 18.9085 23.6315 18.678 23.401L18.3245 23.7546ZM12.7318 18.1629L18.3245 23.7546L18.678 23.401L13.0853 17.8093L12.7318 18.1629ZM12.242 13.3253C11.2522 14.8193 11.4153 16.8466 12.7318 18.1629L13.0853 17.8093C11.9402 16.6644 11.7978 14.901 12.6588 13.6014L12.242 13.3253ZM8.43287 9.8001L12.2736 13.6402L12.6271 13.2866L8.78639 9.44651L8.43287 9.8001ZM5.31243 9.87331H8.60963V9.37331H5.31243V9.87331ZM0.800013 4.02445L5.11244 9.77332L5.51241 9.47329L1.19999 3.72442L0.800013 4.02445ZM3.69819 0.823207L0.823239 3.69764L1.17676 4.05123L4.05171 1.17679L3.69819 0.823207ZM9.77483 5.11164L4.02493 0.799987L3.72497 1.20001L9.47487 5.51167L9.77483 5.11164ZM9.87485 8.60827V5.31165H9.37485V8.60827H9.87485ZM13.6424 12.2715L9.80161 8.43148L9.44809 8.78506L13.2888 12.6251L13.6424 12.2715ZM15.4466 11.601C14.7074 11.601 13.9668 11.8122 13.3266 12.2406L13.6046 12.6561C14.1593 12.285 14.8023 12.101 15.4466 12.101V11.601ZM18.1659 12.7252C17.4162 11.9756 16.4308 11.601 15.4466 11.601V12.101C16.3042 12.101 17.1606 12.427 17.8124 13.0787L18.1659 12.7252ZM7.93811 8.10096V8.18629H8.43811V8.10096H7.93811ZM7.93811 6.03046V8.10096H8.43811V6.03046H7.93811ZM3.86054 3.10009L8.0382 6.23053L8.33803 5.8304L4.16037 2.69996L3.86054 3.10009ZM3.07766 4.18617L4.18721 3.07682L3.83369 2.72323L2.72414 3.83258L3.07766 4.18617ZM6.23194 8.03634L3.10094 3.85943L2.70086 4.15933L5.83186 8.33624L6.23194 8.03634ZM8.18811 7.93629H6.0319V8.43629H8.18811V7.93629ZM13.7462 17.1433L19.3344 22.735L19.6881 22.3815L14.0999 16.7899L13.7462 17.1433ZM13.0397 15.444C13.0397 16.0858 13.291 16.6882 13.7463 17.1434L14.0998 16.7898C13.7375 16.4275 13.5397 15.952 13.5397 15.444H13.0397ZM13.7473 13.7437C13.2905 14.1954 13.0397 14.803 13.0397 15.444H13.5397C13.5397 14.9352 13.738 14.456 14.0988 14.0992L13.7473 13.7437ZM15.4459 13.0382C14.804 13.0382 14.2015 13.2895 13.7463 13.7447L14.0998 14.0983C14.4621 13.736 14.9378 13.5382 15.4459 13.5382V13.0382ZM17.1464 13.7457C16.6947 13.289 16.0869 13.0382 15.4459 13.0382V13.5382C15.9548 13.5382 16.4341 13.7365 16.791 14.0973L17.1464 13.7457ZM22.7381 19.3318L17.1454 13.7446L16.792 14.0983L22.3847 19.6855L22.7381 19.3318ZM19.688 22.735L22.7381 19.6854L22.3846 19.3319L19.3345 22.3815L19.688 22.735ZM3.625 20.402C3.625 20.9354 4.0604 21.3706 4.59373 21.3706V20.8706C4.33646 20.8706 4.125 20.6592 4.125 20.402H3.625ZM4.59373 19.4334C4.0604 19.4334 3.625 19.8687 3.625 20.402H4.125C4.125 20.1449 4.33646 19.9334 4.59373 19.9334V19.4334ZM5.56247 20.402C5.56247 19.8687 5.12707 19.4334 4.59373 19.4334V19.9334C4.85101 19.9334 5.06247 20.1449 5.06247 20.402H5.56247ZM4.59373 21.3706C5.12707 21.3706 5.56247 20.9354 5.56247 20.402H5.06247C5.06247 20.6592 4.85101 20.8706 4.59373 20.8706V21.3706ZM17.1987 2.18677C15.7309 2.18677 14.3241 2.76105 13.2576 3.82745L13.6111 4.18103C14.5839 3.20838 15.8635 2.68677 17.1987 2.68677V2.18677ZM18.1714 2.27131C17.8475 2.21499 17.5232 2.18677 17.1987 2.18677V2.68677C17.4941 2.68677 17.7897 2.71245 18.0857 2.76392L18.1714 2.27131ZM15.1924 5.81125L18.3055 2.69428L17.9517 2.34095L14.8387 5.45792L15.1924 5.81125ZM15.8821 9.32135L15.2622 5.59357L14.7689 5.67559L15.3888 9.40338L15.8821 9.32135ZM19.4093 9.73554L15.6764 9.11574L15.5945 9.60899L19.3274 10.2288L19.4093 9.73554ZM22.3047 6.6929L19.1916 9.80537L19.5452 10.159L22.6582 7.04648L22.3047 6.6929ZM21.171 11.7402C22.478 10.4381 23.0427 8.62206 22.7277 6.82649L22.2352 6.91289C22.5221 8.54868 22.0087 10.1999 20.8181 11.386L21.171 11.7402ZM19.7595 12.7519C20.2704 12.4942 20.7509 12.1603 21.1713 11.7399L20.8178 11.3863C20.4386 11.7654 20.0027 12.0692 19.5343 12.3055L19.7595 12.7519ZM20.8838 13.4119L19.8237 12.3519L19.4701 12.7055L20.5303 13.7655L20.8838 13.4119ZM21.832 12.4023C21.4533 12.7852 21.0304 13.1049 20.579 13.3739L20.835 13.8034C21.3181 13.5155 21.7756 13.1705 22.1875 12.7539L21.832 12.4023ZM23.5506 6.20285C24.1132 8.44841 23.469 10.7656 21.833 12.4013L22.1865 12.7549C23.9465 10.9952 24.641 8.49777 24.0356 6.08135L23.5506 6.20285ZM22.8685 5.50276C23.2051 5.59586 23.4686 5.86435 23.5501 6.20094L24.0361 6.08326C23.911 5.5665 23.5096 5.1613 23.0018 5.02085L22.8685 5.50276ZM21.9125 5.75299C22.1622 5.50333 22.5273 5.40939 22.8691 5.50294L23.0011 5.02067C22.4895 4.88067 21.9382 5.02028 21.559 5.3994L21.9125 5.75299ZM19.042 8.62293L21.9125 5.75299L21.559 5.3994L18.6885 8.26935L19.042 8.62293ZM16.8385 8.36035L18.824 8.69271L18.9066 8.19957L16.921 7.86721L16.8385 8.36035ZM16.3008 6.16991L16.6332 8.15507L17.1263 8.07249L16.7939 6.08734L16.3008 6.16991ZM19.241 3.08189L16.3706 5.95183L16.7241 6.30542L19.5946 3.43547L19.241 3.08189ZM19.4913 2.13514C19.584 2.4703 19.4875 2.83548 19.241 3.08189L19.5946 3.43547C19.968 3.06208 20.1141 2.51104 19.9732 2.00183L19.4913 2.13514ZM18.7861 1.44854C19.1274 1.53475 19.3986 1.79662 19.4911 2.13449L19.9734 2.00248C19.8323 1.48701 19.4208 1.09315 18.9085 0.963768L18.7861 1.44854ZM12.5911 3.16623C14.2317 1.53031 16.5496 0.890591 18.7868 1.44872L18.9078 0.96359C16.5002 0.362963 14.0026 1.05267 12.2381 2.81218L12.5911 3.16623ZM11.2907 5.06745C11.6025 4.3703 12.0349 3.7224 12.5914 3.166L12.2379 2.81241C11.6354 3.41477 11.1693 4.11426 10.8343 4.8633L11.2907 5.06745ZM11.3125 8.01048V4.96538H10.8125V8.01048H11.3125ZM12.232 8.82627L11.2392 7.83369L10.8857 8.18727L11.8785 9.17985L12.232 8.82627ZM13.2576 3.82745C11.8866 5.19816 11.3615 7.16528 11.812 9.06087L12.2985 8.94525C11.8865 7.21187 12.3676 5.42426 13.6111 4.18103L13.2576 3.82745ZM5.6298 21.8024C4.98173 22.4503 3.83729 22.4503 3.18923 21.8024L2.8357 22.1559C3.67902 22.9991 5.14 22.9991 5.98332 22.1559L5.6298 21.8024ZM10.5217 16.9113L5.6298 21.8024L5.98332 22.1559L10.8752 17.2649L10.5217 16.9113ZM11.5968 18.2793C11.3116 17.8877 11.0933 17.4562 10.9342 17.005L10.4627 17.1712C10.6361 17.6632 10.876 18.1389 11.1927 18.5737L11.5968 18.2793ZM6.99845 23.1711L11.5714 18.6034L11.2181 18.2496L6.6451 22.8173L6.99845 23.1711ZM4.40951 24.2457C5.38756 24.2457 6.30953 23.8647 6.99915 23.1704L6.6444 22.818C6.04927 23.4172 5.25526 23.7457 4.40951 23.7457V24.2457ZM1.82049 23.1755C2.50991 23.8648 3.43156 24.2457 4.40951 24.2457V23.7457C3.56367 23.7457 2.76933 23.4171 2.17401 22.8219L1.82049 23.1755ZM1.82049 17.9937C0.393007 19.421 0.393435 21.7439 1.82019 23.1752L2.17431 22.8222C0.941733 21.5857 0.942161 19.5789 2.17401 18.3473L1.82049 17.9937ZM8.38346 11.4319L1.82049 17.9937L2.17401 18.3473L8.73698 11.7855L8.38346 11.4319ZM9.7522 12.447L8.73698 11.4319L8.38346 11.7855L9.39868 12.8006L9.7522 12.447ZM3.18923 19.3623L9.7522 12.8006L9.39868 12.447L2.8357 19.0088L3.18923 19.3623ZM3.18923 21.8024C2.51873 21.132 2.51873 20.0327 3.18923 19.3623L2.8357 19.0088C1.9699 19.8744 1.9699 21.2903 2.8357 22.1559L3.18923 21.8024Z" fill="#393C63"/>
</svg>
