<svg xmlns="http://www.w3.org/2000/svg" xmlns:xlink="http://www.w3.org/1999/xlink" width="25" height="39" version="1.1" viewBox="0 0 25 39"><title>Tor_1326434</title><g id="berty-networkmap-monitoring" fill="none" fill-rule="evenodd" stroke="none" stroke-width="1"><g id="networkmap/home/detailsPeerStatus/AllTypesWithFilters" fill="currentColor" fill-rule="nonzero" transform="translate(-280.000000, -133.000000)"><g id="Torlist-peers" transform="translate(244.000000, 126.000000)"><g id="Tor_1326434" transform="translate(36.000000, 7.000000)"><path id="Shape" d="M23.84678,22.9353708 C22.4331685,18.9722905 18.6635381,16.6133141 17.2499267,12.6502338 C16.7787229,11.6122842 17.4384082,10.6686936 17.2499267,9.63074402 C17.1575707,8.89096903 16.4319169,8.42546436 15.7822839,8.31789503 C16.2886709,7.73978855 16.7366287,7.25226677 17.4384082,6.70561331 C18.2865751,5.95074086 20.6425941,4.53535503 21.7734832,3.21432826 C22.0562055,2.83689204 22.1504463,2.36509676 21.867724,1.89330148 C21.8193471,1.84486384 21.7389283,1.80271679 21.6472006,1.76623129 C21.5102374,1.70017995 21.3688762,1.66243633 21.225002,1.64733888 C21.1068869,1.62280553 21.0195571,1.61022432 21.0195571,1.61022432 L21.1081434,1.63979016 C19.8151602,1.61274056 18.3318106,3.32630101 17.6268897,3.87484165 C17.3655287,4.06167258 16.9992463,4.26485908 16.6122309,4.48125584 C16.8962097,3.65781582 17.1556859,2.83689204 17.1556859,2.83689204 C17.3441674,2.36509676 18.0980935,1.2327881 17.8153713,0.57227471 C17.736209,0.414380557 17.5238532,0.199870971 17.2913926,0.131303391 C17.2769424,0.123125606 17.2643769,0.108028157 17.2499267,0.100479433 C16.1190376,-0.465674899 15.6478337,1.51586526 15.4593522,2.17637865 C15.0691955,3.08851619 14.5929655,3.95850668 14.1776779,4.87378951 C14.1726517,4.70016885 14.1619711,4.52654819 14.1399816,4.34663692 C14.0457408,4.15791881 13.9515,3.87484165 13.7630185,3.78048259 C13.7322332,3.78048259 13.6813432,3.76978857 13.6273118,3.75594924 C13.4199822,3.62699186 13.1831237,3.57855421 12.9148517,3.68612354 C12.6321294,3.78048259 12.5378886,3.9692007 12.4436479,4.15791881 C12.3494071,4.34663692 12.3494071,4.53535503 12.2551663,4.53535503 L12.2551663,4.72407315 C12.2551663,5.19586842 12.2551663,5.57330464 12.2551663,6.13945898 C12.2551663,6.23381803 12.2551663,6.42253614 12.2551663,6.42253614 C12.2551663,6.65465942 12.2419726,6.93773658 12.2350617,7.23968556 C11.7663709,7.55610293 11.3309786,7.9580725 11.0300365,8.30971725 C10.8415549,8.49843536 11.1242772,9.2533078 11.1242772,9.2533078 C11.1242772,9.34766686 11.0300365,9.53638497 11.0300365,9.53638497 C10.9357957,10.0081802 10.8415549,10.4799755 10.7473142,10.9517708 C10.5588326,11.6122842 10.1818696,12.933311 10.1818696,12.933311 C9.42794352,14.4430558 7.26040601,15.1979283 5.94103535,15.9528007 C3.86773861,17.2738275 2.26564567,18.8779314 1.13475654,21.0481897 C-0.184614117,23.6902433 -0.184614117,26.615374 0.286589688,29.5405047 C0.47507121,30.7671724 0.47507121,31.710763 0.852034255,32.8430716 C1.51171958,34.8246118 3.20805328,36.6174339 4.99862774,37.5610244 C6.50647992,38.504615 8.95673971,38.6933331 10.7473142,38.8820512 C12.2551663,39.0707693 13.4802962,38.9764102 14.9881484,38.9764102 C15.6478337,38.9764102 16.3075191,39.0707693 16.8729636,38.8820512 C20.7368348,37.5610244 23.9410207,34.5415346 24.7891876,30.4840953 C25.3546321,28.1251189 24.6949468,25.1056291 23.84678,22.9353708 Z M12.8573784,23.7102384 C12.9322693,24.3540493 11.9442348,25.0086705 11.6643793,25.5383731 C11.3273702,26.1767789 11.2485376,26.9328964 11.4791228,27.612141 C11.7090511,28.2883827 12.8481813,28.8090767 12.978255,29.3165583 C13.189132,30.1399396 11.8115334,30.057061 11.2110922,29.8925048 C10.8169295,29.8024193 10.3242261,29.8024193 10.028604,29.4420774 C9.29743219,28.1052088 8.56034792,26.3034992 9.32042502,24.8561258 C9.70670448,24.1210282 12.5821215,21.9115316 12.8494952,23.6537849 C12.8521229,23.6718019 12.8547507,23.6910202 12.8573784,23.7102384 Z M13.8258716,35.7895836 C13.5798608,36.0539247 13.1498162,36.0170399 12.7880727,35.95618 C10.8743742,35.6358969 8.92336287,35.2332378 7.28160427,34.2250531 C4.81074493,32.7072433 4.49706532,30.4511227 4.11571692,27.8900876 C3.74322238,25.3917568 4.27002705,22.5454792 5.69613092,20.4153817 C7.13741284,18.2631532 9.74993394,16.7822283 12.3795303,17.0262827 C12.4592151,17.0336597 12.5445916,17.0447251 12.6040389,17.0975934 C12.6786643,17.163986 12.6881506,17.2734109 12.6925775,17.3717704 C12.7336847,18.3233984 13.1011199,20.1203032 12.2429279,20.8795155 C12.1132821,20.9938584 11.9444264,21.0547183 11.7793651,21.1131193 C11.1652867,21.3301249 10.5505758,21.5477452 9.93649742,21.7647508 C9.47483186,21.9282735 9.00115036,22.0979436 8.63498001,22.4163824 C8.0455659,22.9284665 7.83560294,23.7300962 7.71544341,24.4893085 C7.42010394,26.3612124 7.38785059,28.6333165 8.3896016,30.3029687 C8.57932717,30.6718168 8.86391553,30.9484528 9.24336667,31.2250888 C9.43309224,31.3173009 9.81254338,31.5939369 9.81254338,31.5939369 L9.90740616,31.5939369 C10.0022689,31.6861489 10.1919945,31.7783609 10.1919945,31.7783609 C10.7611712,32.054997 11.3303479,32.239421 11.9943874,32.239421 C12.8494173,32.239421 13.5792284,31.4814382 13.7316412,32.7982258 C13.8132232,33.5064141 13.8954377,34.2146024 13.9770196,34.9234054 C14.0124351,35.2240166 14.0345697,35.5658158 13.8258716,35.7895836 Z"/></g></g></g></g></svg>