<svg xmlns="http://www.w3.org/2000/svg" xmlns:xlink="http://www.w3.org/1999/xlink" width="18" height="18" version="1.1" viewBox="0 0 18 18"><title>VOLUME ICON</title><g id="berty" fill="none" fill-rule="evenodd" stroke="none" stroke-width="1"><g id="main/Sticky-Player-Pause" fill="currentColor" fill-rule="nonzero" transform="translate(-321.000000, -77.000000)"><g id="BOTTOM-BAR" transform="translate(10.000000, 60.000000)"><g id="VOLUME-ICON" transform="translate(311.000000, 17.000000)"><path id="Shape" d="M10.83525,0.0859090909 C10.58175,-0.0507272727 10.27725,-0.0220909091 10.05,0.163636364 L4.25025,4.90909091 L0.75,4.90909091 C0.33525,4.90909091 0,5.27481818 0,5.72727273 L0,12.2727273 C0,12.7251818 0.33525,13.0909091 0.75,13.0909091 L4.25025,13.0909091 L10.05,17.8363636 C10.182,17.9451818 10.341,18 10.5,18 C10.614,18 10.7295,17.9713636 10.83525,17.9140909 C11.0895,17.775 11.25,17.4919091 11.25,17.1818182 L11.25,0.818181818 C11.25,0.508090909 11.0895,0.225 10.83525,0.0859090909 Z"/><path id="Shape" d="M13.68225,5.52927273 L13.152,4.95081818 L12.0915,6.10772727 L12.62175,6.68618182 C13.79175,7.96254545 13.79175,10.0382727 12.62175,11.3138182 L12.0915,11.8922727 L13.152,13.0491818 L13.68225,12.4707273 C15.4365,10.557 15.4365,7.443 13.68225,5.52927273 Z"/><path id="Shape" d="M15.273,2.63618182 L14.2125,3.79309091 L14.74275,4.37154545 C17.082,6.92345455 17.082,11.0765455 14.74275,13.6284545 L14.2125,14.2069091 L15.273,15.3638182 L15.80325,14.7853636 C18.7275,11.5952727 18.7275,6.40472727 15.80325,3.21381818 L15.273,2.63618182 Z"/></g></g></g></g></svg>