<?xml version="1.0" encoding="UTF-8"?>
<svg width="62px" height="72px" viewBox="0 0 62 72" version="1.1"
    xmlns="http://www.w3.org/2000/svg"
    xmlns:xlink="http://www.w3.org/1999/xlink">
    <title>noun_Wrong Man_973736</title>
    <g id="berty" stroke="none" stroke-width="1" fill="none" fill-rule="evenodd">
        <g id="errorpage/7" transform="translate(-157.000000, -254.000000)" fill="currentColor" fill-rule="nonzero">
            <g id="Group" transform="translate(157.000000, 254.000000)">
                <ellipse id="Oval" cx="31" cy="26.3992" rx="9.85720513" ry="9.9208"></ellipse>
                <path d="M61.5175128,40.2544 C61.4197436,39.92 61.2909744,39.592 61.0986154,39.2824 L52.4305385,25.4128 C51.2922821,23.5888 48.8989231,23.0408 47.0850256,24.1872 C45.2735128,25.3344 44.7298205,27.7416 45.8680769,29.5672 L50.9910256,37.7688 L41.6314103,37.7688 C41.5598718,37.7688 41.4946923,37.7856 41.4247436,37.7888 C41.3532051,37.7856 41.2880256,37.7688 41.2164872,37.7688 L20.7819231,37.7688 C20.7119744,37.7688 20.6444103,37.7872 20.5744615,37.7888 C20.5045128,37.7856 20.4369487,37.7688 20.367,37.7688 L11.0065897,37.7688 L16.1311282,29.5672 C17.2717692,27.7424 16.7248974,25.3344 14.9133846,24.1872 C13.1010769,23.0392 10.7085128,23.5888 9.56787179,25.4128 L0.901384615,39.2832 C0.703461538,39.6 0.575487179,39.9392 0.475333333,40.2816 C0.310794872,40.716 0.210641026,41.18 0.210641026,41.672 C0.210641026,43.8248 1.94584615,45.5704 4.08802564,45.5704 L16.7948462,45.5704 L16.7948462,67.8656 C16.7948462,70.0816 18.5801282,71.8784 20.7819231,71.8784 L41.2164872,71.8784 C43.4182821,71.8784 45.2035641,70.0816 45.2035641,67.8656 L45.2035641,45.5704 L57.9103846,45.5704 C60.0525641,45.5704 61.7885641,43.8248 61.7885641,41.672 C61.7885641,41.1704 61.6876154,40.6952 61.5175128,40.2544 Z" id="Path"></path>
                <polygon id="Path" points="25.4851795 8.508 28.1964872 11.236 31.0453077 8.3672 33.914 11.252 36.5299231 8.6184 33.6644103 5.7328 36.5148205 2.8656 33.8035128 0.1352 30.9538974 3.004 28.0875897 0.1216 25.4700769 2.7552 28.3347949 5.6392"></polygon>
            </g>
        </g>
    </g>
</svg>