<svg xmlns="http://www.w3.org/2000/svg" xmlns:xlink="http://www.w3.org/1999/xlink" width="35" height="33" version="1.1" viewBox="0 0 35 33"><title>Group</title><defs><filter id="filter-1"><feColorMatrix in="SourceGraphic" type="matrix" values="0 0 0 0 0.780392 0 0 0 0 0.784314 0 0 0 0 0.847059 0 0 0 1.000000 0"/></filter></defs><g id="berty" fill="none" fill-rule="evenodd" stroke="none" stroke-width="1"><g id="Camera_2818152" filter="url(#filter-1)" transform="translate(-177.000000, -579.000000)"><g id="Group" fill="currentColor" fill-rule="nonzero" transform="translate(177.000000, 579.000000)"><path id="Shape" d="M31.6866667,32.9999981 L3.31333333,32.9999981 C1.48608749,32.9935345 0.00640021941,31.4987484 0,29.6528571 L0,10.4185714 C0.00640021941,8.57268022 1.48608749,7.0778941 3.31333333,7.07142857 L8.49333333,7.07142857 L9.92833333,2.73428571 C10.4663873,1.10024343 11.9803227,-0.00167283766 13.685,-1.9020337e-06 L21.3266667,-1.9020337e-06 C23.0313439,-0.00167283766 24.5452794,1.10024343 25.0833333,2.73428571 L26.5066667,7.07142857 L31.6866667,7.07142857 C33.5139125,7.0778941 34.9935998,8.57268022 35,10.4185714 L35,29.6528571 C34.9935998,31.4987484 33.5139125,32.9935345 31.6866667,32.9999981 Z M3.31333333,9.42857143 C2.77209428,9.42857143 2.33333333,9.87180953 2.33333333,10.4185714 L2.33333333,29.6528571 C2.33333333,30.199619 2.77209428,30.6428571 3.31333333,30.6428571 L31.6866667,30.6428571 C32.2279057,30.6428571 32.6666667,30.199619 32.6666667,29.6528571 L32.6666667,10.4185714 C32.6666667,9.87180953 32.2279057,9.42857143 31.6866667,9.42857143 L26.2616667,9.42857143 C25.4099116,9.42758155 24.6538905,8.87731242 24.3833333,8.06142857 L22.8666667,3.53571429 C22.666292,2.84311054 22.0409179,2.36450791 21.3266667,2.35714286 L13.685,2.35714286 C12.9664202,2.35931968 12.3349469,2.83895647 12.1333333,3.53571429 L10.6283333,8.06142857 C10.3564194,8.88143429 9.59437935,9.43266052 8.73833333,9.42857143 L3.31333333,9.42857143 Z"/><path id="Shape" d="M31.6866667,8.25 L26.2616667,8.25 C25.9071862,8.2527948 25.5914007,8.02425193 25.48,7.68428571 L23.975,3.11142857 C23.597454,1.95743186 22.5297801,1.17820175 21.3266667,1.1785713 L13.6733333,1.1785713 C12.4702199,1.17820175 11.402546,1.95743186 11.025,3.11142857 L9.52,7.68428571 C9.40859926,8.02425193 9.0928138,8.2527948 8.73833333,8.25 L3.31333333,8.25 C2.12776207,8.25 1.16666667,9.2209025 1.16666667,10.4185714 L1.16666667,29.6528571 C1.16666667,30.8505261 2.12776207,31.8214286 3.31333333,31.8214286 L31.6866667,31.8214286 C32.2559981,31.8214286 32.8020111,31.5929547 33.2045892,31.1862687 C33.6071673,30.7795827 33.8333333,30.227998 33.8333333,29.6528571 L33.8333333,10.4185714 C33.8333333,9.84343053 33.6071673,9.2918459 33.2045892,8.88515987 C32.8020111,8.47847383 32.2559981,8.25 31.6866667,8.25 Z M17.5,25.74 C14.278339,25.74 11.6666667,23.101678 11.6666667,19.8471429 C11.6666667,16.5926077 14.278339,13.9542857 17.5,13.9542857 C20.721661,13.9542857 23.3333333,16.5926077 23.3333333,19.8471429 C23.3333333,21.4100257 22.7187518,22.908897 21.6247896,24.0140221 C20.5308273,25.1191472 19.0470962,25.74 17.5,25.74 Z M28.4433333,13.9542857 C27.7990011,13.9542857 27.2766667,13.4266213 27.2766667,12.7757143 C27.2766667,12.1248073 27.7990011,11.5971429 28.4433333,11.5971429 C29.0876655,11.5971429 29.61,12.1248073 29.61,12.7757143 C29.61,13.0882909 29.4870837,13.3880651 29.2682912,13.6090901 C29.0494988,13.8301152 28.7527526,13.9542857 28.4433333,13.9542857 L28.4433333,13.9542857 Z"/></g></g></g></svg>