<svg width="34" height="34" viewBox="0 0 34 34" fill="none" xmlns="http://www.w3.org/2000/svg">
<path d="M11.4444 12.1166C11.7052 12.2665 12.0333 12.2278 12.2515 12.0207C13.0431 11.27 14.0097 10.7131 15.0474 10.4101C15.3374 10.3255 15.5366 10.0596 15.5366 9.75734V8.1454H18.4644V9.75734C18.4644 10.1327 18.769 10.4373 19.1444 10.4373C19.5197 10.4373 19.8244 10.1327 19.8244 9.75734V7.4654C19.8244 7.09004 19.5197 6.7854 19.1444 6.7854H14.8566C14.4813 6.7854 14.1766 7.09004 14.1766 7.4654V9.26468C13.278 9.59074 12.4348 10.0766 11.6973 10.6934L10.1299 9.79202C9.80523 9.60502 9.39043 9.7162 9.20241 10.0406L7.05837 13.7435C6.96793 13.8996 6.94345 14.0859 6.99003 14.2603C7.03661 14.4347 7.15119 14.5836 7.30793 14.6734L8.87261 15.5734C8.78999 16.0409 8.74817 16.5186 8.74817 16.9997C8.74817 17.4808 8.78999 17.9585 8.87261 18.426L7.30793 19.326C7.15119 19.4161 7.03695 19.5646 6.99003 19.7391C6.94311 19.9135 6.96793 20.0998 7.05837 20.2559L9.20241 23.9588C9.32855 24.1767 9.55669 24.2985 9.79163 24.2985C9.90655 24.2985 10.0232 24.2692 10.1299 24.2077L12.122 23.0615C12.4477 22.8742 12.5596 22.4587 12.3722 22.1333C12.1852 21.8076 11.7691 21.6954 11.444 21.8831L10.0395 22.6909L8.57715 20.1651L9.97829 19.3589C10.2404 19.2083 10.3717 18.902 10.2999 18.6082C10.1728 18.088 10.1082 17.5467 10.1082 17C10.1082 16.4533 10.1728 15.912 10.2999 15.3918C10.3717 15.0977 10.2408 14.7917 9.97829 14.6411L8.57715 13.835L10.0395 11.3091L11.4444 12.1166Z" fill="#6E6DFF"/>
<path d="M27.0097 14.2598C27.0566 14.0854 27.0318 13.8994 26.9413 13.743L24.7973 10.0401C24.6096 9.71573 24.1948 9.60489 23.8694 9.79155L21.8798 10.9377C21.5544 11.125 21.4425 11.5408 21.6299 11.8662C21.8172 12.1916 22.233 12.3035 22.5584 12.1161L23.9609 11.3086L25.4232 13.8345L24.0235 14.6403C23.7613 14.7912 23.6304 15.0972 23.7022 15.391C23.8293 15.9112 23.8939 16.4525 23.8939 16.9992C23.8939 17.5459 23.8293 18.0872 23.7022 18.6074C23.6304 18.9012 23.7613 19.2072 24.0235 19.3581L25.4232 20.1639L23.9609 22.6898L22.5584 21.8823C22.2976 21.7323 21.9692 21.7711 21.7512 21.9782C20.9601 22.7282 19.9928 23.2861 18.9541 23.5911C18.6644 23.6761 18.4655 23.9417 18.4655 24.2436V25.8538H15.5377V24.2436C15.5377 23.8682 15.2331 23.5636 14.8577 23.5636C14.4824 23.5636 14.1777 23.8682 14.1777 24.2436V26.5338C14.1777 26.9092 14.4824 27.2138 14.8577 27.2138H19.1455C19.5208 27.2138 19.8255 26.9092 19.8255 26.5338V24.7356C20.7244 24.4085 21.5676 23.9219 22.3044 23.3055L23.8698 24.2069C24.1952 24.3942 24.61 24.283 24.7976 23.9583L26.9417 20.2554C27.0321 20.0993 27.0566 19.9133 27.01 19.7386C26.9634 19.5642 26.8492 19.4152 26.6925 19.3251L25.1295 18.4255C25.2121 17.958 25.2539 17.48 25.2539 16.9989C25.2539 16.5178 25.2121 16.0397 25.1295 15.5722L26.6925 14.6726C26.8489 14.5832 26.9631 14.4346 27.0097 14.2598Z" fill="#6E6DFF"/>
<path d="M26.792 4.2007C27.1674 4.2007 27.472 3.89606 27.472 3.5207V0.68C27.472 0.30464 27.1674 0 26.792 0C26.4166 0 26.112 0.30464 26.112 0.68V2.8407H24.208V0.68C24.208 0.30464 23.9034 0 23.528 0C23.1526 0 22.848 0.30464 22.848 0.68V2.8407H20.944V0.68C20.944 0.30464 20.6394 0 20.264 0C19.8886 0 19.584 0.30464 19.584 0.68V2.8407H17.68V0.68C17.68 0.30464 17.3754 0 17 0C16.6246 0 16.32 0.30464 16.32 0.68V2.8407H14.416V0.68C14.416 0.30464 14.1114 0 13.736 0C13.3606 0 13.056 0.30464 13.056 0.68V2.8407H11.1517V0.68C11.1517 0.30464 10.847 0 10.4717 0C10.0963 0 9.79166 0.30464 9.79166 0.68V2.8407H7.88766V0.68C7.88766 0.30464 7.58302 0 7.20766 0C6.8323 0 6.52766 0.30464 6.52766 0.68V2.8407H3.5207C3.14534 2.8407 2.8407 3.14534 2.8407 3.5207V6.528H0.68C0.30464 6.528 0 6.83264 0 7.208C0 7.58336 0.30464 7.888 0.68 7.888H2.8407V9.792H0.68C0.30464 9.792 0 10.0966 0 10.472C0 10.8474 0.30464 11.152 0.68 11.152H2.8407V13.056H0.68C0.30464 13.056 0 13.3606 0 13.736C0 14.1114 0.30464 14.416 0.68 14.416H2.8407V16.32H0.68C0.30464 16.32 0 16.6246 0 17C0 17.3754 0.30464 17.68 0.68 17.68H2.8407V19.584H0.68C0.30464 19.584 0 19.8886 0 20.264C0 20.6394 0.30464 20.944 0.68 20.944H2.8407V22.848H0.68C0.30464 22.848 0 23.1526 0 23.528C0 23.9034 0.30464 24.208 0.68 24.208H2.8407V26.112H0.68C0.30464 26.112 0 26.4166 0 26.792C0 27.1674 0.30464 27.472 0.68 27.472H2.8407V30.479C2.8407 30.8543 3.14534 31.159 3.5207 31.159C3.89606 31.159 4.2007 30.8543 4.2007 30.479V4.2007H26.792Z" fill="#6E6DFF"/>
<path d="M33.3197 11.152C33.695 11.152 33.9997 10.8474 33.9997 10.472C33.9997 10.0967 33.695 9.79202 33.3197 9.79202H31.1586V7.88802H33.3197C33.695 7.88802 33.9997 7.58338 33.9997 7.20802C33.9997 6.83266 33.695 6.52802 33.3197 6.52802H31.1586V3.52106C31.1586 3.1457 30.854 2.84106 30.4786 2.84106C30.1033 2.84106 29.7986 3.1457 29.7986 3.52106V29.7993H7.20734C6.83198 29.7993 6.52734 30.104 6.52734 30.4793V33.32C6.52734 33.6954 6.83198 34 7.20734 34C7.5827 34 7.88734 33.6954 7.88734 33.32V31.1593H9.79134V33.32C9.79134 33.6954 10.096 34 10.4713 34C10.8467 34 11.1513 33.6954 11.1513 33.32V31.1593H13.0557V33.32C13.0557 33.6954 13.3603 34 13.7357 34C14.111 34 14.4157 33.6954 14.4157 33.32V31.1593H16.3197V33.32C16.3197 33.6954 16.6243 34 16.9997 34C17.375 34 17.6797 33.6954 17.6797 33.32V31.1593H19.5837V33.32C19.5837 33.6954 19.8883 34 20.2637 34C20.639 34 20.9437 33.6954 20.9437 33.32V31.1593H22.8477V33.32C22.8477 33.6954 23.1523 34 23.5277 34C23.903 34 24.2077 33.6954 24.2077 33.32V31.1593H26.1117V33.32C26.1117 33.6954 26.4163 34 26.7917 34C27.167 34 27.4717 33.6954 27.4717 33.32V31.1593H30.4786C30.854 31.1593 31.1586 30.8547 31.1586 30.4793V27.472H33.3197C33.695 27.472 33.9997 27.1674 33.9997 26.792C33.9997 26.4167 33.695 26.112 33.3197 26.112H31.1586V24.208H33.3197C33.695 24.208 33.9997 23.9034 33.9997 23.528C33.9997 23.1527 33.695 22.848 33.3197 22.848H31.1586V20.944H33.3197C33.695 20.944 33.9997 20.6394 33.9997 20.264C33.9997 19.8887 33.695 19.584 33.3197 19.584H31.1586V17.68H33.3197C33.695 17.68 33.9997 17.3754 33.9997 17C33.9997 16.6247 33.695 16.32 33.3197 16.32H31.1586V14.416H33.3197C33.695 14.416 33.9997 14.1114 33.9997 13.736C33.9997 13.3607 33.695 13.056 33.3197 13.056H31.1586V11.152H33.3197Z" fill="#6E6DFF"/>
<path fill-rule="evenodd" clip-rule="evenodd" d="M21.2589 16.9999C21.2589 19.3486 19.3485 21.2594 16.9998 21.2594C14.651 21.2594 12.7402 19.3486 12.7402 16.9999C12.7402 14.6512 14.651 12.7407 16.9998 12.7407C19.3485 12.7407 21.2589 14.6512 21.2589 16.9999ZM19.8989 16.9999C19.8989 15.4012 18.5984 14.1007 16.9998 14.1007C15.4011 14.1007 14.1002 15.4012 14.1002 16.9999C14.1002 18.5986 15.4011 19.8994 16.9998 19.8994C18.5984 19.8994 19.8989 18.5986 19.8989 16.9999Z" fill="#6E6DFF"/>
</svg>
