<svg width="16" height="29" viewBox="0 0 16 29" fill="none" xmlns="http://www.w3.org/2000/svg">
<path fill-rule="evenodd" clip-rule="evenodd" d="M9.36862 14.2356L15.0609 8.54329C15.5353 8.06893 15.5353 7.35739 15.0609 6.88303L8.53849 0.360575C8.18272 0.00480507 7.70835 -0.113785 7.23399 0.123395C6.75963 0.241985 6.52245 0.716345 6.52245 1.19071V11.3895L2.01603 6.88303C1.54167 6.40867 0.830131 6.40867 0.35577 6.88303C-0.11859 7.35739 -0.11859 8.06893 0.35577 8.54329L6.04809 14.2356L0.35577 19.9279C-0.11859 20.4023 -0.11859 21.1138 0.35577 21.5882C0.830131 22.0626 1.54167 22.0626 2.01603 21.5882L6.52245 17.0818V27.2805C6.52245 27.7549 6.75963 28.2292 7.23399 28.3478C7.35258 28.4664 7.58977 28.4664 7.70836 28.4664C8.06413 28.4664 8.30131 28.3478 8.53849 28.1107L15.0609 21.5882C15.5353 21.1138 15.5353 20.4023 15.0609 19.9279L9.36862 14.2356ZM8.89434 4.0371L12.5706 7.71339L8.89434 11.3897V4.0371ZM8.89434 17.0826V24.4352L12.5706 20.7589L8.89434 17.0826Z" fill="#6E6DFF"/>
<mask id="mask0_233:38649" style="mask-type:alpha" maskUnits="userSpaceOnUse" x="0" y="0" width="16" height="29">
<path fill-rule="evenodd" clip-rule="evenodd" d="M9.36862 14.2356L15.0609 8.54329C15.5353 8.06893 15.5353 7.35739 15.0609 6.88303L8.53849 0.360575C8.18272 0.00480507 7.70835 -0.113785 7.23399 0.123395C6.75963 0.241985 6.52245 0.716345 6.52245 1.19071V11.3895L2.01603 6.88303C1.54167 6.40867 0.830131 6.40867 0.35577 6.88303C-0.11859 7.35739 -0.11859 8.06893 0.35577 8.54329L6.04809 14.2356L0.35577 19.9279C-0.11859 20.4023 -0.11859 21.1138 0.35577 21.5882C0.830131 22.0626 1.54167 22.0626 2.01603 21.5882L6.52245 17.0818V27.2805C6.52245 27.7549 6.75963 28.2292 7.23399 28.3478C7.35258 28.4664 7.58977 28.4664 7.70836 28.4664C8.06413 28.4664 8.30131 28.3478 8.53849 28.1107L15.0609 21.5882C15.5353 21.1138 15.5353 20.4023 15.0609 19.9279L9.36862 14.2356ZM8.89434 4.0371L12.5706 7.71339L8.89434 11.3897V4.0371ZM8.89434 17.0826V24.4352L12.5706 20.7589L8.89434 17.0826Z" fill="white"/>
</mask>
<g mask="url(#mask0_233:38649)">
</g>
</svg>
