<svg xmlns="http://www.w3.org/2000/svg" xmlns:xlink="http://www.w3.org/1999/xlink" width="27" height="36" version="1.1" viewBox="0 0 27 36"><title>File_icon</title><defs><filter id="filter-1"><feColorMatrix in="SourceGraphic" type="matrix" values="0 0 0 0 0.780392 0 0 0 0 0.784314 0 0 0 0 0.847059 0 0 0 1.000000 0"/></filter></defs><g id="berty" fill="none" fill-rule="evenodd" stroke="none" stroke-width="1"><g id="File_icon" filter="url(#filter-1)" transform="translate(-62.000000, -662.000000)"><g transform="translate(62.000000, 662.000000)"><path id="Shape" fill="currentColor" fill-rule="nonzero" d="M18,0 L15.75,0 L13.5,0 L9,0 L2.25,0 C1.009125,0 0,1.008 0,2.25 L0,33.75 C0,34.992 1.008,36 2.25,36 L24.75,36 C25.993125,36 27,34.992 27,33.75 L27,13.5 L27,11.25 L27,9 L18,0 Z M23.8185,9 L18,9 L18,3.1815 L23.8185,9 Z M21.375,24.75 L5.625,24.75 C5.002875,24.75 4.5,24.247125 4.5,23.625 C4.5,23.002875 5.002875,22.5 5.625,22.5 L21.375,22.5 C21.997125,22.5 22.5,23.002875 22.5,23.625 C22.5,24.247125 21.997125,24.75 21.375,24.75 Z M21.375,20.25 L5.625,20.25 C5.002875,20.25 4.5,19.747125 4.5,19.125 C4.5,18.502875 5.002875,18 5.625,18 L21.375,18 C21.997125,18 22.5,18.502875 22.5,19.125 C22.5,19.747125 21.997125,20.25 21.375,20.25 Z"/></g></g></g></svg>