<svg xmlns="http://www.w3.org/2000/svg" xmlns:xlink="http://www.w3.org/1999/xlink" width="37" height="37" version="1.1" viewBox="0 0 37 37"><title>Microphone_</title><defs><filter id="filter-1"><feColorMatrix in="SourceGraphic" type="matrix" values="0 0 0 0 0.780392 0 0 0 0 0.784314 0 0 0 0 0.847059 0 0 0 1.000000 0"/></filter></defs><g id="berty" fill="none" fill-rule="evenodd" stroke="none" stroke-width="1"><g id="Microphone_" filter="url(#filter-1)" transform="translate(-29.000000, -570.000000)"><g transform="translate(29.000000, 570.000000)"><path id="Shape" fill="currentColor" fill-rule="nonzero" d="M18.5,0 C8.28273213,0 0,8.28273213 0,18.5 C0,28.7172679 8.28273213,37 18.5,37 C28.7172679,37 37,28.7172679 37,18.5 C37,13.5934949 35.0508985,8.88794755 31.5814755,5.41852455 C28.1120525,1.94910155 23.4065051,0 18.5,0 Z M12.6136364,10.36 C12.618273,8.35234065 14.247108,6.72727273 16.2547727,6.72727273 L20.7452273,6.72727273 C22.752892,6.72727273 24.381727,8.35234065 24.3863636,10.36 L24.3863636,19.9127273 C24.381727,21.9203866 22.752892,23.5454545 20.7452273,23.5454545 L16.2547727,23.5454545 C14.247108,23.5454545 12.618273,21.9203866 12.6136364,19.9127273 L12.6136364,10.36 Z M27.75,20.0472727 C27.7453667,23.8350294 24.6759385,26.9044576 20.8881818,26.9090909 L19.3409091,26.9090909 L19.3409091,28.5909091 L21.0227273,28.5909091 C21.4871485,28.5909091 21.8636364,28.9673969 21.8636364,29.4318182 C21.8636364,29.8962394 21.4871485,30.2727273 21.0227273,30.2727273 L15.9772727,30.2727273 C15.5128515,30.2727273 15.1363636,29.8962394 15.1363636,29.4318182 C15.1363636,28.9673969 15.5128515,28.5909091 15.9772727,28.5909091 L17.6590909,28.5909091 L17.6590909,26.9090909 L16.1118182,26.9090909 C12.3240615,26.9044576 9.25463335,23.8350294 9.25,20.0472727 L9.25,18.5 C9.25,18.0355787 9.62648782,17.6590909 10.0909091,17.6590909 C10.5553304,17.6590909 10.9318182,18.0355787 10.9318182,18.5 L10.9318182,20.0472727 C10.9318182,22.9081077 13.2509832,25.2272727 16.1118182,25.2272727 L20.8881818,25.2272727 C23.7490168,25.2272727 26.0681818,22.9081077 26.0681818,20.0472727 L26.0681818,18.5 C26.0681818,18.0355787 26.4446696,17.6590909 26.9090909,17.6590909 C27.3735122,17.6590909 27.75,18.0355787 27.75,18.5 L27.75,20.0472727 Z"/></g></g></g></svg>