<svg width="41" height="37" viewBox="0 0 41 37" fill="none" xmlns="http://www.w3.org/2000/svg">
<path d="M20.0806 14.0952L12.2096 5.47657C12.5453 4.96764 12.742 4.36016 12.742 3.70563C12.742 1.92035 11.2889 0.472412 9.49615 0.472412C7.702 0.472412 6.24805 1.92035 6.24805 3.70563C6.24805 5.49091 7.70155 6.9375 9.49615 6.9375C10.0429 6.9375 10.5568 6.80131 11.009 6.56387L18.88 15.1825C19.2229 14.7627 19.6279 14.3963 20.0806 14.0952Z" fill="currentColor"/>
<path d="M17.6897 18.1402L6.5752 18.9045C6.14545 17.621 4.93135 16.6936 3.49765 16.6936C1.7035 16.6936 0.25 18.1415 0.25 19.9273C0.25 21.7117 1.7035 23.1587 3.49765 23.1587C5.08795 23.1587 6.40915 22.0199 6.68725 20.5168L17.8 19.753C17.7154 19.374 17.6677 18.9824 17.6677 18.5792C17.6677 18.4309 17.678 18.2853 17.6897 18.1402Z" fill="currentColor"/>
<path d="M17.4658 28.8708C17.2084 28.8152 16.942 28.7852 16.6679 28.7852C14.5754 28.7852 12.8789 30.4742 12.8789 32.5569C12.8789 34.6392 14.5754 36.3277 16.6679 36.3277C18.7591 36.3277 20.4551 34.6392 20.4551 32.5569C20.4551 31.3245 19.8589 30.2331 18.9409 29.545L21.5963 23.7573C21.0662 23.6072 20.5699 23.3805 20.1199 23.0862L17.4658 28.8708Z" fill="currentColor"/>
<path d="M33.4358 12.209C34.2125 12.9464 35.2628 13.4029 36.4216 13.4029C38.8124 13.4029 40.7506 11.4734 40.7506 9.09313C40.7506 6.7129 38.8124 4.78247 36.4216 4.78247C34.0303 4.78247 32.0917 6.7129 32.0917 9.09313C32.0917 9.7369 32.237 10.3453 32.4922 10.8936L26.959 14.828C27.337 15.2146 27.6542 15.6586 27.9022 16.1433L33.4358 12.209Z" fill="currentColor"/>
<path d="M36.4208 26.0909C35.5586 26.0909 34.7661 26.3808 34.1294 26.8646L27.6777 21.408C27.3897 21.8698 27.0365 22.2856 26.627 22.6409L33.0755 28.0944C32.7933 28.6221 32.6322 29.2238 32.6322 29.8631C32.6322 31.9454 34.3283 33.6339 36.4208 33.6339C38.5124 33.6339 40.2084 31.9454 40.2084 29.8631C40.2084 27.7803 38.5124 26.0909 36.4208 26.0909Z" fill="currentColor"/>
<path d="M25.6273 9.05823C26.958 8.88889 27.9898 7.76978 27.9898 6.39935C27.9898 4.91154 26.7789 3.70508 25.2844 3.70508C23.79 3.70508 22.5781 4.91154 22.5781 6.39935C22.5781 7.43333 23.1703 8.32082 24.0298 8.77196L23.2279 13.1986C23.7859 13.2143 24.3223 13.3129 24.8259 13.484L25.6273 9.05823Z" fill="currentColor"/>
<path d="M27.6787 21.408C28.1908 20.585 28.4914 19.6182 28.4914 18.5793C28.4914 17.7017 28.2758 16.8756 27.9019 16.1435C27.6539 15.6583 27.3367 15.2148 26.9587 14.8282C26.3705 14.2252 25.6424 13.7624 24.8266 13.4846C24.323 13.3135 23.7866 13.2149 23.2286 13.1993C23.1787 13.1984 23.1292 13.1917 23.0783 13.1917C21.9695 13.1917 20.9395 13.5254 20.0813 14.0953C19.6282 14.3963 19.2236 14.7628 18.8807 15.1826C18.2107 16.0029 17.7809 17.0234 17.69 18.1403C17.6788 18.2854 17.668 18.431 17.668 18.5789C17.668 18.9821 17.7157 19.3736 17.8003 19.7526C18.1108 21.1428 18.9595 22.3295 20.1191 23.0857C20.5691 23.3801 21.0659 23.6068 21.5956 23.7568C22.0676 23.8903 22.5631 23.9669 23.0779 23.9669C24.4373 23.9669 25.6757 23.4643 26.6275 22.6404C27.0374 22.2856 27.3911 21.8699 27.6787 21.408Z" fill="currentColor"/>
</svg>
