<svg width="31" height="31" viewBox="0 0 31 31" fill="currentColor" xmlns="http://www.w3.org/2000/svg">
<path d="M4.66937 4.00584e-05C4.15099 4.00584e-05 3.63286 0.198595 3.23562 0.595827C2.44119 1.39026 2.44119 2.66889 3.23562 3.46332L10.5226 10.7512C10.5954 10.824 10.672 10.8904 10.7522 10.9498C10.7522 10.9563 10.7522 10.9627 10.7522 10.9692V16.6606C12.2111 16.8032 13.8157 16.8815 15.5 16.8815C17.1847 16.8815 18.7896 16.8023 20.2488 16.6596V10.9692C20.2488 10.9627 20.2488 10.9563 20.2488 10.9498C20.329 10.8904 20.4056 10.824 20.4784 10.7512L27.7653 3.46332C28.5598 2.66889 28.5598 1.39026 27.7653 0.595827C26.9709 -0.198609 25.6923 -0.198609 24.8978 0.595827L17.61 7.88274C17.5634 7.92927 17.5202 7.97844 17.4792 8.02807C17.4205 8.02462 17.3614 8.02225 17.3019 8.02225H13.6991C13.6396 8.02225 13.5804 8.02468 13.5218 8.02807C13.4807 7.97841 13.4376 7.93026 13.391 7.88373L6.10312 0.595827C5.70592 0.198595 5.18779 4.00281e-05 4.66937 4.00584e-05ZM15.3285 0.1095C13.3822 0.1095 11.8042 1.68752 11.8042 3.63382C11.8042 5.58012 13.3822 7.15815 15.3285 7.15815C17.2748 7.15815 18.8528 5.58012 18.8528 3.63382C18.8528 1.68752 17.2748 0.1095 15.3285 0.1095ZM10.294 11.346C4.29446 11.8997 0 13.3829 0 15.1261C0 17.3421 6.93957 19.1386 15.5 19.1386C24.0604 19.1386 31 17.3421 31 15.1261C31 13.3829 26.7055 11.8997 20.7061 11.346V12.0183C24.8277 12.4685 27.6791 13.4358 27.6791 14.5574C27.6791 16.1086 22.226 17.3668 15.5 17.3668C8.77396 17.3668 3.32184 16.1086 3.32184 14.5574C3.32184 13.4358 6.17222 12.4685 10.294 12.0183V11.346ZM10.7522 19.5252V28.9715C10.7522 30.095 11.6562 31 12.7797 31C13.9033 31 14.8073 30.095 14.8073 28.9715V20.6799H16.1927V28.9715C16.1927 30.095 17.0977 31 18.2212 31C19.3447 31 20.2488 30.095 20.2488 28.9715V19.5252C19.9271 19.552 19.6009 19.5756 19.2704 19.5969C19.1224 19.6064 18.9734 19.6156 18.8238 19.624C18.7534 19.628 18.6834 19.6319 18.6126 19.6356C18.489 19.6421 18.3653 19.6483 18.2406 19.654C18.1037 19.6603 17.966 19.6661 17.8279 19.6715C17.7885 19.673 17.7492 19.6749 17.7097 19.6763C17.2113 19.6946 16.7053 19.7063 16.1927 19.7122V19.7131C15.9629 19.7155 15.7323 19.7169 15.5 19.7169C15.2677 19.7169 15.0371 19.7157 14.8073 19.7131C14.6857 19.7116 14.564 19.7093 14.4431 19.7073C14.3172 19.7051 14.1923 19.7025 14.0672 19.6995C14.0517 19.6992 14.0362 19.6989 14.0207 19.6986C13.9303 19.6965 13.8404 19.6935 13.7505 19.6908C13.6561 19.6881 13.5613 19.6853 13.4676 19.6821C13.4226 19.6806 13.3777 19.6789 13.3329 19.6772C13.3036 19.6763 13.274 19.6754 13.2448 19.6745C13.222 19.6736 13.1996 19.6724 13.177 19.6718C13.0392 19.6664 12.9018 19.6606 12.7652 19.6543C12.7625 19.6543 12.7594 19.6543 12.7565 19.6543C12.7516 19.6543 12.7468 19.6537 12.7419 19.6534C12.729 19.6528 12.7162 19.6522 12.7032 19.6516C12.5584 19.6448 12.4145 19.6372 12.2712 19.6293C12.2573 19.6287 12.2433 19.6281 12.2295 19.6275C12.1912 19.6254 12.1534 19.6229 12.1152 19.6208C12.0309 19.6159 11.9461 19.6114 11.8623 19.6062C11.7405 19.5986 11.6188 19.5903 11.4981 19.582C11.2566 19.5654 11.0179 19.5473 10.7812 19.5278C10.7716 19.5269 10.7618 19.5266 10.7522 19.5259L10.7522 19.5252Z" fill="currentColor"/>
</svg>
