<svg width="37" height="47" viewBox="0 0 37 47" fill="currentColor" xmlns="http://www.w3.org/2000/svg">
<path d="M28.655 28.9907L24.9398 22.7092H21.2246L24.9398 28.9907L21.2246 35.2725H24.9398L28.655 28.9907Z" fill="currentColor"/>
<path d="M34.085 28.9907L30.3698 22.7092H26.6543L30.3698 28.9907L26.6543 35.2725H30.3698L34.085 28.9907Z" fill="currentColor"/>
<path d="M14.6828 34.5946L17.9973 28.9907L15.8876 25.4236C15.4487 25.2585 14.9115 25.1126 14.2522 25.019C11.566 24.6381 9.10065 27.9616 8.16307 29.9408C8.20488 26.1726 11.1627 25.0795 11.1423 24.7314C10.9544 21.515 12.1014 18.7108 12.3137 18.0062C12.7403 17.9566 13.1721 17.9194 13.595 17.8532C13.6916 18.4597 13.9832 19.2955 14.6984 19.3711C14.7617 19.3779 14.8234 19.3809 14.8841 19.3809C16.0126 19.3809 16.6753 18.2675 17.0397 17.655C17.4919 16.8955 17.9218 16.1082 17.7883 15.5577C17.6425 14.9565 16.8103 14.6561 16.3238 14.4342C15.5054 14.0612 14.647 13.7078 13.763 13.5352C13.2206 13.4295 12.3193 13.2209 11.795 13.4796C11.4102 13.6691 11.0432 14.2417 10.9558 14.3846C10.6621 14.8647 10.0453 15.2915 9.65898 15.6995C7.92294 17.5321 6.44516 19.5426 5.25672 21.7839C3.61577 24.8791 3.17843 29.7393 3.12737 30.3804C3.0308 30.5304 2.7644 30.9658 2.5794 31.4873C2.30967 32.2461 2.80288 32.6939 3.16326 33.0206C3.24318 33.0932 3.32125 33.1635 3.38785 33.2353C3.81705 33.6959 4.91484 33.8084 5.18938 33.8294C5.54421 34.0039 8.38211 35.0537 12.6945 35.0537C13.3545 35.0537 13.931 35.0289 14.4512 34.9868L14.6828 34.5946Z" fill="currentColor"/>
<path d="M15.791 35.2725H19.5062L23.2214 28.9907L19.5062 22.7092H15.791L19.5062 28.9907L15.791 35.2725Z" fill="currentColor"/>
<path d="M7.45224 16.6095C5.74395 8.38003 11.3125 3.72289 20.084 3.7729C16.5198 5.96122 16.5731 7.43589 16.848 8.56351C21.5833 4.97647 26.4762 8.81393 29.9161 2.54639C30.2846 11.464 23.975 11.344 23.2586 13.3564C26.8658 13.0469 27.9192 14.0723 29.2989 15.8417C22.1708 15.1405 21.712 20.3819 16.8151 20.3819C19.5664 18.3455 18.5378 16.893 22.0709 15.0615C20.9554 13.9053 18.3099 14.114 18.3099 14.114C18.3099 14.114 18.1671 12.1851 20.5847 10.2487C19.2408 9.70091 15.5408 10.5593 14.1226 12.5333C12.6733 11.6245 12.4576 10.4025 12.6922 9.08089C10.4256 9.78213 7.97653 13.8956 7.45224 16.6095Z" fill="currentColor"/>
</svg>
