<svg width="16" height="16" viewBox="0 0 16 16" fill="none" xmlns="http://www.w3.org/2000/svg">
<path d="M11.9838 2.23795C11.9492 2.15062 11.8701 2.09422 11.7823 2.09123L9.3841 2C9.00517 2 8.89872 2.04407 8.68675 2.32101L4.50294 8.19749C4.45372 8.26913 4.44329 8.36498 4.48079 8.44561C4.52147 8.52495 4.59732 8.57537 4.68232 8.57583L6.93332 8.5839C7.40698 8.58644 7.58274 8.92993 7.3231 9.34726L4.03608 14.6346C3.97401 14.738 3.99298 14.8738 4.08564 14.9509C4.12874 14.9866 4.18158 15.0023 4.23442 14.9997C4.28803 14.9972 4.34483 14.9709 4.38681 14.9251L11.5959 6.95027C11.6577 6.88154 11.6729 6.78233 11.6383 6.6941C11.604 6.60714 11.5254 6.55373 11.4359 6.55291L10.2725 6.54911L9.15508 6.54484C8.68833 6.53931 8.56895 6.24334 8.89183 5.88242L11.939 2.48987C11.9991 2.42322 12.0164 2.32057 11.9837 2.23795L11.9838 2.23795Z" fill="currentColor"/>
</svg>
