<svg width="16" height="16" viewBox="0 0 16 16" fill="none" xmlns="http://www.w3.org/2000/svg">
<path d="M8.00008 13.8659C7.26675 13.8659 6.66675 13.2659 6.66675 12.5326C6.66675 11.7992 7.26675 11.1992 8.00008 11.1992C8.73341 11.1992 9.33341 11.7992 9.33341 12.5326C9.33341 13.2659 8.73341 13.8659 8.00008 13.8659Z" fill="currentColor"/>
<path d="M10.4672 10.6004C10.3338 10.6004 10.2005 10.5337 10.0672 10.4671C8.93382 9.60039 7.13382 9.60039 6.00049 10.4671C5.73382 10.6671 5.26716 10.6671 5.06716 10.3337C4.86716 10.0671 4.86716 9.60039 5.20049 9.40039C5.93382 8.73372 6.93382 8.40039 8.00049 8.40039C9.06716 8.40039 10.0672 8.73372 10.8672 9.33372C11.1338 9.53372 11.2005 10.0004 11.0005 10.2671C10.8005 10.4671 10.6672 10.6004 10.4672 10.6004Z" fill="currentColor"/>
<path d="M12.5337 8.5332C12.4003 8.5332 12.2003 8.46654 12.067 8.3332C10.9337 7.3332 9.46701 6.79987 7.93367 6.79987C6.40034 6.79987 5.00034 7.39987 3.86701 8.39987C3.60034 8.66654 3.20034 8.59987 2.93368 8.3332C2.66701 8.06654 2.73368 7.66654 3.00034 7.39987C4.33368 6.19987 6.13367 5.5332 8.00034 5.5332C9.867 5.5332 11.667 6.19987 13.0003 7.39987C13.267 7.66654 13.267 8.06654 13.067 8.3332C12.9337 8.46654 12.7337 8.5332 12.5337 8.5332Z" fill="currentColor"/>
<path d="M1.33341 6.59935C1.13341 6.59935 1.00008 6.53268 0.866748 6.39935C0.600081 6.13268 0.600081 5.73268 0.866748 5.46602C2.80008 3.66602 5.33341 2.66602 8.00008 2.66602C10.6667 2.66602 13.2001 3.66602 15.1334 5.39935C15.4001 5.66602 15.4001 6.06602 15.1334 6.33268C14.8667 6.59935 14.4667 6.59935 14.2001 6.33268C12.5334 4.86602 10.3334 3.99935 8.00008 3.99935C5.66675 3.99935 3.46675 4.86602 1.80008 6.39935C1.66675 6.53268 1.46675 6.59935 1.33341 6.59935Z" fill="currentColor"/>
</svg>
