<svg xmlns="http://www.w3.org/2000/svg" xmlns:xlink="http://www.w3.org/1999/xlink" width="47" height="47" version="1.1" viewBox="0 0 47 47"><g id="berty" fill="none" fill-rule="evenodd" stroke="none" stroke-width="1"><g id="search/quotes" fill="#DADDE6" fill-rule="nonzero" transform="translate(-307.000000, -281.000000)"><g id="Group" transform="translate(307.000000, 281.000000)"><path id="Shape" d="M46.5104167,42.6427083 L42.9854167,34.9072917 C45.090625,31.3822917 46.1677083,27.3677083 46.1677083,23.20625 C46.1677083,10.575 35.8864583,0.244791667 23.20625,0.244791667 C10.5260417,0.244791667 0.244791667,10.5260417 0.244791667,23.20625 C0.244791667,35.8864583 10.5260417,46.1677083 23.20625,46.1677083 C27.31875,46.1677083 31.3333333,45.0416667 34.8583333,42.9854167 L42.6427083,46.5104167 C43.034375,46.70625 43.475,46.7552083 43.8666667,46.7552083 C44.6010417,46.7552083 45.3354167,46.4614583 45.9229167,45.8739583 C46.7552083,45.0416667 47,43.76875 46.5104167,42.6427083 Z M35.396875,39.8520833 C35.2010417,39.7541667 35.0052083,39.7052083 34.7604167,39.7052083 C34.4666667,39.7052083 34.1729167,39.803125 33.928125,39.95 C30.696875,42.00625 26.9760417,43.0833333 23.1572917,43.0833333 C12.190625,43.0833333 3.23125,34.1729167 3.23125,23.1572917 C3.23125,12.1416667 12.190625,3.28020833 23.20625,3.28020833 C34.221875,3.28020833 43.1322917,12.190625 43.1322917,23.20625 C43.1322917,27.025 42.0552083,30.7458333 39.9989583,33.9770833 C39.7052083,34.4177083 39.7052083,34.95625 39.9010417,35.4458333 L43.6708333,43.6708333 L35.396875,39.8520833 Z"/><path id="Path" d="M17.478125,16.15625 C16.4010417,16.15625 15.4708333,16.5479167 14.6875,17.3802083 C13.9041667,18.1635417 13.4635417,19.09375 13.4635417,20.121875 C13.4635417,21.1010417 13.80625,21.9822917 14.4427083,22.765625 C15.0791667,23.5489583 16.15625,23.7447917 17.0864583,23.79375 C16.9395833,25.0666667 16.2052083,26.3885417 15.5197917,27.31875 C15.421875,27.465625 15.275,27.6125 15.1770833,27.759375 C14.98125,27.9552083 14.98125,28.2979167 15.1770833,28.49375 L16.6947917,30.0604167 C16.9395833,30.3052083 17.2822917,30.3052083 17.5270833,30.0604167 C18.1635417,29.375 18.7510417,28.5916667 19.2895833,27.7104167 C20.7583333,25.409375 21.4927083,23.1083333 21.4927083,20.7583333 C21.4927083,19.3875 21.1010417,18.3104167 20.26875,17.4291667 C19.4854167,16.596875 18.50625,16.15625 17.478125,16.15625 Z"/><path id="Path" d="M28.934375,16.15625 C27.8572917,16.15625 26.9270833,16.5479167 26.14375,17.3802083 C25.3604167,18.1635417 24.9197917,19.09375 24.9197917,20.121875 C24.9197917,21.1010417 25.2625,21.9822917 25.8989583,22.765625 C26.5354167,23.5489583 27.6125,23.7447917 28.5427083,23.79375 C28.3958333,25.0666667 27.6614583,26.3885417 26.9760417,27.31875 C26.878125,27.465625 26.73125,27.6125 26.6333333,27.759375 C26.4375,27.9552083 26.4375,28.2979167 26.6333333,28.49375 L28.1510417,30.0604167 C28.3958333,30.3052083 28.7385417,30.3052083 28.9833333,30.0604167 C29.6197917,29.375 30.2072917,28.5916667 30.7458333,27.7104167 C32.2145833,25.409375 32.9489583,23.1083333 32.9489583,20.7583333 C32.9489583,19.3875 32.5572917,18.3104167 31.725,17.4291667 C30.9416667,16.596875 30.0114583,16.15625 28.934375,16.15625 Z"/></g></g></g></svg>