<?xml version="1.0" encoding="utf-8"?>
<!-- Svg Vector Icons : http://www.onlinewebfonts.com/icon -->
<!DOCTYPE svg PUBLIC "-//W3C//DTD SVG 1.1//EN" "http://www.w3.org/Graphics/SVG/1.1/DTD/svg11.dtd">
<svg version="1.1" xmlns="http://www.w3.org/2000/svg" xmlns:xlink="http://www.w3.org/1999/xlink" x="0px" y="0px" viewBox="0 0 1000 1000" enable-background="new 0 0 1000 1000" xml:space="preserve">
<metadata> Svg Vector Icons : http://www.onlinewebfonts.com/icon </metadata>
<g><path d="M576.3,877.3c-30.5,7.2-62.1,10.9-93.7,10.9c-223.3,0-405-181.7-405-405s181.7-405,405-405c223.3,0,405,181.7,405,405c0,32.8-3.9,65.5-11.7,97.1c-4.5,18.1,6.6,36.4,24.7,40.8c18.1,4.7,36.4-6.5,40.8-24.7c9.1-36.9,13.7-75,13.7-113.3c0-260.6-212-472.5-472.5-472.5C222,10.6,10,222.6,10,483.1c0,260.6,212,472.6,472.5,472.6c36.9,0,73.7-4.3,109.3-12.7c18.1-4.3,29.4-22.4,25-40.6C612.6,884.2,594.4,872.9,576.3,877.3z"/><path d="M250.2,594.7c-14.7,11.5-17.3,32.7-5.8,47.4c58,74.2,145.2,116.7,239.3,116.7c95.1,0,182.9-43.3,240.9-118.7c11.4-14.8,8.6-35.9-6.2-47.3s-35.9-8.6-47.3,6.2c-45.1,58.7-113.4,92.3-187.4,92.3c-73.2,0-141-33.1-186.2-90.8C286.1,585.8,264.8,583.3,250.2,594.7z"/><path d="M382.4,435.9v-67.5c0-28-22.6-50.6-50.6-50.6s-50.6,22.6-50.6,50.6v67.5c0,28,22.6,50.6,50.6,50.6S382.4,463.8,382.4,435.9z"/><path d="M686.2,435.9v-67.5c0-28-22.7-50.6-50.6-50.6S585,340.4,585,368.3v67.5c0,28,22.7,50.6,50.6,50.6S686.2,463.8,686.2,435.9z"/><path d="M956.2,786.9H855V685.6c0-18.7-15.1-33.8-33.8-33.8s-33.8,15.1-33.8,33.8v101.3H686.2c-18.7,0-33.8,15.1-33.8,33.8s15.1,33.8,33.8,33.8h101.3v101.3c0,18.7,15.1,33.8,33.8,33.8s33.8-15.1,33.8-33.8V854.4h101.3c18.7,0,33.8-15.1,33.8-33.8S974.9,786.9,956.2,786.9z"/></g>
</svg>