<svg xmlns="http://www.w3.org/2000/svg" xmlns:xlink="http://www.w3.org/1999/xlink" width="114" height="117" version="1.1" viewBox="0 0 114 117"><title>Buck Berty Icon Card</title><defs><ellipse id="path-1" cx="45" cy="46.5" rx="45" ry="46.5"/><filter id="filter-2" width="137.8%" height="136.6%" x="-18.9%" y="-14%" filterUnits="objectBoundingBox"><feMorphology in="SourceAlpha" operator="dilate" radius="6" result="shadowSpreadOuter1"/><feOffset dx="0" dy="4" in="shadowSpreadOuter1" result="shadowOffsetOuter1"/><feGaussianBlur in="shadowOffsetOuter1" result="shadowBlurOuter1" stdDeviation="3"/><feComposite in="shadowBlurOuter1" in2="SourceAlpha" operator="out" result="shadowBlurOuter1"/><feColorMatrix in="shadowBlurOuter1" type="matrix" values="0 0 0 0 0.670588235 0 0 0 0 0.682352941 0 0 0 0 0.819607843 0 0 0 0.3 0"/></filter><linearGradient id="linearGradient-3" x1="50%" x2="50%" y1="0%" y2="100%"><stop offset="0%" stop-color="#4E53FF"/><stop offset="100%" stop-color="#3442D9"/></linearGradient></defs><g id="berty" fill="none" fill-rule="evenodd" stroke="none" stroke-width="1"><g id="betabot-popup-copy" transform="translate(-131.000000, -154.000000)"><g id="card/large/mine" transform="translate(0.000000, 162.000000)"><g id="Buck-Berty-Icon-Card" transform="translate(143.000000, 0.000000)"><g id="Avatar-Copy"><use fill="#000" fill-opacity="1" filter="url(#filter-2)" xlink:href="#path-1"/><ellipse cx="45" cy="46.5" fill="#FFF" fill-rule="evenodd" stroke="#FFF" stroke-width="6" rx="48" ry="49.5"/></g><g id="1_berty_picto" fill-rule="nonzero" transform="translate(13.000000, 10.000000)"><path id="Shape" fill="#FFBF47" d="M7.90645258,9.49431514 L3.31317058,7 C-3.74855063,19.7764921 0.852971693,35.8965277 13.5543691,43 L16,38.2035139 C5.90383941,32.2544217 2.38551997,19.752243 7.90645258,9.49431514 Z"/><path id="Shape" fill="#3442D9" d="M34,15.3555649 L28.9848771,4 C24.1792691,6.21302941 20.9858223,10.5760518 20,15.4726326 L28.0233144,20 C29.8449905,18.2012101 31.8563327,16.6478121 34,15.3555649 Z"/><path id="Shape" fill="#FFBF47" d="M19.2877118,16 C20.2457641,11.1068616 23.3401875,6.74690664 28,4.53543308 L26.0560947,0 C20.4360915,2.66591676 16.556835,7.71878516 15,13.5050619 L19.2877118,16 L19.2877118,16 Z"/><path id="Shape" fill="url(#linearGradient-3)" d="M36.1229783,27.6424115 C36.1229783,27.4182278 36.1274085,27.1940441 36.1384841,26.9720584 C36.4906865,19.2179405 43.1027881,13.0397021 51,13.022119 C51.0085137,11.5737166 50.8445957,10.6330243 50.8445957,10.6000561 C50.8733921,10.6000561 50.661194,10.535764 50.6877752,10.535764 C46.250911,10.4940043 42.108204,11.4286566 38.0523386,13.1166278 C36.6789707,13.6880764 35.3454748,14.3518359 34.0584963,15.1057084 C32.4414664,16.0529944 30.9019653,17.1409447 29.4599291,18.3695591 C28.9792503,18.7783647 28.5096471,19.2025553 28.0511195,19.6421312 L19.9947663,15.2178003 L15.5556871,12.7825502 L8.66005133,9 C3.00709203,19.0882656 6.65980751,31.8095905 16.8138692,37.4295676 L6.83480115,56.3357246 C11.0457242,58.5226144 15.5158151,59.6918861 19.9659699,59.949038 C32.2952692,60.6633488 44.5851487,53.8235487 50.6877752,42.262704 C42.5844525,42.1264355 36.1229783,35.6339003 36.1229783,27.6424115 Z"/><path id="Shape" fill="#FFC14B" d="M38.9044184,36.5935614 C36.6230838,34.0365047 35.1780883,30.6884162 35.01578,27 C35.0045085,27.2322506 35,27.4668008 35,27.701351 C35,36.0623743 41.5734896,42.8574303 49.7385031,42.9977005 C49.8264202,43 49.9120829,43 50,43 L50,41.5949986 C45.6041478,41.5972981 41.647881,39.668008 38.9044184,36.5935614 Z"/><path id="Shape" fill="#FFF" d="M49.9638935,14.0022053 C41.9189108,14.0198472 35.3610651,20.2209971 35,28.0011027 C35.1624793,31.5383162 36.6089965,34.7491534 38.8927336,37.2013862 C41.6390853,40.1497992 45.5972619,42 50,42 L50,14 C49.9887167,14 49.9774334,14 49.9638935,14.0022053 Z"/><path id="Shape" fill="#FFAE3A" d="M51.0021565,31 C50.9992812,38.3333333 50.9992812,42 51.0021565,42 C56.401882,41.9937263 60.9239365,38.1979766 62,33.2710641 L51.0021565,31 Z"/><path id="Shape" fill="#FFC14B" d="M64.1620579,16.3946659 C60.7655948,13.3190554 56.3472669,11.3502155 51.4765274,11.0448995 C51.0128618,11.0202048 50.5491962,11.00449 50.0855306,11 C50.0562701,11 50.0270097,11.002245 50,11.002245 C50,11.078574 50,31.6357759 50,31.6357759 L70.5678457,36 C70.8491962,34.6395475 71,33.2319505 71,31.7884339 C70.9954984,25.6866021 68.3598071,20.1976473 64.1620579,16.3946659 Z"/><path id="Shape" fill="#F74868" d="M0,69.5236739 C6.83291587,72.8255629 15.2790334,70.4027888 18.8651829,64.1114923 C19.3765203,63.2136284 19.7375436,62.3725688 20,61.4309576 C15.4522647,61.1872219 10.8598464,60.0707115 6.56325463,58 L0,69.5236739 Z"/><circle id="Oval" cx="45.5" cy="27.5" r="2.5" fill="#383B62"/></g></g></g></g></g></svg>